<?xml version="1.0" encoding="utf-8"?>
<!-- Generator: Adobe Illustrator 17.1.0, SVG Export Plug-In . SVG Version: 6.00 Build 0)  -->
<!DOCTYPE svg PUBLIC "-//W3C//DTD SVG 1.1//EN" "http://www.w3.org/Graphics/SVG/1.1/DTD/svg11.dtd">
<svg version="1.1" xmlns="http://www.w3.org/2000/svg" xmlns:xlink="http://www.w3.org/1999/xlink" x="0px" y="0px"
	 viewBox="0 0 180 180" enable-background="new 0 0 180 180" xml:space="preserve">
<g id="Layer_2" display="none">
	<rect x="70.4" y="55" display="inline" fill="#848485" width="39" height="70"/>
</g>
<g id="Layer_1">
	<g>
		<path fill="#858585" d="M116.2,100.2c-3.3,0-6.6,0-9.9,0c-0.3,0-0.5-0.1-0.6-0.4c-2.7-4.7-5.4-9.4-8-14
			c-3.5-6.1-7.1-12.3-10.6-18.4c-0.6-1.1-1.2-2.2-1.9-3.2c-0.1-0.2-0.1-0.3,0.1-0.4c2.6-1.5,5.2-3,7.8-4.5c2.3-1.3,4.6-2.7,6.9-4
			c0.3-0.2,0.4-0.1,0.5,0.2c1.1,1.9,2.2,3.8,3.3,5.7c2.4,4.2,4.9,8.4,7.3,12.6c3.4,5.9,6.8,11.8,10.3,17.8c1.6,2.8,3.3,5.7,4.9,8.5
			c0.2,0.3,0.1,0.3-0.2,0.3C122.9,100.2,119.6,100.2,116.2,100.2z"/>
		<path fill="#858585" d="M82.7,104.6c-1.4,0-2.8,0-4.2,0c-0.2,0-0.2-0.1-0.2-0.3c0-1.3,0-2.6,0-4c0-0.2,0-0.3-0.1-0.5
			c-3.2-5.6-6.4-11.2-9.6-16.8c-0.6-1.1-1.2-2.2-1.9-3.2c-0.1-0.2-0.1-0.3,0.1-0.4c3.5-2,7-4,10.5-6c1.5-0.9,3-1.7,4.5-2.6
			c0.3-0.1,0.4-0.1,0.5,0.1c1.3,2.3,2.6,4.6,4,6.8c3.6,6.2,7.2,12.4,10.9,18.6c0.7,1.2,1.4,2.4,2.1,3.6c0,0,0,0.1,0,0.1
			c-0.1,0-0.3,0-0.4,0c-5.2,0-10.4,0-15.6,0c-0.3,0-0.4,0.1-0.4,0.4C82.8,101.9,82.8,103.3,82.7,104.6
			C82.7,104.6,82.7,104.6,82.7,104.6z"/>
		<path fill="#858585" d="M99.2,100.2C99.2,100.2,99.2,100.2,99.2,100.2c1.3-0.1,2.6-0.1,4-0.1c0.3,0,0.4,0.1,0.4,0.4
			c0,7.8,0,15.6,0,23.5c0,0.3-0.1,0.4-0.4,0.4c-1.2,0-2.4,0-3.6,0c-0.3,0-0.4-0.1-0.4-0.4c0-0.2,0-0.4,0-0.6c-2.5,1.6-5.2,2-8.1,1.2
			c-2.1-0.6-3.9-1.8-5.2-3.7c-2.6-3.7-2.4-8.6,0.6-12c2.8-3.2,7.9-4.7,12.7-1.7C99.2,104.9,99.2,102.5,99.2,100.2z M99.1,115.3
			c0-2.9-2.4-5.3-5.2-5.3c-2.9,0-5.3,2.3-5.3,5.3c0,3,2.3,5.3,5.3,5.3C96.7,120.6,99.1,118.2,99.1,115.3z"/>
		<path fill="#858585" d="M72,100c0.1,0.2,0.2,0.1,0.4,0.1c1.2,0,2.4,0,3.6,0c0.3,0,0.3,0.1,0.3,0.3c0,7.8,0,15.7,0,23.5
			c0,0.3-0.1,0.3-0.3,0.3c-1.2,0-2.4,0-3.7,0c-0.3,0-0.4-0.1-0.3-0.3c0-0.2,0-0.4,0-0.6c-4.8,3-10.4,1.3-13.1-2.2
			c-2.8-3.6-2.6-8.8,0.3-12.2c3-3.6,8.4-4.6,12.7-1.8c0.1,0,0-0.1,0-0.2c0-2.2,0-4.4,0-6.6c0-0.1,0-0.1,0-0.2
			C72,100.2,72,100.1,72,100z M71.9,115.3c0-2.9-2.4-5.3-5.3-5.3c-2.9,0-5.3,2.4-5.3,5.4c0.1,2.8,2.3,5.1,5.3,5.1
			C69.6,120.6,71.9,118.2,71.9,115.3z"/>
		<path fill="#858585" d="M119.8,107.2c0-0.9,0-0.9,0.9-0.9c1,0,2.1,0,3.1,0c0.3,0,0.4,0,0.4,0.4c0,5.8,0,11.5,0,17.3
			c0,0.3-0.1,0.4-0.3,0.3c-1.2,0-2.5,0-3.7,0c-0.3,0-0.4-0.1-0.3-0.3c0-0.2,0-0.4,0-0.6c-2.4,1.6-5.1,1.9-7.8,1.3
			c-2.2-0.5-4-1.8-5.3-3.6c-2.6-3.5-2.5-8.3,0.2-11.7C109.2,106.3,114.6,103.9,119.8,107.2z M119.8,115.3c-0.1-3-2.4-5.3-5.3-5.3
			c-2.9,0-5.2,2.3-5.3,5.1c-0.1,3.1,2.3,5.4,5.2,5.5C117.4,120.6,119.7,118.2,119.8,115.3z"/>
		<path fill="#858585" d="M128.3,118.5c0.7,0,1.4,0,2.1,0c0.2,0,0.3,0,0.3,0.2c0.1,1.6,1.2,2.3,2.5,2.5c1.1,0.2,2.1,0.2,3.1-0.4
			c0.7-0.4,1-1.1,0.8-1.8c-0.1-0.5-0.4-0.7-0.8-0.9c-1.1-0.4-2.2-0.6-3.4-0.8c-1.4-0.3-2.8-0.6-4.1-1.2c-1.3-0.6-2.4-1.4-2.7-2.8
			c-0.5-2-0.1-3.8,1.3-5.3c1.2-1.2,2.7-1.8,4.3-2.1c1.9-0.3,3.8-0.2,5.6,0.5c1.8,0.7,3.3,1.9,3.8,3.9c0.1,0.4,0.2,0.9,0.2,1.3
			c0,0.2,0,0.2-0.2,0.2c-1.4,0-2.8,0-4.2,0c-0.1,0-0.2,0-0.2-0.2c0-1.7-1.1-2.2-2.3-2.4c-0.9-0.1-1.8-0.1-2.6,0.3
			c-0.7,0.4-1.1,1.2-0.9,1.8c0.2,0.5,0.6,0.8,1,1c1,0.5,2.1,0.6,3.2,0.9c1.5,0.3,3,0.5,4.4,1.1c1.8,0.7,2.8,2.1,2.8,4.2
			c0,1.5-0.3,2.8-1.3,3.9c-0.9,1-2,1.6-3.2,2c-2.6,0.8-5.3,0.8-7.9-0.3c-2.3-0.9-3.7-2.6-4-5.1c-0.1-0.6-0.1-0.6,0.5-0.6
			C127,118.5,127.6,118.5,128.3,118.5z"/>
		<path fill="#858585" d="M72,100c0,0.1,0,0.1,0,0.2c-6.7,0-13.4,0-20.2,0c-0.1,0-0.3,0-0.4,0c0,0,0,0-0.1,0
			c-0.8-1.2-1.4-2.5-2.2-3.8c-0.2-0.3-0.3-0.6-0.5-0.9c-0.1-0.2-0.1-0.3,0.1-0.4c2.7-1.5,5.4-3.1,8.1-4.6c2.3-1.3,4.6-2.6,6.9-3.9
			c0.2-0.1,0.3-0.1,0.4,0.1c2.2,3.8,4.4,7.5,6.6,11.3C71.2,98.6,71.6,99.3,72,100z"/>
		<path fill="#858585" d="M82.8,115.3c0,2.9,0,5.7,0,8.6c0,0.3-0.1,0.4-0.4,0.4c-1.2,0-2.5,0-3.7,0c-0.3,0-0.4-0.1-0.4-0.4
			c0-5.7,0-11.5,0-17.2c0-0.3,0.1-0.4,0.4-0.4c1.3,0,2.5,0,3.8,0c0.3,0,0.3,0.1,0.3,0.3C82.8,109.5,82.8,112.4,82.8,115.3z"/>
		<path fill="#858585" d="M51.3,100.2C51.4,100.2,51.4,100.2,51.3,100.2C51.3,100.2,51.3,100.2,51.3,100.2z"/>
		<path fill="#858585" d="M82.7,104.6C82.7,104.6,82.7,104.6,82.7,104.6C82.8,104.6,82.8,104.7,82.7,104.6z"/>
		<path fill="#858585" d="M51,107.1c0-0.9,0-0.9,0.9-0.9c1,0,2.1,0,3.1,0c0.3,0,0.4,0,0.4,0.4c0,5.8,0,11.5,0,17.3
			c0,0.3-0.1,0.4-0.3,0.3c-1.2,0-2.5,0-3.7,0c-0.3,0-0.4-0.1-0.3-0.3c0-0.2,0-0.4,0-0.6c-2.4,1.6-5.1,1.9-7.8,1.3
			c-2.2-0.5-4-1.8-5.3-3.6c-2.6-3.5-2.5-8.3,0.2-11.7C40.3,106.3,45.7,103.9,51,107.1z M51,115.3c-0.1-3-2.4-5.3-5.3-5.3
			c-2.9,0-5.2,2.3-5.3,5.1c-0.1,3.1,2.3,5.4,5.2,5.5C48.6,120.6,50.9,118.2,51,115.3z"/>
	</g>
</g>
</svg>
