<?xml version="1.0" encoding="utf-8"?>
<!-- Generator: Adobe Illustrator 17.1.0, SVG Export Plug-In . SVG Version: 6.00 Build 0)  -->
<!DOCTYPE svg PUBLIC "-//W3C//DTD SVG 1.1//EN" "http://www.w3.org/Graphics/SVG/1.1/DTD/svg11.dtd">
<svg version="1.1" xmlns="http://www.w3.org/2000/svg" xmlns:xlink="http://www.w3.org/1999/xlink" x="0px" y="0px"
	 viewBox="0 0 180 180" enable-background="new 0 0 180 180" xml:space="preserve">
<g id="Layer_2" display="none">
	<rect x="70.4" y="55" display="inline" fill="#848485" width="39" height="70"/>
</g>
<g id="Layer_1">
	<g>
		<path fill="#858585" d="M144.4,119.1l1.3-0.3c0.9,0.2,2.3-0.2,2.9-1.3c0.7-1.2,1.5-2.4,1.9-3.7c0.7-2.4,0.5-4.8,0.1-7.2
			c-0.6-3.1-1.6-6.2-2.4-9.3c-0.2-0.8-0.3-1.4,0.6-1.8c0.2-0.1,0.5-0.3,0.6-0.6c0.6-0.8,1.4-1.1,2.4-0.9c0.2,0.1,0.5,0,0.8,0
			c1.4-0.4,2.8-0.1,4.1,0c1.3,0.1,2.1-0.8,1.8-2c-0.1-0.5,0.1-0.4,0.4-0.5c0.6,0,1.2-0.1,1.9-0.2c0.6-0.1,1.2-0.3,1.4-0.9
			c0.3-0.9,0.1-1.4-0.7-1.9c-0.3-0.2-0.2-0.3-0.1-0.5c0.5-0.7,0.5-1.3-0.1-1.9c-0.4-0.5-0.9-1-1.4-1.6c-0.5-0.6-0.8-1.2-0.8-1.9
			c0-0.1,0-0.1,0.1-0.2c0.1-0.4,0.1-0.7,0.2-1.1c0-0.1,0-0.1,0.1-0.2c0-0.1,0-0.2,0-0.3c0.6-2.7,1.4-5.4,1.1-8.2
			c-0.2-1.5-0.5-2.8-1.3-4.1c-0.6-1.3-1.6-2.4-2.6-3.4c-0.4-0.4-0.3-0.5,0.1-0.8c1-0.5,1.2-1,0.8-1.8c-0.1,0-0.3,0.1-0.4,0.1
			c0.1,0,0.3-0.1,0.4-0.1c-0.3-0.5-0.8-0.7-1.2-0.9c-0.3-0.2-0.5-0.3-0.4-0.7c0.1-0.5-0.1-1-0.6-1.2c-1-0.4-2-0.7-3.1-0.6
			c-1.3,0.1-1.3,0.1-0.9-1.1c0.2-0.7,0-1.2-0.6-1.5c-1.2-0.5-2.7-0.3-3.5,0.7c-0.4,0.4-0.6,0.4-1.1,0.2c-4.7-2.2-9.4-2.6-14.4-1.1
			c-3.7,1.2-7.4,2-11.3,1.3c-0.6-0.1-1.1,0.2-1.4,0.7c-0.3,0.5-0.3,1.1,0.1,1.6c0.3,0.4,0.7,0.8,1.1,1.2c0.3,0.3,0.8,0.6,0.8,0.9
			c0.1,0.4-0.5,0.6-0.7,1c-0.1,0.2-0.2,0.4-0.3,0.5c-1,2.1-1.3,4.3-1.4,6.6c0,1,1,1.6,2,1.3c0.3-0.1,0.6-0.3,0.9-0.5l0.3,2.5
			c0.3,1,0.1,1.7-1,2.1c-0.4,0.2-0.6,0.3-0.9,0.1c-1.1-0.5-2.3-0.8-3.6-0.7c-0.6,0-0.8-0.2-1.1-0.7c-0.8-1.8-2.2-2.8-4.1-3.4
			c-1.9-0.5-3.8-0.3-5.7,0.1c-2.2,0.5-4.2,1.4-5.5,3.3c-0.3,0.4-0.5,0.2-0.7,0.1c-1.5-0.6-3-1.2-4.5-1.6c-4.7-1.7-9.6-2.7-14.6-2.9
			c-7.5-0.3-14.7,0.9-21.8,3.2c-1.5,0.5-2.9,1.1-4.3,1.7c-1.6,0.7-2.7,0.4-3.5-1.1c-0.1-0.1-0.1-0.2-0.2-0.3
			c-2.1-3.8-5.4-5.9-9.9-5.8c-4.5,0-7.7,2.2-9.6,6c-2.9,5.8-5.7,11.5-8.6,17.3c-1,2-2,3.9-2.9,5.9c-0.9,1.8-1.2,3.7-0.9,5.7
			c0.4,2.2,1.3,4.1,2.9,5.6c1.7,1.8,3.9,2.8,6.4,3.1c4.6,0.5,8.1-1.3,10.8-4.7c0.8-1,1.5-2.1,2.2-3.3c0.2,0.2,0.3,0.4,0.4,0.6
			c1.1,1.5,2.1,3.1,3.5,4.3c2.1,1.8,4.4,3,7.3,3.1c3.5,0.1,6.2-1.5,8.5-3.9c1.7-1.8,3.5-3.4,5.6-4.7c4-2.5,8.3-3,12.8-2
			c1.8,0.4,3.4,1.2,5.2,1.8c3.5,1.5,7,2.9,10.4,4.4c1.1,0.5,2.2,1,3.3,1.5c2.1,0.9,4.1,2,6.3,2.5c3.6,0.8,6.9,0.4,9.7-2.1
			c0.9-0.8,1.6-1.8,2.2-2.9c1.5,2.8,3.8,4.6,7,5.2c0.5,0.1,0.6,0.3,0.6,0.7c0.3,4.2,2.3,7.3,6.2,9.3c4.1,2.1,9.7,1.4,12.9-1.6
			L144.4,119.1z"/>
		<polygon fill="#D8D8D8" points="125,65.9 125.3,67.2 126.2,68.1 126.6,67.5 127.1,66.1 127.2,65.9 128,67.3 129.2,68.5 
			130.1,68.8 130,67.7 129.8,66.4 130.1,66.2 130.8,66.9 131.3,67.6 131.8,67.5 132,66.8 132.5,67.1 133.3,68.7 135.1,70.5 
			137.9,72.4 138.3,72.2 136.9,68.9 136.7,67.4 138.2,69.1 139.3,69.9 139.6,69.4 139.4,67.7 139.9,65.5 141.1,66.7 142.8,68.7 
			143.4,68.5 143.2,65.3 143.6,65.3 147.9,70.1 148.4,68.7 149.8,71.4 150.5,73.5 151.3,72.9 152.1,72 152.5,73.9 152.6,76.3 
			153.4,76.9 153.6,79.3 153.1,82.9 153.4,83.3 153.8,83.3 153.5,84.1 152.5,85.9 152.3,86.4 153.7,87.1 154.5,88.7 154.5,89.7 
			153.5,91.5 151.2,92.1 149.5,92.5 147.7,93.8 144.4,95.8 140.7,96.3 137.1,96 134.2,95.6 132,95.6 129.2,95.2 125.8,93 
			123.3,90.7 120.8,87.5 120.3,85.7 120.6,83.3 121.2,82.1 120.1,81 119.6,79 120.2,77.1 121.6,76.4 122.2,75.9 122.2,74.8 
			122.1,72.4 122.2,70 123.3,67.2 124.2,65.3 124.8,64.8 		"/>
		<path fill="#E0E0E0" stroke="#858585" stroke-miterlimit="10" d="M147.1,112.1c-0.3-1.1-0.7-2.2-1.5-3.1c-0.6-2.8-2.1-5.1-4.5-6.8
			c-0.3-0.2-0.5-0.4-0.3-0.8c1-2.3,2.7-4,5-5.2c0.3-0.2,0.4-0.1,0.5,0.2c0.8,3.6,2,7.1,2.7,10.7c0.3,2,0.4,4-0.2,6.1
			C148.3,112.5,148,111.9,147.1,112.1z"/>
		<path fill="#555555" stroke="#555555" stroke-miterlimit="10" d="M156.6,62.4c0.6,0.7,0.6,1-0.4,1.6c-0.4,0.2-0.5,0.3-0.1,0.8
			c1,1,2,2.1,2.6,3.4c-0.3,0-0.7,0.1-0.6,0.4c0.3,0.6,0.2,1.2,0.4,1.7c0.3,0.9,0.4,1.8,0.4,2.7c0.1,2.7-0.7,5.3-1.3,7.9
			c-0.5,1.4-0.2,2.7,0.7,3.8c0.4,0.5,0.9,1,1.4,1.6c0.4,0.4,0.3,0.7-0.3,0.8c-0.6,0.2-1.3,0.1-2.1,0.2c0.8,0.8,1.7,1.3,2.7,1.7
			c0.2,0.1,0.4,0.2,0.4,0.5c-0.1,0.3-0.3,0.3-0.5,0.4c-1.6,0.2-3.2,0.2-4.7,0.1c0-0.1,0-0.2,0-0.4c1.6-0.1,3.1,0.2,4.7-0.3
			c-1.5-0.6-2.7-1.6-3.7-2.8l0,0c0.4-0.1,0.7,0.1,1.1,0.2c0.6,0.2,1.1,0.1,1.7,0.1c0.2,0,0.4,0,0.5-0.2c0.1-0.2-0.1-0.3-0.2-0.4
			c-0.2-0.3-0.5-0.5-0.7-0.8c-1.2-1.3-1.9-2.8-1.2-4.5c0-0.1,0.1-0.2,0.1-0.3c0.3-1.8,0.8-3.6,1.1-5.4c0.3-2,0.1-4-0.9-5.9
			c-0.1-0.2-0.2-0.5-0.5-0.5c0-0.6-0.4-0.9-0.7-1.3c-0.2,0.2-0.2,0.4-0.1,0.6c0.8,2.3,1.2,4.7,1,7.2c-0.2,2.7-1,5.1-2.4,7.4
			c-0.5,0.8-1.2,1.6-1.5,2.6c-0.2,0.3-0.5,0.6-0.6,1c-0.2,0-0.4,0-0.5,0c0-0.1,0-0.2,0-0.3c0.6-0.7,0.9-1.5,1.5-2.4
			c-0.9,0.1-0.9-0.3-0.8-0.8c0.1-0.4,0.3-0.9,0.3-1.4c0.3-1.2,0.3-2.5,0.3-3.7c0-0.6-0.1-1-0.8-0.9c-0.3-1.5-0.2-3-0.6-4.6
			c-0.3,0.6-0.7,1.1-1.1,1.5c-0.4,0.2-0.6,0-0.7-0.4c-0.1-0.6-0.2-1.2-0.6-1.8c-0.4-0.7-0.6-1.6-1.2-2.2c-0.2,0.2-0.1,0.3-0.1,0.5
			c0,0.2,0,0.5-0.3,0.6c-0.3,0.1-0.4-0.1-0.6-0.3c-0.2-0.2-0.3-0.4-0.5-0.6c-1.1-1.3-2.2-2.6-3.2-3.9c-0.1,0.8-0.1,1.6-0.1,2.3
			c0,0.3,0.2,0.8-0.2,1c-0.5,0.2-0.6-0.4-0.9-0.5c-0.7-0.8-1.5-1.7-2.3-2.6c-0.1,0.2-0.2,0.3-0.2,0.4c-0.5,1.2-0.3,2.4-0.1,3.5
			c0,0.2,0.1,0.5-0.2,0.6c-0.3,0.2-0.4-0.1-0.6-0.2c-0.6-0.6-1.2-1.3-1.9-1.9c0-0.1,0-0.1-0.1-0.2c0,0-0.1,0.1-0.1,0.1
			c0,0,0.1,0.1,0.1,0.1c-0.1,0.3,0,0.5,0.1,0.8c0.3,0.9,0.7,1.9,1,2.8c0.1,0.2,0.3,0.4,0,0.6c-0.3,0.2-0.5,0.1-0.7-0.1
			c-2.1-1.3-4.2-2.7-5.1-5.1c0-0.1-0.1-0.1-0.2-0.2c-1,1.1-1,1.1-2.1-0.4c0,0.6,0.1,1.1,0.2,1.7c0.1,0.2,0.2,0.5-0.1,0.7
			c-0.3,0.2-0.5,0-0.7-0.1c-1-0.6-1.9-1.3-2.4-2.6c-0.2,0.6-0.4,1-0.5,1.4c-0.1,0.3-0.2,0.5-0.6,0.5c-0.1-0.1-0.3-0.3-0.4-0.4
			c-0.1-0.1-0.1-0.2-0.2-0.3c-0.1-0.2-0.3-0.5-0.4-0.7c-0.1-0.5-0.3-1-0.5-1.6c-0.5,0.6-0.8,1.1-1.1,1.8c-0.2,0.4-0.4,0.8-0.4,1.2
			c-0.1,0.3-0.2,0.5-0.2,0.8c-0.2,0.3-0.2,0.6-0.2,1c-0.1,0.3-0.2,0.6-0.4,0.8c0,0-0.1,0-0.1,0c-0.6-0.2-0.8-0.7-0.7-1.1
			c0.2-0.7-0.1-1.3-0.2-1.9c0-0.1,0-0.3-0.2-0.3c-0.2,0-0.2,0.2-0.3,0.3c-0.5,0.6-0.8,1.2-1.1,1.9c-0.1,0.3-0.2,0.6-0.6,0.5
			c-0.3-0.1-0.3-0.4-0.3-0.6c0-0.8,0.2-1.6,0.3-2.4c0.3-1.7,0.6-3.5,2.2-4.7c0.3-0.3,0.7-0.5,1.2-0.9c-1.5-0.3-2.2-1.3-3.1-2.3
			c-0.2-0.2-0.4-0.4-0.2-0.7c0.2-0.3,0.5-0.2,0.8-0.1c1.8,0.3,3.6,0.3,5.4,0c2.2-0.3,4.3-0.9,6.4-1.5c2.2-0.6,4.5-0.9,6.8-0.7
			c2.4,0.3,4.8,1,6.9,2.2c0.7,0.4,1.1,0.3,1.4-0.4c0.5-0.8,1.2-1,2.2-0.9c0.3,0.1,0.4,0.2,0.3,0.5c-0.3,0.7-0.3,1.3-0.1,2
			c0.2,0.6,0.4,0.8,1,0.5c0.3-0.1,0.7-0.5,1,0c-0.4,0.1-0.8,0.1-1.1,0.3c-0.3,0-0.5,0.1-0.7,0.2c-0.4-0.1-0.2-0.5-0.4-0.7
			c0-0.2,0.1-0.5-0.2-0.5c-0.3,0-0.3,0.3-0.3,0.5c-0.1,0.4,0,0.9-0.1,1.3c-0.3-0.1-0.4-0.4-0.6-0.7c0-0.3,0.2-0.6,0.2-0.9
			c0.2-0.7,0.8-1.3,0.9-2.1c-0.3-0.5-0.7-0.3-1-0.2c-0.7,0.4-1.3,0.9-1.4,1.8c-0.5-0.3-1.1-0.5-1.6-0.8c-2.2-1-4.6-1.8-7.1-2
			c-0.6,0-1.3,0-1.9,0c-1.2,0.1-2.5,0.2-3.6,0.7c-2.8,1.4-5,3.4-6.5,6.1c-0.5,0.9-1.2,1.8-0.5,2.8c0,0.5,0.3,0.9,0.5,1.2
			c0.2,0.3,0.4,0.3,0.5-0.1c0.2-0.5,0.4-1,0.5-1.6c0.1-0.2,0.1-0.5,0.5-0.3c0,0.3,0,0.6,0.3,0.8c0.1,0.5,0.3,1,0.8,1
			c0.4,0,0.4-0.5,0.6-0.8c0.8-1.7,1.9-3.2,3.5-4.4c2.4-1.7,5-2.4,7.9-2c3.6,0.4,6.4,2.1,8.7,4.8c1.5,1.8,2.4,3.9,3.1,6
			c0.4,1.4,0.5,2.8,0.5,4.3c0,0.4-0.1,0.9,0.4,1.2c0.2,0,0.4,0,0.6,0c0,1.6,0,3.1-0.1,4.7c-0.1,0.5-0.2,1-0.3,1.5
			c0,0.2-0.2,0.4,0,0.5c0.2,0.1,0.4-0.1,0.5-0.3c1.5-2.1,2.4-4.5,2.6-7.1c0.3-3.4-0.2-6.7-1.8-9.8c-0.4-0.9-1-1.6-1.9-2
			c-0.1-0.1-0.1-0.2-0.2-0.3c0.3-0.3,0.7-0.1,1-0.1c0.3,0,0.6,0,0.9-0.2c0.3-0.1,0.9-0.2,0.9-0.6c0-0.3-0.5-0.4-0.9-0.5
			c-0.9,0.1-1.4,0.7-2,1.2c-0.3-0.1-0.5-0.1-0.7-0.3c0.3-0.4,0.9-0.3,1.3-0.7c0.3-0.4,0.1-0.4-0.2-0.4c-0.2,0-0.5,0-0.7,0
			c0.2-0.4,0.8-0.5,1-1c0.3-0.1,0.5-0.3,0.5-0.6c0-0.2-0.3-0.2-0.5-0.2c-0.2-0.1-0.3-0.2-0.5-0.2c0.4-0.4,0.8,0,1.1,0.1
			c0.5,0.1,0.5,0.5,0.3,0.8c-0.6,0.7-0.1,0.7,0.4,0.8c0.3,0.1,0.7,0.1,0.9,0.3C155.8,62.4,156,62.6,156.6,62.4z M139.3,69.8
			C139.3,69.8,139.3,69.9,139.3,69.8C139.3,69.9,139.4,69.9,139.3,69.8C139.4,69.9,139.3,69.8,139.3,69.8c-0.2-1.4-0.1-2.9,0.3-4.3
			c0.2-0.4,0.3-0.5,0.7-0.1c0.2,0.3,0.5,0.5,0.7,0.8c0.6,0.7,1.2,1.5,2,2.2c0-0.7,0-1.3,0-1.8c0-0.6,0-1.2,0-1.8
			c0.1-0.4,0.2-0.2,0.4,0c0.7,0.9,1.5,1.8,2.2,2.7c0.7,0.8,1.4,1.6,2,2.4c0-0.7,0.3-1.3,0.3-1.9c1.3,1.5,2.1,3.3,2.6,5.2
			c0.3-0.2,0.5-0.4,0.5-0.7c0.4-0.3,0.5-0.8,0.4-1.2c-0.8-3.6-2.7-6.6-5.9-8.7c-2.4-1.5-5.1-2.1-7.9-1.8c-2.7,0.3-4.9,1.6-6.6,3.6
			c-0.5,0.6-0.9,1.2-0.4,2c0,0.4,0.2,0.8,0.5,0.9c0.4,0.1,0.5-0.4,0.6-0.7c0.2-0.3,0.3-0.5,0.7-0.1c0,0.3,0.2,0.6,0.5,0.8
			c0.1,0.4,0.2,0.7,0.6,1c0.8,1.8,2.6,2.5,4.3,3.7c-0.3-1.2-0.8-2.1-1.1-3c-0.2-1-0.4-2-0.5-3.1c0.1-0.4,0.2-0.1,0.3,0
			C137.1,67.7,138,68.8,139.3,69.8z M124,65.3c0.2-0.1,0.4-0.3,0.5-0.5c0.4-0.9,0.7-1.8,1.3-2.6c0.9-1.3,1.8-2.6,3.2-3.5
			c0.2-0.1,0.4-0.2,0.3-0.6c-0.4,0.1-0.7,0.2-1.1,0.3c-0.6,0.1-1.2,0.3-1.9,0.4c-2.1,0.3-4.3,0.4-6.4,0.2c0.6,0.6,0.9,1.2,1.5,1.7
			c0.6,0.4,1.4,0.5,2.2,1c-3.9,1.4-3.8,4.7-4.3,7.6c0.5-0.7,0.8-1.4,1.4-2c0.7-0.7,0.7-0.7,1,0.2c0,0,0,0,0,0.1
			c0,0.8,0.2,1.5,0.4,2.3c0.1-0.3,0.2-0.5,0.2-0.8C122.7,67.6,123.4,66.5,124,65.3z"/>
		<path fill="#C1C0C0" stroke="#C1C0C0" stroke-width="0.5" stroke-miterlimit="10" d="M150.8,86.3c-0.1-1.3-0.3-2.5-0.8-3.7
			c-0.1-0.2-0.2-0.3-0.3-0.4c-0.4-0.5-0.6-1-0.4-1.6c0.1-0.2,0.1-0.5,0.1-0.7c0-2.5,0-5.1,0-7.6c0-0.3-0.2-0.4,0.2-0.5
			c0.3,0.6,0.4,1.2,0.6,1.8c0.1,0.4,0.4,0.6,0.8,0.4c0,1.5,0.1,2.7-0.1,4.1c-0.1,0.9,0,1.7,0,2.6c0,0.2,0.1,0.3,0.2,0.5
			c0.9,1.1,1.4,2.4,1,3.8c-0.1,0.3-0.2,0.6,0.1,0.9c0,0.1,0,0.2,0,0.3C151.7,86.1,151.2,86.3,150.8,86.3z"/>
		<path fill="#6D6D6D" d="M141.9,119.3c-0.5,0-0.9,0-1.4,0c-1.2-0.5-2.5-0.8-3.4-1.8c0.3-1.2,0.3-1.2-0.3-1.6
			c-0.4,1.5-0.6,2.9-1.2,4.3c-0.4,0.9-0.5,1.1-1.6,1c-3.8-0.1-6.7-1.7-8.8-4.7c-0.3-0.4-0.3-0.7,0-1.1c1.1-1.3,2.4-2.4,3.7-3.4
			c1.9-1.4,3.9-2.7,6-3.8c0.9-0.4,1.8,0.1,2,1c0.2,1,0,2.1,0.1,3.2c0.5,0,0.6-0.3,0.6-0.7c-0.1-0.9,0.1-1.8-0.1-2.8
			c0-0.1,0-0.1,0-0.2c0-0.1,1.5-0.7,1.7-0.7c0.8,0.4,1.6,0.7,2.2,1.3c-0.1,0.2-0.4,0.3-0.6,0.4c-0.5,0.1-1,0.3-1.4,0.5
			c-0.1,0-0.3,0.1-0.2,0.3c0,0.1,0.2,0.2,0.3,0.2c0.8,0.2,1.6,0.5,2.4,0.5c0.5,0,1.1,0.3,1.4-0.3c0-0.4,0.1-0.9-0.3-1.2
			c0-0.2,0-0.4-0.1-0.6c-0.5-0.9-1-1.7-1.5-2.6c-0.2-0.4-0.6-0.8-0.5-1.4c0.3,0,0.6-0.1,0.9-0.1c0.3,1.2,1.2,2.2,1.7,3.3
			c0.2,0.5,0.6,0.6,1.1,0.4c0.3,0.1,0.6,0.1,0.9,0.2c0.9,0.9,1.2,2,1.5,3.1c0,0.1,0,0.3,0,0.4c0.1,1.8,0.1,3.6-1.3,5
			c0,0,0,0.1,0,0.1l0,0c-0.1,0-0.1,0-0.1,0.1c-0.2,0.2-0.5,0.4-0.7,0.6C144,118.9,143,119.3,141.9,119.3z M142.8,118.5
			c0.4,0,0.7-0.1,1.1-0.3c2.2-1.2,3-3.5,2.5-5.8c-0.1-0.8-0.3-1.5-0.7-2.2c-0.2-0.4-0.4-0.8-0.9-0.7c-0.5,0.1-0.5,0.6-0.5,1
			c0,0,0,0.1,0,0.1c0,0.9-0.2,1.1-1.2,1.2c-1.1,0.1-2.2-0.2-3.2-0.5c-0.4-0.1-0.8-0.3-1.1,0.1c-0.3,0.4-0.3,0.8,0,1.2
			c0,0,0,0.1,0,0.1c-1,0.1-1.2,0.3-1,1.1c0,0.1,0.1,0.2,0.1,0.3c-0.1,0.1-0.2,0.2-0.3,0.2c-0.5,0.5-0.4,0.9,0.1,1.3
			c0.4,0.3,0.8,0.5,1.2,0.8c-0.5,0.1-0.9,0-1,0.4c-0.1,0.4,0.3,0.6,0.6,0.9c0.7,0.5,1.5,0.7,2.4,0.8
			C141.5,118.7,142.2,118.7,142.8,118.5z"/>
		<path fill="#858585" d="M151.5,60.1c-0.3-0.5-0.7-0.1-1,0c-0.6,0.2-0.8,0.1-1-0.5c-0.2-0.7-0.2-1.3,0.1-2c0.1-0.3,0-0.4-0.3-0.5
			c-0.9-0.2-1.7,0-2.2,0.9c-0.4,0.6-0.7,0.7-1.4,0.4c-2.2-1.1-4.5-1.9-6.9-2.2c-2.3-0.2-4.6,0.1-6.8,0.7c-2.1,0.6-4.2,1.2-6.4,1.5
			c-1.8,0.2-3.6,0.3-5.4,0c-0.3,0-0.6-0.2-0.8,0.1c-0.2,0.3,0,0.5,0.2,0.7c0.8,0.9,1.6,2,3.1,2.3c-0.5,0.3-0.8,0.6-1.2,0.9
			c-1.6,1.2-1.9,3-2.2,4.7c-0.1,0.8-0.3,1.6-0.3,2.4c0,0.3,0,0.5,0.3,0.6c0.4,0.1,0.5-0.2,0.6-0.5c0.3-0.7,0.7-1.3,1.1-1.9
			c0.1-0.1,0.1-0.3,0.3-0.3c0.2,0,0.2,0.2,0.2,0.3c0.1,0.6,0.4,1.2,0.2,1.9c-0.1,0.5,0.1,0.9,0.7,1.2c-0.4,0.7,0,1.4-0.2,2.1
			c-0.4,0-0.7,0.1-1.1,0.1c-0.1-0.8-0.2-1.6-0.3-2.5c-0.3,0.2-0.6,0.4-0.9,0.5c-1,0.3-2-0.3-2-1.3c0.1-2.3,0.4-4.5,1.4-6.6
			c0.1-0.2,0.2-0.4,0.3-0.5c0.2-0.4,0.8-0.6,0.7-1c-0.1-0.3-0.6-0.6-0.8-0.9c-0.4-0.4-0.7-0.8-1.1-1.2c-0.4-0.5-0.4-1.1-0.1-1.6
			c0.3-0.5,0.8-0.8,1.4-0.7c3.9,0.7,7.7-0.2,11.3-1.3c5-1.6,9.8-1.1,14.4,1.1c0.5,0.2,0.7,0.2,1.1-0.2c0.9-0.9,2.4-1.1,3.5-0.7
			c0.6,0.3,0.9,0.8,0.6,1.5c-0.4,1.2-0.4,1.2,0.9,1.1c1.1-0.1,2.1,0.2,3.1,0.6c0.5,0.2,0.8,0.7,0.6,1.2c-0.1,0.4,0.1,0.5,0.4,0.7
			c0.5,0.2,0.9,0.5,1.2,0.9c-0.6,0.2-1.1,0.2-1.7-0.2c-0.2-0.2-0.6-0.2-0.9-0.3c-0.5-0.1-1-0.1-0.4-0.8c0.3-0.3,0.2-0.7-0.3-0.8
			c-0.4-0.1-0.7-0.5-1.1-0.1c-0.1,0-0.2,0-0.3,0.1C152,60.1,151.7,60.1,151.5,60.1z"/>
		<path fill="#7D7D7D" d="M152,108.1c-0.3-1.2-0.6-2.4-1.1-3.5c-0.3,0.3-0.2,0.6-0.2,0.9c0.5,2.1,0.7,4.1,0.6,6.2
			c-0.2,4.3-2.6,7.3-6.9,8.4c-0.3,0.1-0.5,0.2-0.7,0.4c-1.3,1.3-3,2.2-4.7,2.9c-2.4,1-4.9,1.2-7.5,0.6c-3.7-0.8-6.4-2.9-8.3-6
			c-0.7-1.4-1.3-3-1.4-4.5c0-0.4-0.2-0.5-0.6-0.6c-2.2-0.6-4-1.7-5.5-3.4c-0.4-0.4-0.5-0.3-0.8,0c-2.1,2.5-4.8,3.6-8.1,3.8
			c-2.4,0.1-4.6-0.5-6.7-1.4c-5.4-2.4-10.9-4.8-16.4-7c-2.5-1-4.8-2.2-7.6-2.5c-3.5-0.3-6.9,0.1-9.9,2.1c-2.4,1.6-4.5,3.6-6.5,5.6
			c-5.3,5.3-13.5,3.7-17.2-0.6c-0.8-0.9-1.6-1.8-2.4-2.8c-0.5,0.6-0.9,1.2-1.4,1.8c-2.9,3.8-8.6,5.7-13.3,4.6
			c-2.5-0.6-4.6-1.9-6.3-3.7c0,0-0.1,0.1-0.1,0.1c0.1,0.2,0.2,0.3,0.3,0.5c2.8,3.6,7.2,5.1,11.7,4.1c2.7-0.6,5-1.7,6.8-3.8
			c0.8-1,1.6-2,2.3-3.2c1.2,1.8,2.5,3.2,4,4.6c2.1,1.8,4.6,2.7,7.3,2.8c3.1,0.1,5.7-1.1,7.8-3.2c1.8-1.7,3.6-3.5,5.6-4.9
			c4.4-3.1,9.2-3.7,14.2-2.1c3.7,1.1,7.1,2.7,10.7,4.2c3.8,1.6,7.5,3.3,11.3,4.9c2.3,1,4.7,1.4,7.1,1c2.8-0.5,5.2-1.7,6.8-4
			c0.2-0.3,0.4-0.3,0.6,0c1.2,1.6,2.8,2.7,4.8,3.4c0.5,0.2,0.6,0.4,0.8,0.9c0.3,1.4,0.7,2.8,1.4,4c0,0,0,0,0,0c0,0,0,0.1,0,0.1
			c2.6,4.2,6.4,6.3,11.5,6.5c2.5,0.1,4.8-0.7,6.8-2c1-0.6,2.1-0.9,3.2-1c5-0.5,8.4-4.1,8.4-8.9C152.6,111.4,152.4,109.7,152,108.1z"
			/>
		<path fill="#858585" d="M155,90c1.6,0.1,3.2,0.1,4.7-0.1c0.2,0,0.5-0.1,0.5-0.4c0.1-0.3-0.2-0.4-0.4-0.5c-0.9-0.4-1.8-0.9-2.7-1.7
			c0.8-0.1,1.4,0,2.1-0.2c0.6-0.2,0.7-0.4,0.3-0.8c-0.5-0.5-1-1-1.4-1.6c-0.9-1.1-1.2-2.4-0.7-3.8c0.4-0.1,0.8-0.5,1.3-0.4
			c0,0.1,0,0.2,0,0.3c0,0.1,0,0.1-0.1,0.2c-0.1,0.4-0.1,0.7-0.2,1.1c0,0.1,0,0.1-0.1,0.2c0,0.7,0.4,1.4,0.8,1.9
			c0.4,0.5,0.9,1,1.4,1.6c0.5,0.6,0.6,1.3,0.1,1.9c-0.2,0.2-0.3,0.3,0.1,0.5c0.8,0.5,0.9,1,0.7,1.9c-1.6,0.1-3,0.8-4.5,1
			c-0.3,0.1-0.4,0.3-0.5,0.5C155.7,91.3,155.3,90.7,155,90C155,90,155,90,155,90z"/>
		<path fill="#858585" d="M158.9,80.5c-0.5-0.1-0.8,0.3-1.3,0.4c0.6-2.6,1.4-5.2,1.3-7.9c0-0.9-0.2-1.8-0.4-2.7
			c-0.2-0.6-0.1-1.2-0.4-1.7c-0.2-0.3,0.3-0.4,0.6-0.4c0.8,1.3,1.1,2.6,1.3,4.1C160.3,75.1,159.5,77.8,158.9,80.5z"/>
		<path fill="#505050" d="M158.4,82.2c0-0.1,0-0.1,0.1-0.2C158.5,82.1,158.5,82.1,158.4,82.2z"/>
		<path fill="#D8D8D8" d="M149.7,94.6C149.8,94.6,149.8,94.5,149.7,94.6C149.8,94.5,149.8,94.5,149.7,94.6
			C149.8,94.6,149.8,94.6,149.7,94.6L149.7,94.6z"/>
		<path fill="#505050" d="M158.7,80.9c0-0.1,0-0.1,0.1-0.2C158.8,80.8,158.8,80.9,158.7,80.9z"/>
		<path fill="#D8D8D8" d="M149.7,94.6c0,0-0.1,0.1-0.1,0.1l0,0C149.6,94.7,149.7,94.6,149.7,94.6L149.7,94.6z"/>
		<path fill="#D8D8D8" d="M149.6,94.7c0,0-0.1,0.1-0.1,0.1l0,0C149.5,94.8,149.5,94.8,149.6,94.7L149.6,94.7z"/>
		<path fill="#D8D8D8" d="M149.3,95C149.3,95,149.3,95,149.3,95C149.3,95,149.2,95,149.3,95C149.3,95,149.3,95,149.3,95L149.3,95z"
			/>
		<path fill="#FDFDFD" d="M29.2,87.6c2-4.1,4.1-8.2,6.1-12.3c0.9-1.7,2.3-2.7,4.3-2.7c2.1,0,3.5,1,4.4,2.8c2.4,4.9,4.8,9.8,7.2,14.7
			c0.1,0.1,0.1,0.2,0.2,0.4c1.3,2.7,2.6,5.3,3.9,8c1.2,3-0.8,5.5-2.9,6.1c-2,0.6-5-0.5-5.7-2.6c-0.1-0.3-0.3-0.6-0.5-0.9
			c-0.3-0.7-0.6-1.3-1-2c-0.3-0.5-0.7-0.7-1.3-0.7c-3,0-5.9,0-8.9,0c-0.7,0-1.1,0.3-1.4,0.9c-0.5,1-1,2-1.4,2.9
			c-1,2.1-3.3,3.1-5.5,2.4c-2.3-0.6-3.7-2.7-3.4-5c0.1-0.5,0.3-1,0.5-1.5c0.5-1,1-2,1.5-3 M39.6,91.7c0.5,0,1,0,1.5,0
			c1.1,0,1.7-0.8,1.2-1.8c-0.5-1.1-1.1-2.1-1.6-3.2c-0.2-0.4-0.5-0.7-1-0.7c-0.5,0-0.9,0.3-1.1,0.7c-0.5,1.1-1.1,2.2-1.6,3.3
			c-0.4,0.8,0.1,1.6,1.1,1.6C38.5,91.7,39.1,91.7,39.6,91.7z M51.1,91.5c-0.1,0.4,0.1,0.6,0.1,0.8c0.8,2.1,1.6,4.3,2.4,6.4
			c0.7,2-0.5,4.1-2.7,4.6c-0.6,0.1-1.3,0-2-0.1c0.8,0.8,3,0.8,3.9,0.4c2.4-1.1,2.7-3.7,1.7-5.8c-0.8-1.6-1.7-3.2-2.5-4.7
			C51.7,92.6,51.4,92.1,51.1,91.5z M26.8,103.8c2.1,0.6,3.6-0.1,4.8-1.6c0.8-1,1.2-2.1,1.7-3.2c0.3-0.8,0.9-1.2,1.8-1.1
			c0.5,0,1.1,0,1.8,0c-1-0.4-1.8-0.4-2.6-0.5c-0.9-0.1-1.6,0.6-1.9,1.8C31.5,101.9,29.7,103.5,26.8,103.8z M36.2,90.6
			c0.7-1.4,1.4-2.8,2-4.2c0.6-1.3,1.2-1.5,2.3-0.9c0-0.6,0-1.2-0.7-1.5c-0.6-0.3-1.2,0-1.6,0.5c-0.5,0.6-0.8,1.3-1.1,1.9
			C36.7,87.8,36.3,89.2,36.2,90.6z M50.9,91.3C50.9,91.3,50.9,91.3,50.9,91.3C50.9,91.3,50.9,91.2,50.9,91.3
			C50.9,91.2,50.9,91.2,50.9,91.3C50.9,91.3,50.9,91.3,50.9,91.3z"/>
		<path fill="#FDFDFD" d="M82,75.9c0.3,1.1-0.1,2.1-0.6,3c-2.6,4.8-5.2,9.7-7.8,14.5c-0.1,0.1-0.1,0.2-0.1,0.3l0,0
			c0,0-0.1,0.1-0.1,0.1c-1.2,1.7-2.6,2.1-4.7,1.1c-1.4-1.4-1.6-2.5-0.7-4.3c0.4-0.9,0.9-1.7,1.3-2.6c0.3-0.7,0.7-1.3,1-2
			c0.3-0.5,0.1-1-0.4-1.4c-1.6-1.6-3.3-3.1-4.9-4.7c-1.4-1.3-1.4-3.2-0.1-4.4c1.3-1.2,3.2-1.1,4.6,0.2c1.1,1,2.1,2.1,3.2,3.1
			c0.7,0.7,1.2,0.6,1.7-0.3c0.6-1,1.2-2.1,1.8-3.1c0.6-1.1,1.6-1.7,2.9-1.7c1.3,0,2.3,0.7,2.8,1.9C81.9,75.8,81.9,75.9,82,75.9z
			 M68.2,93.6c0.7,1.2,2,1.6,3.2,1c0.9-0.5,1.5-1.2,2-2c1.3-2.4,2.5-4.8,3.8-7.2c0.1-0.1,0.2-0.2,0.1-0.4c-0.3,0.4-0.5,0.7-0.7,1.1
			c-1.6,2.3-3.1,4.7-4.8,6.9c-0.5,0.7-1.3,1.2-2.3,1.1C69,94,68.7,93.6,68.2,93.6"/>
		<path fill="#FDFDFD" d="M63.6,96.3c-0.9,2.6-3.5,3.2-5.5,1.3c-0.2-0.4-0.4-0.7-0.6-1.1c-1.2-2.3-2.4-4.6-3.6-6.8
			c-1-1.9-2-3.8-2.9-5.7c-1-2-0.5-3.5,1.6-4.6c1.9-1,3.9-1.8,6-2.4c1.7-0.5,3.4,0.3,4,1.8c0.6,1.6-0.2,3.2-1.9,3.8
			c-0.6,0.2-1.3,0.4-1.9,0.7c-0.6,0.2-0.9,0.7-0.5,1.3c1,1.9,2,3.7,3,5.6c0.7,1.3,1.4,2.6,2,3.9C63.6,94.8,63.8,95.5,63.6,96.3z
			 M58.8,87.1c0.1,0.2,0.1,0.4,0.2,0.6c0.8,2.3,1.7,4.6,2.5,6.9c0.4,1.2,0,1.9-1.1,2.4c-0.5,0.2-1,0.3-1.6,0.2
			c1.4,1.3,2.7,1.2,3.7-0.2c0.7-1,0.7-2,0.2-3c-0.7-1.4-1.4-2.8-2.3-4.2C60,89,59.6,87.9,58.8,87.1z"/>
		<path fill="#FDFDFD" d="M101.8,96.9c-0.6,1.1-1.1,2.2-1.7,3.2c-0.9,1.7-2.5,2.2-4.3,1.5c-1.5-0.6-3-1.2-4.6-1.8
			c-2.4-1-4.8-2-7.2-3c-1.3-0.6-2.7-1.1-4-1.6c-1.2-0.4-1.9-1.1-2.3-2.2c-0.1-0.9,0.1-1.8,0.5-2.6c2.3-4.4,4.6-8.7,6.8-13.1
			c0.8-1.6,2.8-2,4.2-1.4c1.6,0.7,2.3,2.5,1.5,4c-1.6,3.1-3.2,6.2-4.8,9.3c-0.1,0.2-0.2,0.4-0.3,0.7c-0.3,0.7,0,1.4,0.6,1.8
			c0.7,0.3,1.4,0.1,1.8-0.6c0.4-0.7,0.8-1.4,1.2-2.1c1.4-2.7,2.9-5.5,4.3-8.2c0.9-1.7,2.6-2.3,4.3-1.5c1.6,0.8,2.1,2.5,1.3,4.1
			c0,0.1-0.1,0.2-0.1,0.3c-1.7,3.2-3.4,6.3-5.1,9.5c-0.1,0.3-0.2,0.6-0.1,0.9c0.2,0.6,0.6,0.9,1.3,1c0.7,0,1.1-0.4,1.4-0.9
			c1.3-2.6,2.6-5.2,4-7.7c0.6-1.1,1-2.3,2-3.3c2.2-1.2,3.9-0.7,5.1,1.5c0.2,1-0.1,1.9-0.6,2.8C105.2,90.5,103.5,93.7,101.8,96.9z
			 M86,96.9c-0.1,0-0.1-0.1-0.2-0.1c0,0,0,0,0,0.1C85.9,96.9,86,96.9,86,96.9c0.1,0.1,0.2,0.1,0.3,0.1c0.1,0.1,0.1,0.1,0.2,0.2
			c3.2,1.3,6.3,2.6,9.5,3.9c0.6,0.2,1.2,0.1,1.8-0.1c0.8-0.3,1.4-1,1.9-1.6c1.8-2.5,3-5.3,4.3-8c0.3-0.6,0.7-1.2,0.7-1.9
			c0.1-0.1,0.1-0.2,0.1-0.3c0,0,0.1-0.1,0.1-0.1c0,0,0,0-0.1,0c0,0.1,0,0.1-0.1,0.2c-0.1,0.1-0.1,0.2-0.1,0.3
			c-0.2,0.1-0.3,0.3-0.4,0.4c-1.7,2.7-3.4,5.5-5.1,8.2c-0.8,1.2-2.6,1.9-4,1.6c-2.6-0.5-5.1-1.4-7.6-2.2c-0.4-0.1-0.8-0.4-1.3-0.3
			C86.3,96.9,86.1,96.9,86,96.9z M85.5,96.7C85.5,96.7,85.4,96.7,85.5,96.7C85.4,96.7,85.4,96.7,85.5,96.7
			C85.4,96.7,85.5,96.7,85.5,96.7C85.5,96.7,85.5,96.7,85.5,96.7z"/>
		<path fill="#555555" d="M73.3,93.9c0,0,0.1-0.1,0.1-0.1C73.4,93.8,73.4,93.8,73.3,93.9z"/>
		<path fill="#D8D8D8" stroke="#D8D8D8" stroke-miterlimit="10" d="M105.1,96.4c0,0,0-0.1,0-0.1c0.1-0.2,0.2-0.4,0.3-0.5
			c0.6-1.2,1.1-2.4,1.7-3.6c1.5-2.7,2.7-5.5,4.1-8.3c0.3-0.6,0.6-1.1,0.9-1.7c0.7-1.3,1.8-2.1,3.4-2.1c1.6,0,2.6,0.8,3.3,2.1
			c0.5,1,0.9,2,1.5,2.9c-0.1,1.4,0.5,2.6,1.2,3.7c0.5,0.8,1.2,1.4,1.6,2.2c0.1,0.1,0,0.2,0.2,0.2l0,0c0,0.1,0,0.1,0,0.2
			c1.3,2.7,2.6,5.3,4,8c0.2,0.5,0.5,1,0.6,1.6c0.1,0.7,0.1,1.2-0.7,1.5c0-0.8,0.2-1.6-0.1-2.3c-0.7-1.9-1.8-3.7-2.9-5.5
			c0-0.1,0-0.1-0.1-0.2c0,0,0,0-0.1,0c0,0,0.1,0.1,0.1,0.1c0,0.3,0.1,0.6,0.2,0.9c0.6,1.5,1.1,3,1.7,4.4c0.8,2.1-0.5,3.9-2.9,3.9
			c-0.2,0-0.4,0-0.7,0c1,0.6,1.9,0.6,2.8,0.4c-0.1,0.5-0.6,0.5-1,0.5c-1.4-0.1-2.5-0.7-3.1-2c-0.4-0.7-0.7-1.4-1.1-2.2
			c-0.3-0.5-0.6-0.8-1.3-0.8c-2.1,0-4.3,0-6.4,0c-0.6,0-1,0.2-1.3,0.8c-0.3,0.6-0.6,1.1-0.9,1.7c-0.9,2.3-3.8,3.3-6.1,1.4
			c-1.3-1.5-1.1-3.1-0.3-4.7c0.4-0.8,0.9-1.6,1.2-2.5C105,96.5,105.1,96.4,105.1,96.4z M115.4,94.7c0.4,0,0.8,0,1.2,0
			c0.8,0,1.2-0.6,0.9-1.3c-0.4-0.8-0.8-1.7-1.2-2.5c-0.2-0.3-0.4-0.6-0.8-0.6c-0.4,0-0.6,0.2-0.8,0.5c-0.4,0.9-0.9,1.7-1.3,2.6
			c-0.3,0.6,0.1,1.2,0.8,1.2C114.6,94.7,115,94.7,115.4,94.7z M113.4,99.1c-0.7-0.3-1.3-0.3-1.9-0.4c-0.5-0.1-1,0.1-1.3,0.6
			c-0.2,0.4-0.3,0.8-0.5,1.1c-0.6,1.7-1.6,2.9-3.5,3.2c-0.1,0-0.3,0-0.4,0.2c1.7,0.3,2.8-0.3,3.7-1.7c0.4-0.6,0.7-1.2,1-1.9
			c0.4-1,0.6-1.2,1.7-1.2C112.6,99.1,112.9,99.1,113.4,99.1z M116.1,90.1c0.1-0.5-0.1-1-0.6-1.1c-0.5-0.1-0.9,0-1.2,0.4
			c-1,1.4-1.4,2.9-1.7,4.6c0.3,0,0.3-0.3,0.4-0.4c0.5-1,0.9-1.9,1.4-2.9C114.8,89.8,115.3,89.7,116.1,90.1z M112.6,94.3
			C112.6,94.3,112.6,94.3,112.6,94.3C112.6,94.3,112.6,94.3,112.6,94.3C112.6,94.3,112.6,94.3,112.6,94.3
			C112.6,94.3,112.6,94.3,112.6,94.3z"/>
		<path fill="#6A6A6A" d="M130.3,104.5c1.5,0.3,2.9,0.8,4.4,1.4c0.7,0.3,0.6,0.9,0.7,1.4c0.1,0.4-0.4,0.4-0.7,0.5
			c-2.8,1.5-5.4,3.2-7.8,5.3c-0.7,0.6-1.3,1.2-1.9,1.9c-0.3,0.3-0.4,0.2-0.5-0.1c-0.5-1.1-0.8-2.2-0.8-3.4c0.4,0,0.5-0.3,0.7-0.5
			c1.7-1.8,3.3-3.6,5-5.3C129.7,105.4,130.2,105.1,130.3,104.5z"/>
		<path fill="#8B8A8B" d="M137.3,96.4c-1.3-0.2-2.6-0.7-3.9-0.5c-3,0.4-5.4-0.7-7.5-2.5c-0.8-0.7-1.7-1.4-2.5-2.2l0,0
			c-0.1-0.1-0.1-0.1-0.2-0.2c-0.4-0.8-1.1-1.4-1.6-2.2c-0.7-1.1-1.4-2.3-1.2-3.7c-0.1-0.7,0.2-1.3,0.4-1.9c0.1-0.3,0.2-0.5,0.2-0.8
			c0.5-0.3,0.2-0.6,0.1-1c0.3,0,0.6-0.1,0.7-0.4c0.1-0.2,0.2-0.4,0.3-0.5c0.2-0.2,0.3-0.4,0.4-0.7c0.1-0.6-0.1-1.1-0.1-1.7
			c0-0.3,0-0.5,0-0.8c0-0.5-0.4-0.4-0.7-0.4c0,0-0.1,0-0.1,0c0.1-0.2,0.3-0.3,0.5-0.3c0.3-0.1,0.4-0.2,0.4-0.5c0,0,0.1-0.1,0.1-0.1
			c0.1,0,0.2,0.1,0.2,0.1c0.1,1.3,0.2,2.6,0.3,3.9c0,0.2-0.1,0.3-0.2,0.5c-0.7,1.2-1.7,2.4-1.9,3.8c-0.4,1.2-0.3,2.3,0.4,3.4
			c1.4,2.3,3.2,4.3,5.5,5.8c1.3,0.9,2.6,1.8,4.3,2c0.7,0,1.4,0,2.1,0c0.4,0,0.8-0.2,1.3-0.1c1.3,0.3,2.6,0.5,3.9,0.7
			c3.3,0.4,6.3-0.2,8.9-2.3c0.5-0.4,0.9-1,1.6-1.3c-0.1,0.5-0.6,0.7-0.9,1.1c-1.5,1.2-3.1,2.3-5,2.7c-1.5,0.3-3,0.3-4.6,0.2
			C138,96.4,137.6,96.4,137.3,96.4z"/>
		<path fill="#7D7D7D" d="M134,97.5c0.6-0.3,1.3-0.4,2-0.3c2,0.5,3.9,0.6,6.2,0.3c-1.1,1.1-1.7,2.3-2.4,3.4c-1-0.3-1.9-0.8-3-0.9
			c-0.5-0.1-1-0.4-1.5-0.1c-0.2,0-0.3,0-0.5,0C134.6,99.1,134.3,98.3,134,97.5z"/>
		<path fill="#555555" d="M136,102.2c0.3,0.1,0.3,0.3,0.4,0.5c0.1,0.5,0.2,0.9,0.3,1.4c0.1,0.4,0.4,0.9,0,1.1
			c-0.6,0.2-1.2,0.8-1.9,0.2c-0.7-0.6-1.8-0.6-2.6-1.1c0.1-0.2,0.3-0.4,0.5-0.5C133.8,103.3,134.9,102.7,136,102.2z"/>
		<path fill="#D8D8D8" d="M125.2,104.3c-0.9,0.2-1.8,0.2-2.8-0.4c0.4,0,0.6,0,0.7,0c2.4,0,3.7-1.8,2.9-3.9c-0.5-1.5-1.1-3-1.7-4.4
			c-0.1-0.3-0.2-0.6-0.2-0.9l0,0c1.1,1.8,2.2,3.5,2.9,5.5c0.3,0.7,0.1,1.5,0.1,2.3C126.5,103,125.8,103.6,125.2,104.3z"/>
		<path fill="#9E9E9E" d="M155,90C155,90,155,90,155,90c-0.2,0.2-0.2,0.5-0.2,0.7c-0.3,0.4-0.6,0.7-0.9,1.1
			c-0.1,0.1-0.2,0.1-0.3,0.2c-1.1,0.5-2.2,0.7-3.3,0.6c-0.2-0.1-0.5-0.1-0.7-0.2c0-0.2,0.2-0.2,0.3-0.2c0.9-0.1,1.8-0.1,2.6-0.5
			c0.3,0,0.5-0.2,0.8-0.4c1.2-0.6,1.6-2.1,0.6-3.4c-0.1-0.1-0.1-0.2-0.2-0.3c-1-1.1-2.1-0.9-3.3-0.4c-0.1,0-0.3,0.1-0.3,0
			c-0.1-0.1,0-0.2,0.1-0.3c0.2-0.2,0.5-0.3,0.7-0.4c0.4-0.1,0.9-0.2,1.3-0.2c0.2,0,0.4,0,0.5,0c0.1,0.1,0.3,0.1,0.4,0.2
			c1.3,0.7,2,1.7,1.9,3.2C155,89.7,155,89.9,155,90z"/>
		<path fill="#9E9E9E" d="M137.2,117.5c0.9,1,2.2,1.3,3.4,1.8c-1.2,0.9-2.5,1.4-3.9,1.7c-0.2,0-0.4,0.1-0.5,0
			c-0.2-0.2,0-0.3,0.1-0.5C136.7,119.6,137,118.6,137.2,117.5z"/>
		<path fill="#6A6A6A" d="M141.1,105.2c-0.1,0.5,0.3,0.9,0.5,1.4c0.5,0.9,1,1.7,1.5,2.6c0.1,0.2,0.2,0.4,0.1,0.6
			c-1.1-0.8-2.1-1.6-3.4-2.1c-0.7-0.3-0.6-0.9-0.7-1.3c-0.1-0.4,0.4-0.4,0.7-0.6C140.2,105.6,140.6,105.4,141.1,105.2z"/>
		<path fill="#B3B3B3" d="M123.9,108.8c0.3-1.5,1.1-2.9,2.1-4.1c0.3-0.4,0.8-0.3,1.3-0.4c0.3-0.1,0.6,0,0.9,0c0,0.2-0.1,0.4-0.2,0.5
			c-1,1.1-2,2.2-3,3.3C124.6,108.4,124.4,108.8,123.9,108.8z"/>
		<path fill="#7D7D7D" d="M140.2,104.7c-0.4,0.4-1,0.6-1.5,0.8c-0.4,0.2-1.3-0.2-1.3-0.6c0-1.1-0.4-2.1-0.6-3.1
			C138.1,102.7,139.2,103.6,140.2,104.7z"/>
		<path fill="#7D7D7D" d="M130.3,104.5c-0.1,0.5-0.6,0.8-0.9,1.2c-1.7,1.7-3.3,3.6-5,5.3c-0.2,0.2-0.4,0.5-0.7,0.5c0-0.3,0-0.6,0-1
			c0.2,0,0.4,0,0.5-0.2c1.5-1.6,3-3.2,4.5-4.9c0.3-0.3,0.8-0.6,0.8-1.2C129.8,104.4,130,104.5,130.3,104.5z"/>
		<path fill="#FDFDFD" d="M137,105.8c0.8,0,1.6,0.7,1.6,1.5c0,0.6-0.4,0.9-1.1,0.9c-0.8,0-1.7-0.8-1.7-1.5
			C135.9,106.1,136.3,105.8,137,105.8z"/>
		<path fill="#9E9E9E" d="M128.5,103.7c-0.5,0-0.9,0-1.6,0c1.8-1.7,3.8-2.6,6.2-2.8c0,0.3-0.2,0.3-0.4,0.4c-0.9,0.4-1.7,0.8-2.5,1.3
			C129.6,103,128.8,103.1,128.5,103.7z"/>
		<path fill="#8B8A8B" d="M144.7,108.8c-0.5,0.2-0.9,0.1-1.1-0.4c-0.5-1.1-1.4-2.1-1.7-3.3c0.8-0.2,1.3,0.1,1.6,0.8
			C144.1,106.9,144.5,107.8,144.7,108.8z"/>
		<path fill="#8B8A8B" d="M143.5,111c-0.3,0.6-1,0.3-1.4,0.3c-0.8-0.1-1.6-0.3-2.4-0.5c-0.1,0-0.2-0.1-0.3-0.2
			c-0.1-0.2,0.1-0.2,0.2-0.3c0.5-0.2,1-0.3,1.4-0.5c0.2-0.1,0.5-0.1,0.6-0.4C142.4,109.8,142.9,110.4,143.5,111z"/>
		<path fill="#8B8A8B" d="M129.5,104.4c0,0.6-0.5,0.8-0.8,1.2c-1.5,1.6-3,3.2-4.5,4.9c-0.1,0.2-0.3,0.2-0.5,0.2
			c0-0.3-0.1-0.6,0.1-0.8c0.4,0,0.6-0.4,0.9-0.6c1.2-1.3,2.4-2.6,3.6-3.9c0.2-0.3,0.6-0.5,0.6-0.9
			C129.1,104.4,129.3,104.4,129.5,104.4z"/>
		<path fill="#FDFDFD" d="M134,97.5c0.4,0.8,0.7,1.6,0.8,2.5c-0.2,0-0.5,0-0.7,0.1c-0.4,0.1-0.6-0.1-0.7-0.5
			c-0.1-0.6-0.3-1.2-0.7-1.8c0-0.3-0.5-0.5-0.1-0.8C133.1,96.7,133.8,97,134,97.5z"/>
		<path fill="#9E9E9E" d="M128.9,104.4c0,0.4-0.4,0.6-0.6,0.9c-1.2,1.3-2.4,2.6-3.6,3.9c-0.2,0.3-0.5,0.6-0.9,0.6
			c0-0.3,0.1-0.7,0.1-1c0.5,0,0.7-0.4,1-0.7c1-1.1,2-2.2,3-3.3c0.1-0.2,0.3-0.3,0.2-0.5C128.4,104.2,128.6,104.4,128.9,104.4z"/>
		<path fill="#B3B3B3" d="M142.3,104.4c-0.5,0-1,0.1-1.4,0.1c0-0.2-0.1-0.3-0.2-0.5c-0.8-0.7-1.6-1.4-2.4-2
			c-0.2-0.2-0.5-0.3-0.4-0.7c1.6,0.5,2.9,1.3,4.1,2.5C142.1,104.1,142.3,104.2,142.3,104.4L142.3,104.4z"/>
		<path fill="#9E9E9E" d="M137.9,101.4c0,0.3,0.2,0.5,0.4,0.7c0.8,0.7,1.6,1.4,2.4,2c0.1,0.1,0.3,0.3,0.2,0.5c0,0,0,0-0.1,0
			c-0.2-0.1-0.3-0.1-0.4,0.1c-0.1,0-0.2,0-0.3,0c-1-1.1-2.1-2-3.3-2.8c-0.1-0.2-0.3-0.5-0.5-0.8C137,101,137.4,101.2,137.9,101.4z"
			/>
		<path fill="#D8D8D8" d="M145.8,117.7c0,0,0-0.1,0-0.1c1.3-1.5,1.4-3.2,1.3-5c0.4,0.1,0.6,0.4,0.7,0.7
			C148.5,114.6,147.4,117.1,145.8,117.7z"/>
		<path fill="#7D7D7D" d="M134.4,100.8c0.3,0,0.6-0.1,0.9,0.1c-0.4,0.6-1,0.8-1.6,1.1c-1.1,0.6-2.4,1-3.3,1.9c-0.3,0-0.7-0.1-1-0.1
			c0-0.4,0.4-0.5,0.6-0.6c0.9-0.3,1.7-0.8,2.5-1.2C133.1,101.6,133.9,101.4,134.4,100.8z"/>
		<path fill="#6A6A6A" d="M130.3,103.9c1-0.8,2.2-1.2,3.3-1.9c0.6-0.3,1.2-0.5,1.6-1.1c0.4,0,0.4,0.3,0.6,0.5c-1,0.6-2,1.1-3,1.6
			c-0.5,0.3-1.2,0.4-1.5,1C131,104,130.7,104,130.3,103.9z"/>
		<path fill="#8B8A8B" d="M134.4,100.8c-0.5,0.6-1.3,0.8-2,1.2c-0.8,0.4-1.6,0.9-2.5,1.2c-0.3,0.1-0.6,0.2-0.6,0.6
			c-0.3,0-0.6-0.1-0.9-0.1c0.4-0.6,1.1-0.7,1.7-1.1c0.8-0.5,1.7-0.9,2.5-1.3c0.2-0.1,0.4-0.2,0.4-0.4
			C133.5,100.7,134,100.8,134.4,100.8z"/>
		<path fill="#5F5F5F" d="M131.4,104.1c0.3-0.6,0.9-0.7,1.5-1c1-0.5,2.1-1,3-1.6c0.2,0.2,0.1,0.5,0.2,0.7c-1.1,0.5-2.2,1.1-3.3,1.6
			c-0.2,0.1-0.4,0.2-0.5,0.5C131.9,104.2,131.6,104.3,131.4,104.1z"/>
		<path fill="#555555" d="M154.8,90.7c0-0.2,0-0.5,0.2-0.6c0.3,0.6,0.6,1.2,1.4,1.5c0.1,0.2,0.4,0.4,0.2,0.7
			c-0.2,0.2-0.4,0.2-0.7,0.2c-0.7,0-1.3-0.1-2-0.1c-0.2,0-0.3-0.1-0.3-0.3c0.1-0.1,0.2-0.1,0.3-0.2c0.6,0.1,1.3,0.3,2,0.1
			C155.5,91.5,155.2,91.1,154.8,90.7z"/>
		<path fill="#7D7D7D" d="M135.3,100c0.5-0.4,1,0,1.5,0.1c1.1,0.2,2.2,1,3,0.9c0.3,0.2,0.5,0.4,0.8,0.5c0,0.1-0.1,0.1-0.1,0.2
			C138.8,100.7,137.1,100.2,135.3,100z"/>
		<path fill="#474747" d="M149.6,92.3c0.2,0.1,0.5,0.1,0.7,0.2c-0.1,0.1-0.1,0.2-0.2,0.3c-0.7,0.3-1.4,0.6-2.1,0.8
			c0.2-0.4,0.8-0.6,0.9-1.1C149.1,92.3,149.3,92.2,149.6,92.3z"/>
		<path fill="#7D7D7D" d="M140.5,104.7c0.1-0.2,0.2-0.2,0.4-0.1C140.7,104.7,140.7,104.8,140.5,104.7z"/>
		<path fill="#9E9E9E" d="M142.3,104.4L142.3,104.4C142.4,104.4,142.4,104.4,142.3,104.4C142.4,104.4,142.4,104.4,142.3,104.4z"/>
		<path fill="#D8D8D8" d="M145.7,117.8c0-0.1,0.1-0.1,0.1-0.1C145.9,117.8,145.8,117.8,145.7,117.8z"/>
		<path fill="#D8D8D8" d="M149.6,92.3c-0.3-0.1-0.5,0-0.7,0.2c-0.7,0.2-1,0.9-1.6,1.3c-2.6,2-5.6,2.6-8.9,2.3
			c-1.3-0.2-2.6-0.4-3.9-0.7c-0.4-0.1-0.9,0.1-1.3,0.1c-0.7,0-1.4,0-2.1,0c0-0.4-0.4-0.4-0.7-0.5c-1.1-0.4-1.8-1.2-2-2.3
			c-0.2-1.2-0.6-2.1-2-2.3c-0.2,0-0.4-0.1-0.5-0.2c-2.3-0.7-3.9-1.9-4.4-4.3c-0.1-0.5-0.2-1.1-0.7-1.5c0.3-1.4,1.2-2.6,1.9-3.8
			c0.1-0.2,0.2-0.3,0.2-0.5c-0.1-1.3-0.2-2.6-0.3-3.9c0,0-0.1-0.1-0.2-0.1c0-0.1,0-0.3,0-0.4c0.1-0.5,0.2-1-0.1-1.4
			c0-0.3,0-0.5,0-0.8c0-0.1,0.1-0.2,0.1-0.3c0.7-0.1,1.3-0.6,2.1-0.6c0.3,0,0.5,0,0.5,0.3c-0.9,1.1-0.2,2,0.2,3
			c-0.7-0.3-1-0.9-1.1-1.6c0-0.2,0-0.4-0.3-0.4c-0.3,0-0.3,0.2-0.4,0.4c-0.2,0.7,0,1.4,0.7,1.8c0.6,0.2,0.6,0.5,0.3,0.9
			c-0.5,0.3-0.5,0.8-0.4,1.3c0.2,0.9,0.4,1.8-0.2,2.7c-0.2,0.2-0.6,0.2-0.7,0.5c0.3,0,0.5,0,0.7,0c-0.3,0.5-0.1,1.1-0.3,1.7
			c-0.2,0.7-0.7,1.3-1,2c-0.4,0.8-0.2,1.5,0.5,2c0.8,0.7,1.8,0.9,2.9,0.8c0.1,0.6,0.4,0.2,0.5,0.1c0.4-0.3,0.5-0.1,0.8,0.1
			c0.7,0.6,1.1,1.3,1.5,2.1c0.8,1.6,1.7,2.3,3.8,1.7c0.2,0.7,0.3,1.5,1.2,1.9c1.1,0.5,2.3,0.6,3.4,0.5c1.5-0.1,3-0.1,4.4-0.4
			c0.9-0.2,2-0.1,2.8-0.6c1.7-1.1,3.4-2.3,3.9-4.4c0.1-0.3,0.1-0.6,0.5-0.6c0.4,0,0.3,0.3,0.4,0.6c0.1,0.2,0,0.6,0.4,0.6
			c0.4,0,0.6-0.2,0.6-0.5c0.4-0.2,0.9,0,1.2-0.4c0.1,0,0.2,0,0.3,0.1c0.2,0.5,0.1,1-0.2,1.4c-0.4,0.5-1,0.1-1.5,0.1
			c0.1,0.3,0.3,0.4,0.5,0.4c-0.1,0.5-0.4,1-0.4,1.5C149.8,92.1,149.6,92.1,149.6,92.3z"/>
		<g>
			<polygon fill="#858585" points="145.8,117.7 145.8,117.7 145.8,117.7 			"/>
			<path fill="#858585" d="M156.9,91.1c-0.3,0.1-0.4,0.3-0.5,0.5c0.1,0.2,0.4,0.4,0.2,0.7c-0.2,0.2-0.4,0.2-0.7,0.2
				c-0.7,0-1.3-0.1-2-0.1c-0.2,0-0.3-0.1-0.3-0.3c-1.1,0.5-2.2,0.7-3.3,0.6c-0.1,0.1-0.1,0.2-0.2,0.3c-0.7,0.3-1.4,0.6-2.1,0.8
				c-1.5,1.2-3.1,2.3-5,2.7c-1.5,0.3-3,0.3-4.6,0.2c-0.4,0-0.7,0-1.1-0.1c-1.3-0.2-2.6-0.7-3.9-0.5c-3,0.4-5.4-0.7-7.5-2.5
				c-0.8-0.7-1.7-1.4-2.5-2.2c0,0.1,0,0.1,0,0.2c1.3,2.7,2.6,5.3,4,8c0.2,0.5,0.5,1,0.6,1.6c0.1,0.7,0.1,1.2-0.7,1.5
				c-0.7,0.6-1.3,1.3-2,1.9c-0.1,0.5-0.6,0.5-1,0.5c-1.4-0.1-2.5-0.7-3.1-2c-0.4-0.7-0.7-1.4-1.1-2.2c-0.3-0.5-0.6-0.8-1.3-0.8
				c-2.1,0-4.3,0-6.4,0c-0.6,0-1,0.2-1.3,0.8c-0.3,0.6-0.6,1.1-0.9,1.7c-0.9,2.3-3.8,3.3-6.1,1.4c-1.3-1.5-1.1-3.1-0.3-4.7
				c0.4-0.8,0.9-1.6,1.2-2.5c0,0,0.1-0.1,0.1-0.1c0,0,0-0.1,0-0.1c0.1-0.2,0.2-0.4,0.3-0.5c0.6-1.2,1.1-2.4,1.7-3.6
				c1.5-2.7,2.7-5.5,4.1-8.3c0.3-0.6,0.6-1.1,0.9-1.7c0.7-1.3,1.8-2.1,3.4-2.1c1.6,0,2.6,0.8,3.3,2.1c0.5,1,0.9,2,1.5,2.9
				c-0.1-0.7,0.2-1.3,0.4-1.9c0.1-0.3,0.2-0.5,0.2-0.8c-1.5-1.2-1.8-3.8-0.7-5.3c0.5-0.7,1.3-0.9,2.1-1.1c0,0,0.1-0.1,0.1-0.1
				c0-0.1,0-0.3,0-0.4c-0.4-0.4-0.2-0.9-0.1-1.4c0-0.3,0-0.5,0-0.8c-0.2,0-0.2-0.2-0.2-0.3c-0.4,0-0.7,0.1-1.1,0.1
				c0.3,1,0.1,1.7-1,2.1c-0.4,0.2-0.6,0.3-0.9,0.1c-1.1-0.5-2.3-0.8-3.6-0.7c-0.6,0-0.8-0.2-1.1-0.7c-0.8-1.8-2.2-2.8-4.1-3.4
				c-1.9-0.5-3.8-0.3-5.7,0.1c-2.2,0.5-4.2,1.4-5.5,3.3c-0.3,0.4-0.5,0.2-0.7,0.1c-1.5-0.6-3-1.2-4.5-1.6c-4.7-1.7-9.6-2.7-14.6-2.9
				c-7.5-0.3-14.7,0.9-21.8,3.2c-1.5,0.5-2.9,1.1-4.3,1.7c-1.6,0.7-2.7,0.4-3.5-1.1c-0.1-0.1-0.1-0.2-0.2-0.3
				c-2.1-3.8-5.4-5.9-9.9-5.8c-4.5,0-7.7,2.2-9.6,6c-2.9,5.8-5.7,11.5-8.6,17.3c-1,2-2,3.9-2.9,5.9c-0.9,1.8-1.2,3.7-0.9,5.7
				c0.4,2.2,1.3,4.1,2.9,5.6c1.7,1.8,3.9,2.8,6.4,3.1c4.6,0.5,8.1-1.3,10.8-4.7c0.8-1,1.5-2.1,2.2-3.3c0.2,0.2,0.3,0.4,0.4,0.6
				c1.1,1.5,2.1,3.1,3.5,4.3c2.1,1.8,4.4,3,7.3,3.1c3.5,0.1,6.2-1.5,8.5-3.9c1.7-1.8,3.5-3.4,5.6-4.7c4-2.5,8.3-3,12.8-2
				c1.8,0.4,3.4,1.2,5.2,1.8c3.5,1.5,7,2.9,10.4,4.4c1.1,0.5,2.2,1,3.3,1.5c2.1,0.9,4.1,2,6.3,2.5c3.6,0.8,6.9,0.4,9.7-2.1
				c0.9-0.8,1.6-1.8,2.2-2.9c1.5,2.8,3.8,4.6,7,5.2c0.5,0.1,0.6,0.3,0.6,0.7c0.3,4.2,2.3,7.3,6.2,9.3c4.1,2.1,9.7,1.4,12.9-1.6
				c-0.5,0-0.9,0-1.4,0c-1.2,0.9-2.5,1.4-3.9,1.7c-0.2,0-0.4,0.1-0.5,0c-0.2-0.2,0-0.3,0.1-0.5c0.4-1,0.7-2,0.9-3
				c0.3-1.2,0.3-1.2-0.3-1.6c-0.4,1.5-0.6,2.9-1.2,4.3c-0.4,0.9-0.5,1.1-1.6,1c-3.8-0.1-6.7-1.7-8.8-4.7c-0.3-0.4-0.3-0.7,0-1.1
				c1.1-1.3,2.4-2.4,3.7-3.4c1.9-1.4,3.9-2.7,6-3.8c0.9-0.4,1.8,0.1,2,1c0.2,1,0,2.1,0.1,3.2c0.5,0,0.6-0.3,0.6-0.7
				c-0.1-0.9,0.1-1.8-0.1-2.8c0-0.1,0-0.1,0-0.2c0-0.1,1.5-0.7,1.7-0.7c0.8,0.4,1.6,0.7,2.2,1.3c0.7,0.4,1.3,1,1.9,1.5
				c0-0.4,0.1-0.9-0.3-1.2c-1.1-0.8-2.1-1.6-3.4-2.1c-0.7-0.3-0.6-0.9-0.7-1.3c-0.1-0.4,0.4-0.4,0.7-0.6c0.4-0.2,0.9-0.4,1.3-0.5
				c0.3,0,0.6-0.1,0.9-0.1c0.8-0.2,1.3,0.1,1.6,0.8c0.5,0.9,0.9,1.9,1.1,2.9c0.3,0.1,0.6,0.1,0.9,0.2c-0.6-2.8-2.1-5.1-4.5-6.8
				c-0.3-0.2-0.5-0.4-0.3-0.8c1-2.3,2.7-4,5-5.2c0.3-0.2,0.4-0.1,0.5,0.2c0.8,3.6,2,7.1,2.7,10.7c0.3,2,0.4,4-0.2,6.1
				c-0.4-0.6-0.7-1.2-1.6-1c0,0.1,0,0.3,0,0.4c0.4,0.1,0.6,0.4,0.7,0.7c0.7,1.4-0.5,3.9-2,4.4c0,0.1-0.1,0.1-0.1,0.1
				c-0.2,0.2-0.5,0.4-0.7,0.6c1,0.3,2.3-0.2,2.9-1.3c0.7-1.2,1.5-2.4,1.9-3.7c0.7-2.4,0.5-4.8,0.1-7.2c-0.6-3.1-1.6-6.2-2.4-9.3
				c-0.2-0.8-0.3-1.4,0.6-1.8c0.2-0.1,0.5-0.3,0.6-0.6c0.6-0.8,1.4-1.1,2.4-0.9c0.2,0.1,0.5,0,0.8,0c1.4-0.4,2.8-0.1,4.1,0
				c1.3,0.1,2.1-0.8,1.8-2c-0.1-0.5,0.1-0.4,0.4-0.5c0.6,0,1.2-0.1,1.9-0.2c0.6-0.1,1.2-0.3,1.4-0.9
				C159.9,90.1,158.5,90.8,156.9,91.1z M100.6,74.5c0.7-0.9,1.6-1.4,2.7-1.8c0.7-0.3,1.4-0.5,2.1-0.6c0.9-0.2,1.8-0.4,2.6-0.3
				c1.6-0.1,3,0.4,4.2,1.3c0.7,0.5,0.7,0.8-0.1,1.1c-1,0.5-1.4,1.3-1.4,2.3c0,0.4,0,0.7-0.1,1.1c-0.3,1.1-1,1.5-2.1,1.3
				c-0.3,0-0.4,0-0.6,0.2c-0.5,0.4-1.1,0.6-1.7,0.3c-0.3-0.1-0.5,0-0.7,0.1c-0.5,0.3-1,0.4-1.6,0.1c-0.2-0.1-0.4-0.1-0.6,0.1
				c-0.5,0.3-0.9,0.3-1.4,0C99.8,78.7,99.2,76.2,100.6,74.5z M63.6,96.3c-0.9,2.6-3.5,3.2-5.5,1.3c-0.2-0.4-0.4-0.7-0.6-1.1
				c-1.2-2.3-2.4-4.6-3.6-6.8c-0.8,0.2-1.6,0.5-2.4,0.7c1.3,2.7,2.6,5.3,3.9,8c1.2,3-0.8,5.5-2.9,6.1c-2,0.6-5-0.5-5.7-2.6
				c-0.1-0.3-0.3-0.6-0.5-0.9c-0.3-0.7-0.6-1.3-1-2c-0.3-0.5-0.7-0.7-1.3-0.7c-3,0-5.9,0-8.9,0c-0.7,0-1.1,0.3-1.4,0.9
				c-0.5,1-1,2-1.4,2.9c-1,2.1-3.3,3.1-5.5,2.4c-2.3-0.6-3.7-2.7-3.4-5c0.1-0.5,0.3-1,0.5-1.5c0.5-1,1-2,1.5-3c0,0,0.1-0.1,0.1-0.1
				c0,0,7.7-15.6,9.8-19.7c0.9-1.7,2.3-2.7,4.3-2.7c2.1,0,3.5,1,4.4,2.8c2.4,4.9,4.8,9.8,7.2,14.7c0.1,0.1,0.1,0.2,0.2,0.4
				c0.8-0.2,1.6-0.5,2.4-0.7c-1-1.9-2-3.8-2.9-5.7c-1-2-0.5-3.5,1.6-4.6c1.9-1,3.9-1.8,6-2.4c1.7-0.5,3.4,0.3,4,1.8
				c0.6,1.6-0.2,3.2-1.9,3.8c-0.6,0.2-1.3,0.4-1.9,0.7c-0.6,0.2-0.9,0.7-0.5,1.3c1,1.9,2,3.7,3,5.6c0.7,1.3,1.4,2.6,2,3.9
				C63.6,94.8,63.8,95.5,63.6,96.3z M73.5,93.4c-0.1,0.1-0.1,0.2-0.1,0.3l0,0c0,0-0.1,0.1-0.1,0.1c-1.2,1.7-2.6,2.1-4.7,1.1
				c-1.4-1.4-1.6-2.5-0.7-4.3c0.4-0.9,0.9-1.7,1.3-2.6c0.3-0.7,0.7-1.3,1-2c0.3-0.5,0.1-1-0.4-1.4c-1.6-1.6-3.3-3.1-4.9-4.7
				c-1.4-1.3-1.4-3.2-0.1-4.4c1.3-1.2,3.2-1.1,4.6,0.2c1.1,1,2.1,2.1,3.2,3.1c0.7,0.7,1.2,0.6,1.7-0.3c0.6-1,1.2-2.1,1.8-3.1
				c0.6-1.1,1.6-1.7,2.9-1.7c1.3,0,2.3,0.7,2.8,1.9c0,0.1,0.1,0.1,0.1,0.2c0.3,1.1-0.1,2.1-0.6,3C78.8,83.8,76.2,88.6,73.5,93.4z
				 M100.1,100.2c-0.9,1.7-2.5,2.2-4.3,1.5c-1.5-0.6-3-1.2-4.6-1.8c-2.4-1-4.8-2-7.2-3c-1.3-0.6-2.7-1.1-4-1.6
				c-1.2-0.4-1.9-1.1-2.3-2.2c-0.1-0.9,0.1-1.8,0.5-2.6c2.3-4.4,4.6-8.7,6.8-13.1c0.8-1.6,2.8-2,4.2-1.4c1.6,0.7,2.3,2.5,1.5,4
				c-1.6,3.1-3.2,6.2-4.8,9.3c-0.1,0.2-0.2,0.4-0.3,0.7c-0.3,0.7,0,1.4,0.6,1.8c0.7,0.3,1.4,0.1,1.8-0.6c0.4-0.7,0.8-1.4,1.2-2.1
				c1.4-2.7,2.9-5.5,4.3-8.2c0.9-1.7,2.6-2.3,4.3-1.5c1.6,0.8,2.1,2.5,1.3,4.1c0,0.1-0.1,0.2-0.1,0.3c-1.7,3.2-3.4,6.3-5.1,9.5
				c-0.1,0.3-0.2,0.6-0.1,0.9c0.2,0.6,0.6,0.9,1.3,1c0.7,0,1.1-0.4,1.4-0.9c1.3-2.6,2.6-5.2,4-7.7c0.6-1.1,1-2.3,2-3.3
				c2.2-1.2,3.9-0.7,5.1,1.5c0.2,1-0.1,1.9-0.6,2.8c-1.7,3.2-3.4,6.4-5,9.7C101.3,98,100.7,99.1,100.1,100.2z M134.7,107.8
				c-2.8,1.5-5.4,3.2-7.8,5.3c-0.7,0.6-1.3,1.2-1.9,1.9c-0.3,0.3-0.4,0.2-0.5-0.1c-0.5-1.1-0.8-2.2-0.8-3.4c0-0.3,0-0.6,0-1
				c0-0.3-0.1-0.6,0.1-0.8c0-0.3,0.1-0.7,0.1-1c0.3-1.5,1.1-2.9,2.1-4.1c0.3-0.4,0.8-0.3,1.3-0.4c0.3-0.1,0.6,0,0.9,0
				c0.3-0.1,0.5,0,0.7,0.1c0.2,0,0.4,0,0.6,0c0.3,0,0.6,0.1,0.9,0.1c1.5,0.3,2.9,0.8,4.4,1.4c0.7,0.3,0.6,0.9,0.7,1.4
				C135.5,107.7,135,107.7,134.7,107.8z M134.8,105.3c-0.7-0.6-1.8-0.6-2.6-1.1c-0.3,0-0.6,0-0.9-0.2c-0.3-0.1-0.7-0.2-1-0.2
				c-0.3,0-0.7-0.1-1-0.1c-0.3,0-0.6-0.1-0.9-0.1c-0.5,0-0.9,0-1.6,0c1.8-1.7,3.8-2.6,6.2-2.8c0.4-0.2,0.9-0.1,1.3-0.1
				c0.3,0,0.6-0.1,0.9,0.1c0.4,0,0.4,0.3,0.6,0.5c0.2,0.2,0.1,0.5,0.2,0.7c0.3,0.1,0.3,0.3,0.4,0.5c0.1,0.5,0.2,0.9,0.3,1.4
				c0.1,0.4,0.4,0.9,0,1.1C136.1,105.4,135.5,105.9,134.8,105.3z M137.5,108.1c-0.8,0-1.7-0.8-1.7-1.5c0-0.5,0.5-0.9,1.1-0.9
				c0.8,0,1.6,0.7,1.6,1.5C138.6,107.8,138.2,108.2,137.5,108.1z M141.9,103.9c0.2,0.2,0.4,0.3,0.4,0.5c-0.5,0-1,0.1-1.4,0.1
				c0,0,0,0-0.1,0c-0.1,0.1-0.2,0.3-0.4,0.1c-0.1,0-0.2,0-0.3,0c-0.4,0.4-1,0.6-1.5,0.8c-0.4,0.2-1.3-0.2-1.3-0.6
				c0-1.1-0.4-2.1-0.6-3.1c-0.1-0.2-0.3-0.5-0.5-0.8c0.6-0.1,1,0.1,1.5,0.3C139.4,101.9,140.8,102.7,141.9,103.9z M139.7,100.9
				c0.2,0.2,0.5,0.3,0.8,0.5c0,0.1-0.1,0.1-0.1,0.2c-1.6-0.9-3.3-1.4-5.2-1.7c-0.2,0-0.3,0-0.5,0c-0.2,0-0.5,0-0.7,0.1
				c-0.4,0.1-0.6-0.1-0.7-0.5c-0.1-0.6-0.3-1.2-0.7-1.8c0-0.3-0.5-0.5-0.1-0.8c0.4-0.3,1.2,0,1.4,0.5c0.6-0.3,1.3-0.4,2-0.3
				c0,0,0,0,0-0.1c0,0,0,0,0,0.1c2,0.5,3.9,0.6,6.2,0.3C141.1,98.7,140.5,99.8,139.7,100.9z"/>
		</g>
		<path fill="#5F5F5F" d="M108,71.8c1.6-0.1,3,0.4,4.2,1.3c0.7,0.5,0.7,0.8-0.1,1.1c-1,0.5-1.4,1.3-1.4,2.3c0,0.4,0,0.7-0.1,1.1
			c-0.3,1.1-1,1.5-2.1,1.3c-0.3,0-0.4,0-0.6,0.2c-0.5,0.4-1.1,0.6-1.7,0.3c-0.3-0.1-0.5,0-0.7,0.1c-0.5,0.3-1,0.4-1.6,0.1
			c-0.2-0.1-0.4-0.1-0.6,0.1c-0.5,0.3-0.9,0.3-1.4,0c-2-1-2.6-3.5-1.2-5.2c0.7-0.9,1.6-1.4,2.7-1.8c0.7-0.3,1.4-0.5,2.1-0.6
			C106.2,71.9,107.1,71.7,108,71.8z M102.8,75.8c0.1,0.4,0.1,0.6,0.2,0.9c0.1,0.8,0.4,1.5,0.9,2.1c0.4,0.4,0.9,0.5,1.4,0.2
			c0.6-0.3,0-0.6-0.1-0.9c-0.4-1-0.6-1.9,0-2.8c0.1,0.3,0,0.6,0.1,0.8c0.1,0.8,0.2,1.6,0.6,2.4c0.3,0.5,0.8,0.6,1.3,0.4
			c0.5-0.3,0.6-0.6,0.3-1.1c-0.3-0.4-0.4-0.9-0.4-1.4c-0.1-0.6,0.1-1.1,0.4-1.6c-0.2,1.1-0.2,2.1,0.4,3.1c0.2,0.4,0.4,0.7,1,0.7
			c0.5-0.1,0.9-0.4,1-0.9c0.1-0.4,0.1-0.8,0.1-1.2c0.1-1.1,0.3-2.1,1.6-2.5c-0.4-0.4-0.8-0.6-1.3-0.8c-3.1-0.8-6-0.1-8.6,1.7
			c-1.5,1-1.1,3.6,0.6,4.4c0.3,0.2,0.6,0.2,0.9,0c0.3-0.3,0-0.5-0.1-0.7C102.7,77.5,102.3,76.8,102.8,75.8z"/>
		<path fill="#7D7D7D" d="M121.1,81.5c0.1,0.3,0.4,0.7-0.1,1c-1.5-1.2-1.8-3.8-0.7-5.3c0.5-0.7,1.3-0.9,2.1-1.1
			c0.1,0.3-0.1,0.5-0.4,0.5c-0.2,0.1-0.4,0.1-0.5,0.3c-0.7,0.4-1.4,0.8-1.4,1.7C119.7,79.4,120.1,80.6,121.1,81.5z"/>
		<path fill="#8B8A8B" d="M122.4,73c0,0.1-0.1,0.2-0.1,0.3c-0.2,0-0.2-0.2-0.2-0.3c0.1-0.7-0.2-1.4,0.2-2.1c0,0,0.1,0,0.1,0
			C122.4,71.6,122.4,72.3,122.4,73z"/>
		<path fill="#8B8A8B" d="M122.3,74.1c0.4,0.4,0.2,0.9,0.1,1.4C122,75,122.3,74.6,122.3,74.1z"/>
		<path fill="#5F5F5F" d="M25.6,95c0,0-0.1,0.1-0.1,0.1C25.5,95.1,25.5,95,25.6,95z"/>
		<path fill="#E0E0E0" d="M122.4,73c0-0.7,0-1.4-0.1-2.1c0.2-0.2,0.3-0.5,0.4-0.8c0.7,0.1,0.7,0.9,1.2,1.2c0.3,0.2,0.4,0.6,0.8,0.5
			c0.4-0.1,0.4-0.5,0.5-0.9c0.1-0.9,0.5-1.7,0.9-2.6c0.4,0,0.5-0.2,0.6-0.5c0.1-0.4,0.3-0.8,0.5-1.4c0.5,1.3,1.4,2,2.4,2.6
			c0.2,0.1,0.5,0.3,0.7,0.1c0.3-0.2,0.1-0.5,0.1-0.7c-0.1-0.5-0.3-1-0.2-1.7c1.1,1.6,1.1,1.6,2.1,0.4c0.1,0.1,0.1,0.1,0.2,0.2
			c1,2.4,3,3.8,5.1,5.1c0.2,0.1,0.5,0.3,0.7,0.1c0.3-0.2,0.1-0.4,0-0.6c-0.3-0.9-0.7-1.9-1-2.8c-0.1-0.3-0.2-0.5-0.1-0.8l0,0
			c0.6,0.6,1.2,1.3,1.9,1.9c0.2,0.2,0.3,0.4,0.6,0.2c0.3-0.1,0.2-0.4,0.2-0.6c-0.2-1.2-0.3-2.4,0.1-3.5c0-0.1,0.1-0.2,0.2-0.4
			c0.8,0.9,1.5,1.7,2.3,2.6c-0.1,0.4,0.1,0.8,0.4,1.1c0.4,0.5,0.6,1.1,0.8,1.7c0.2,1.1,0.5,2.2,1.2,3.1c0.1,0.2,0.2,0.4,0.2,0.6
			c-0.9-0.2-1.7-0.6-2.8-0.6c1.5,0.9,2.9,1.7,4.2,2.6c0,0.4,0.2,0.7,0.1,1.1c-0.6,0.2-0.7,0.7-1,1.1c-0.3,0.3-0.5,0.7-1,0.5
			c0.6-0.4,0.9-0.9,1.1-1.5c0.1-0.4,0-0.8-0.4-0.9c-0.5-0.1-0.4,0.4-0.5,0.6c-0.1,0.4,0,0.9-0.5,1.2c-0.4-0.7-1-1-1.8-1
			c-0.8-0.3-1.5,0.1-2.3,0.1c-0.1-0.4-0.3-0.6-0.7-0.6c-1.1-0.1-2.8,0.7-3.3,1.7c-0.7,1.6-1,3.4-1.9,4.9c-0.9-0.5-1.7-1.2-2.7-1.4
			c0.6-2.1,1.1-4.2,0.7-6.5c-0.3-1.9-1.9-2.9-3.8-2.2c-0.5,0-0.9,0.1-1.4,0.2c-0.1-0.5,0.1-0.8,0.5-1.1c0.1-0.1,0.3-0.2,0.2-0.4
			c-0.1-0.2-0.3-0.1-0.4-0.1c-0.4-0.1-0.5,0.3-0.8,0.4c-0.2-0.1-0.5-0.2-0.8-0.2c-0.2-0.2-0.4-0.2-0.7-0.2c0-0.3-0.2-0.3-0.5-0.3
			C123.8,72.4,123.1,72.9,122.4,73z M129.8,71.6c-0.9-0.7-2.7-0.8-3.7-0.2c-0.3,0.2-0.5,0.4-0.4,0.7c0.2,0.3,0.5,0.2,0.8,0.1
			C127.6,71.9,128.6,71.5,129.8,71.6z"/>
		<path fill="#3F3F3F" stroke="#3F3F3F" stroke-miterlimit="10" d="M127.4,65.6c-0.4-0.2-0.4,0.1-0.5,0.3c-0.2,0.5-0.4,1-0.5,1.6
			c-0.1,0.3-0.3,0.3-0.5,0.1c-0.2-0.4-0.5-0.8-0.5-1.2c0.2-0.1,0.2-0.3,0.3-0.5c1-2.4,2.3-4.4,4.4-6.1c1.9-1.5,4-2.4,6.4-2.8
			c0.5-0.1,1.1,0.2,1.5-0.4c2.5,0.2,4.8,1,7.1,2c0.5,0.2,1.1,0.5,1.6,0.8c0.1-0.9,0.7-1.4,1.4-1.8c0.3-0.2,0.6-0.3,0.9,0.2
			c-0.6,0.6-1.1,1.1-1.3,2c-0.1,0.4,0,0.7,0.3,0.9c0.1,0.3,0.3,0.6,0.6,0.7c0.1,0.2,0.2,0.3,0.4,0.4c0.6,0.5,1.2,1.1,2,1.2
			c0.1,0.2,0.4,0.2,0.6,0.3c0.2,0.2,0.5,0.2,0.7,0.3c0,0,0.1,0.1,0.1,0.1c0.1,0.1,0.1,0.2,0.2,0.3c0,0.4,0.2,0.7,0.5,1
			c1.1,1.4,1.7,3,2.1,4.7c0.9,3.5,0.8,7-0.6,10.3c-0.2,0.5-0.3,1.1-0.9,1.3c0.2-1.6,0.2-3.1,0.1-4.7c0.2-0.2,0.3-0.4,0.3-0.6
			c0.2-1.3,0.2-2.5,0-3.8c-0.4-3.3-1.7-6.2-4-8.7c-3.1-3.3-6.8-5.1-11.5-5c-3.2,0.1-5.9,1.2-8.2,3.2
			C129.1,62.7,128.2,64.1,127.4,65.6z"/>
		<path fill="#CACACA" d="M150.2,88.9c-0.1,0.3-0.3,0.5-0.6,0.5c-0.4,0-0.3-0.4-0.4-0.6c-0.1-0.2-0.1-0.6-0.4-0.6
			c-0.4,0-0.5,0.3-0.5,0.6c-0.5,2.1-2.2,3.3-3.9,4.4c-0.8,0.5-1.8,0.5-2.8,0.6c-1.5,0.2-2.9,0.3-4.4,0.4c-1.2,0.1-2.3-0.1-3.4-0.5
			c-0.9-0.4-1-1.2-1.2-1.9c0.7-0.4,1.4-0.7,2-1.2c0.9-0.7,0.9-0.7,1.8,0.2c-0.2,0.3-0.5,0.5-0.2,0.9c0.3,0.3,0.5,0.6,0.9,0.7
			c2.4,0.6,4.7,0.5,7.1,0c0.3-0.1,0.5-0.3,0.7-0.6c0,0,0.1,0,0.1,0c0.4-0.1,0.7-0.3,1-0.6c1.3-1.1,1.6-2.6,1.8-4.2
			c0.1-0.8-0.2-1.4-0.9-1.9c-0.7-0.5-1.5-0.6-2.2-0.9c-0.7-0.3-0.8-0.4-0.2-1c0.2,0,0.3,0.1,0.4,0.2c0.8,0.5,1.7,0.7,2.6,0.6
			c0.6,0,1.1-0.7,0.8-1.2c-0.2-0.5-0.3-1-0.3-1.5c0-0.3,0-0.6-0.3-0.8c0.3-0.3,0.3-0.6,0-0.9c0.3-0.3,0.2-0.8,0.1-1.1
			c-0.4-2.2-0.8-4.4-1-6.6c-0.1-0.8-0.4-1.6,0-2.4c0.2,0.2,0.4,0.4,0.5,0.6c0.2,0.2,0.3,0.4,0.6,0.3c0.4-0.1,0.3-0.4,0.3-0.6
			c0-0.1-0.1-0.3,0.1-0.5c0.6,0.6,0.8,1.5,1.2,2.2c-0.4,0.2-0.3,0.5-0.3,0.8c0,2.5,0,5.1,0,7.6c0,0.2,0,0.5-0.1,0.7
			c-0.2,0.6,0,1.1,0.4,1.6c0.1,0.1,0.3,0.3,0.3,0.4c0.5,1.2,0.7,2.5,0.8,3.7c-0.2,0.2-0.5,0.2-0.7,0.4c-0.1,0.1-0.2,0.2-0.1,0.3
			c0.1,0,0.2,0,0.3,0c0.1,0.4-0.2,0.8-0.1,1.2c-0.4,0.1-0.6,0.3-0.5,0.6C149.7,89.1,150,88.9,150.2,88.9z"/>
		<path fill="#6A6A6A" d="M132.6,66.7c-0.3-0.3-0.5-0.1-0.7,0.1c-0.2,0.2-0.2,0.8-0.6,0.7c-0.4-0.1-0.6-0.5-0.5-0.9
			c0.7-1.1,1.5-2.2,2.7-3c2.3-1.6,4.8-2.3,7.7-1.8c5.3,1.1,9.2,5.3,9.8,10.5c0,0.2,0,0.4,0.3,0.4c0,0.3-0.3,0.5-0.5,0.7
			c-0.6-1.9-1.4-3.7-2.6-5.2c-0.2,0-0.3-0.1-0.4-0.2c-0.4-0.7-1.1-1.2-1.6-1.8c-1.8-1.8-4-2.7-6.6-2.7c-1.8,0-3.4,0.6-4.8,1.6
			C133.8,65.4,133.3,66.1,132.6,66.7z"/>
		<path fill="#505050" stroke="#505050" stroke-miterlimit="10" d="M153.2,76.5c-0.5-0.3-0.4-0.8-0.4-1.2c0-1.4-0.1-2.9-0.5-4.3
			c-0.7-2.1-1.5-4.2-3.1-6c-2.3-2.7-5.2-4.3-8.7-4.8c-2.9-0.3-5.5,0.4-7.9,2c-1.6,1.1-2.7,2.6-3.5,4.4c-0.1,0.3-0.2,0.9-0.6,0.8
			c-0.5-0.1-0.7-0.6-0.8-1c0.3,0,0.4-0.2,0.5-0.4c0.6-1.3,1.4-2.5,2.4-3.5c2.7-2.6,6-3.7,9.9-3.3c3.2,0.4,5.8,1.7,8.1,3.7
			c1.6,1.4,2.8,3.1,3.6,5c0.9,2.2,1.5,4.5,1.2,6.9C153.3,75.4,153.3,75.9,153.2,76.5z"/>
		<path fill="#474747" d="M153.2,76.5c0-0.5,0.1-1.1,0.2-1.6c0.4-2.4-0.2-4.7-1.2-6.9c-0.8-1.9-2-3.6-3.6-5c-2.3-2-4.9-3.4-8.1-3.7
			c-3.9-0.4-7.2,0.7-9.9,3.3c-1,1-1.9,2.2-2.4,3.5c-0.1,0.2-0.2,0.4-0.5,0.4c-0.3-0.2-0.3-0.5-0.3-0.8c0.8-1.4,1.7-2.9,2.9-4
			c2.3-2,5-3.2,8.2-3.2c4.7-0.1,8.5,1.7,11.5,5c2.3,2.5,3.6,5.4,4,8.7c0.2,1.3,0.1,2.6,0,3.8c0,0.2-0.1,0.4-0.3,0.6
			C153.6,76.5,153.4,76.5,153.2,76.5z"/>
		<path fill="#D8D8D8" d="M146.9,69.6c-0.4,0.8-0.1,1.6,0,2.4c0.2,2.2,0.6,4.4,1,6.6c0.1,0.4,0.2,0.8-0.1,1.1
			c-0.6-0.1-0.9,0.3-1.3,0.5c-0.5,0.3-1.1,0.4-1.7,0.1c0.8-0.3,1.4-0.7,1.9-1.3c0.4-0.4,0.4-0.8-0.2-1.1c0.1-0.4-0.1-0.7-0.1-1.1
			c0.3,0,0.5-0.1,0.6-0.3c0.1-0.3-0.1-0.5-0.3-0.7c-0.5-0.4-1.1-0.6-1.7-0.9c0-0.2,0-0.4-0.2-0.6c-0.7-0.9-1-2-1.2-3.1
			c-0.1-0.6-0.4-1.2-0.8-1.7c-0.2-0.3-0.4-0.7-0.4-1.1c0.3,0.2,0.4,0.7,0.9,0.5c0.4-0.2,0.2-0.7,0.2-1c0-0.7,0-1.5,0.1-2.3
			C144.7,67,145.8,68.3,146.9,69.6z"/>
		<path fill="#7D7D7D" d="M121.8,67.5C121.8,67.5,121.8,67.4,121.8,67.5c-0.3-0.9-0.3-0.9-1-0.2c-0.6,0.6-0.9,1.3-1.4,2
			c0.5-3,0.4-6.2,4.3-7.6c-0.8-0.5-1.6-0.5-2.2-1c-0.6-0.4-1-1.1-1.5-1.7c2.2,0.2,4.3,0.1,6.4-0.2c0,0.2-0.1,0.3-0.3,0.5
			c-0.8,1-1.6,2-2.2,3.1c-0.7,1.4-1.2,2.8-1.6,4.3C122.1,67,122.3,67.4,121.8,67.5z"/>
		<path fill="#7D7D7D" d="M155,89.6c0.1-1.5-0.6-2.5-1.9-3.2c1.6-1.5,2.9-3.2,3.7-5.2c0.1-0.1,0.1-0.3,0.4-0.3
			c-0.7,1.8,0,3.2,1.2,4.5c0.2,0.3,0.5,0.5,0.7,0.8c0.1,0.1,0.3,0.2,0.2,0.4c-0.1,0.2-0.3,0.2-0.5,0.2c-0.6,0-1.1,0.1-1.7-0.1
			c-0.3-0.1-0.7-0.2-1.1-0.2c0,0,0,0-0.1,0c0,0,0,0,0.1,0c1,1.2,2.2,2.2,3.7,2.8C158.1,89.8,156.5,89.5,155,89.6z"/>
		<path fill="#5F5F5F" d="M151.2,72.6c-0.3,0-0.3-0.2-0.3-0.4c-0.6-5.1-4.5-9.4-9.8-10.5c-2.8-0.6-5.4,0.2-7.7,1.8
			c-1.2,0.8-1.9,1.9-2.7,3c-0.6-0.8-0.2-1.4,0.4-2c1.7-2,3.9-3.3,6.6-3.6c2.9-0.3,5.5,0.3,7.9,1.8c3.3,2.1,5.2,5.1,5.9,8.7
			C151.7,71.8,151.6,72.3,151.2,72.6z"/>
		<path fill="#B3B3B3" d="M152.1,86c-0.3-0.3-0.2-0.6-0.1-0.9c0.4-1.4-0.1-2.7-1-3.8c-0.1-0.2-0.2-0.3-0.2-0.5c0-0.9-0.1-1.8,0-2.6
			c0.2-1.5,0.1-2.9,0.1-4.4c0.4-0.5,0.8-0.9,1.1-1.5c0.4,1.6,0.2,3.1,0.6,4.6c-0.1,0.1-0.2,0.2-0.2,0.3c0,0.6-0.1,1.2-0.1,1.8
			c-0.1,0.9,0.1,1.8,0.9,2.4c0,0.5-0.2,0.9-0.3,1.4c-0.1,0.5-0.1,1,0.8,0.8C153,84.5,152.7,85.3,152.1,86z"/>
		<path fill="#7D7D7D" d="M132.6,66.7c0.7-0.5,1.1-1.2,1.9-1.8c1.5-1,3-1.6,4.8-1.6c2.6,0,4.8,0.9,6.6,2.7c0.6,0.6,1.2,1.1,1.6,1.8
			c0.1,0.2,0.2,0.2,0.4,0.2c0,0.6-0.3,1.2-0.3,1.9c-0.7-0.8-1.4-1.6-2-2.4c-0.8-0.9-1.5-1.8-2.2-2.7c-0.2-0.2-0.3-0.4-0.4,0
			c-0.2-0.1-0.3-0.1-0.5-0.2c-2.5-0.9-4.9-0.8-7.3,0.6c-0.9,0.6-1.5,1.4-2.3,2.2C132.8,67.2,132.6,67,132.6,66.7z"/>
		<path fill="#8B8A8B" d="M133.1,67.5c0.7-0.7,1.3-1.6,2.3-2.2c2.3-1.4,4.7-1.5,7.3-0.6c0.2,0.1,0.3,0.1,0.5,0.2c0,0.6,0,1.2,0,1.8
			c-0.5,0-0.8-0.3-1.3-0.4c-0.2,0-0.5-0.3-0.8,0c-0.3-0.3-0.5-0.5-0.7-0.8c-0.3-0.4-0.5-0.3-0.7,0.1c-1-0.1-2,0.1-3,0.6
			c-0.1-0.1-0.2-0.4-0.3,0c-0.9,0-1.3,0.7-1.8,1.2c-0.4,0.4-0.5,0.9-0.9,1.2C133.3,68.2,133.2,67.8,133.1,67.5z"/>
		<path fill="#474747" stroke="#474747" stroke-miterlimit="10" d="M153.7,81.2c0.7-0.2,0.7-0.8,0.9-1.3c1.4-3.4,1.5-6.9,0.6-10.3
			c-0.4-1.6-1-3.3-2.1-4.7c-0.2-0.3-0.4-0.6-0.5-1c0.9,0.5,1.5,1.2,1.9,2c1.6,3.1,2.1,6.4,1.8,9.8c-0.2,2.5-1.1,4.9-2.6,7.1
			c-0.1,0.2-0.2,0.4-0.5,0.3c-0.2-0.1,0-0.3,0-0.5C153.4,82.1,153.5,81.7,153.7,81.2z"/>
		<path fill="#6A6A6A" d="M121.8,67.5c0.5-0.1,0.3-0.5,0.4-0.8c0.4-1.5,0.9-3,1.6-4.3c0.6-1.1,1.4-2.2,2.2-3.1
			c0.1-0.1,0.3-0.3,0.3-0.5c0.6-0.1,1.2-0.3,1.9-0.4c-0.3,0.7-0.9,1.1-1.4,1.6c-1.2,1.5-2.2,3-2.9,4.8c-0.1,0.2-0.2,0.3,0,0.5
			c-0.6,1.2-1.3,2.4-1.5,3.7c0,0.3-0.1,0.5-0.2,0.8C122,69,121.8,68.3,121.8,67.5z"/>
		<path fill="#474747" stroke="#474747" stroke-miterlimit="10" d="M138,56.6c-0.4,0.6-1,0.3-1.5,0.4c-2.4,0.4-4.5,1.3-6.4,2.8
			c-2.1,1.6-3.5,3.7-4.4,6.1c-0.1,0.2-0.1,0.4-0.3,0.5c-0.7-1.1,0-2,0.5-2.8c1.5-2.7,3.7-4.7,6.5-6.1c1.1-0.6,2.4-0.6,3.6-0.7
			C136.7,56.5,137.4,56.6,138,56.6z"/>
		<path fill="#6A6A6A" d="M157.1,80.9c-0.2,0-0.3,0.1-0.4,0.3c-0.8,2-2.1,3.7-3.7,5.2c-0.1-0.1-0.3-0.1-0.4-0.2
			c0.1-0.4,0.3-0.7,0.6-1c0.7-0.3,1-1,1.4-1.5c1.7-2.4,2.6-4.9,2.9-7.8c0.2-1.7,0.1-3.4-0.1-5.1c-0.1-0.7-0.5-1.3-0.5-2.1
			c0.3,0,0.3,0.3,0.5,0.5c1,1.9,1.1,3.8,0.9,5.9c-0.2,1.8-0.7,3.6-1.1,5.4C157.2,80.7,157.2,80.8,157.1,80.9z"/>
		<path fill="#9E9E9E" d="M133.6,68.5c0.5-0.3,0.6-0.8,0.9-1.2c0.5-0.5,0.9-1.2,1.8-1.2c0.1,1,0.2,2,0.5,3.1c0.2,1,0.8,1.9,1.1,3
			C136.3,71,134.4,70.3,133.6,68.5z"/>
		<path fill="#5F5F5F" d="M157,68.9c0,0.7,0.4,1.4,0.5,2.1c0.2,1.7,0.3,3.3,0.1,5.1c-0.3,2.8-1.3,5.4-2.9,7.8
			c-0.4,0.6-0.7,1.2-1.4,1.5c0.3-1,1-1.7,1.5-2.6c1.4-2.3,2.2-4.7,2.4-7.4c0.2-2.5-0.1-4.9-1-7.2c-0.1-0.2-0.1-0.4,0.1-0.6
			C156.6,67.9,157,68.3,157,68.9z"/>
		<path fill="#9E9E9E" d="M136.7,66.1c0.9-0.4,1.9-0.6,3-0.6c-0.4,1.4-0.5,2.8-0.3,4.3l0,0C138,68.8,137.1,67.7,136.7,66.1z"/>
		<path fill="#D8D8D8" d="M126.1,68.3c-0.4,0.8-0.8,1.6-0.9,2.6c0,0.3-0.1,0.7-0.5,0.9c-0.4,0.1-0.5-0.3-0.8-0.5
			c-0.5-0.3-0.6-1-1.2-1.2c0-0.3,0.1-0.7,0.2-1c0.3,0,0.4,0.2,0.5,0.4c0.5,0.6,1,0.6,1.5,0c0.4-0.5,0.5-1.1,0.8-1.6
			C125.9,68.1,126,68.2,126.1,68.3z"/>
		<path fill="#5F5F5F" d="M124,65.3c-0.2-0.1-0.1-0.3,0-0.5c0.6-1.8,1.6-3.3,2.9-4.8c0.5-0.5,1.1-1,1.4-1.6c0.4-0.1,0.7-0.2,1.1-0.3
			c0,0.3-0.2,0.5-0.3,0.6c-1.3,1-2.2,2.3-3.2,3.5c-0.6,0.8-0.9,1.7-1.3,2.6C124.3,65,124.2,65.2,124,65.3z"/>
		<path fill="#9E9E9E" stroke="#9E9E9E" stroke-width="0.5" stroke-miterlimit="10" d="M152.9,81.5c-0.8-0.6-1-1.5-0.9-2.4
			c0.1-0.6,0.2-1.2,0.1-1.8c0-0.1,0.1-0.3,0.2-0.3c0.7-0.1,0.9,0.3,0.8,0.9C153.2,79,153.3,80.3,152.9,81.5z"/>
		<path fill="#7D7D7D" d="M152.2,60.2c0.1-0.1,0.2-0.1,0.3-0.1c0.2,0.1,0.3,0.2,0.5,0.2c0,0.3,0,0.6,0,0.8c-0.2,0.4-0.8,0.5-1,1
			c-0.3,0-0.5,0-0.8,0c-0.8,0-1.5-0.6-1.5-1.4c0.2-0.1,0.5-0.3,0.7-0.2c0.1,0.8,0.7,1.1,1.3,0.8C152.1,61,152.3,60.6,152.2,60.2z"/>
		<path fill="#CACACA" d="M125.7,67.9c-0.3,0.5-0.4,1.1-0.8,1.6c-0.5,0.6-1,0.6-1.5,0c-0.2-0.2-0.2-0.4-0.5-0.4
			c0-0.3,0.1-0.6,0.2-0.8c0.2,0,0.3,0,0.5,0.1c0.7,0.4,0.9,0.4,1.4-0.2c0.2-0.2,0.2-0.5,0.5-0.6C125.6,67.7,125.7,67.8,125.7,67.9z"
			/>
		<path fill="#6A6A6A" d="M149.6,60.7c0.1,0.8,0.7,1.4,1.5,1.4c0.3,0,0.5,0,0.8,0c0.2,0,0.5,0,0.7,0c0,0.4-0.4,0.4-0.6,0.5
			c-0.3,0.1-0.7,0.1-1,0.3c-0.8-0.2-1.4-0.8-2-1.2c0-0.3-0.1-0.6-0.1-0.9c0-0.3-0.2-0.7,0.3-0.8C149.4,60.2,149.2,60.6,149.6,60.7z"
			/>
		<path fill="#B3B3B3" d="M125.5,67.6c-0.4,0-0.4,0.4-0.5,0.6c-0.5,0.6-0.8,0.6-1.4,0.2c-0.1-0.1-0.3-0.1-0.5-0.1
			c0-0.4,0.3-0.8,0.4-1.2c0.5,0.3,1.1,0.2,1.5-0.1C125.2,67.2,125.4,67.4,125.5,67.6z"/>
		<path fill="#9E9E9E" d="M141,66.3c0.3-0.3,0.5,0,0.8,0c0.4,0.1,0.8,0.4,1.3,0.4c0,0.6,0,1.1,0,1.8C142.3,67.7,141.6,67,141,66.3z"
			/>
		<path fill="#9E9E9E" d="M152.2,60.2c0.1,0.5-0.1,0.8-0.6,1.1c-0.6,0.3-1.2,0-1.3-0.8c0.3-0.2,0.7-0.3,1.1-0.3
			C151.7,60.1,152,60.1,152.2,60.2z"/>
		<path fill="#9E9E9E" d="M125.1,66.9c-0.5,0.4-1,0.4-1.5,0.1c0.2-0.6,0.6-1.2,1.1-1.8C124.8,65.9,124.9,66.4,125.1,66.9z"/>
		<path fill="#474747" d="M148,60.6c-0.4-0.2-0.4-0.5-0.3-0.9c0.2-0.9,0.5-1.7,1.5-2c-0.1,0.8-0.8,1.3-0.9,2.1
			C148.2,60,148,60.3,148,60.6z"/>
		<path fill="#3F3F3F" d="M154.4,62.2c0.4,0.1,0.9,0.2,0.9,0.5c0,0.4-0.6,0.4-0.9,0.6c-0.3,0.1-0.6,0.2-0.9,0.2
			C153.6,62.9,154.3,62.8,154.4,62.2z"/>
		<path fill="#474747" d="M154.4,62.2c-0.1,0.6-0.8,0.7-0.9,1.2c-0.3,0.1-0.7-0.1-1,0.1c0,0-0.1-0.1-0.1-0.1
			C153,63,153.5,62.3,154.4,62.2z"/>
		<path fill="#5F5F5F" d="M151,62.9c0.3-0.3,0.7-0.2,1-0.3c0.2-0.1,0.6-0.1,0.6-0.5c0.3,0,0.5,0,0.2,0.4c-0.3,0.4-0.9,0.3-1.3,0.7
			C151.4,63.2,151.2,63.1,151,62.9z"/>
		<path fill="#5F5F5F" d="M149.2,60c-0.5,0.1-0.3,0.5-0.3,0.8c0,0.3,0.1,0.6,0.1,0.9c-0.2-0.1-0.3-0.2-0.4-0.4c0-0.4,0-0.9,0.1-1.3
			c0-0.2,0-0.5,0.3-0.5C149.3,59.5,149.1,59.8,149.2,60z"/>
		<path fill="#6A6A6A" d="M152.9,61.1c0-0.3,0-0.6,0-0.8c0.2,0,0.5,0,0.5,0.2C153.4,60.8,153.2,61,152.9,61.1z"/>
		<path fill="#E0E0E0" d="M137.1,68.3c0,0-0.1-0.1-0.1-0.1c0,0,0,0,0.1-0.1C137.1,68.2,137.1,68.2,137.1,68.3L137.1,68.3z"/>
		<path fill="#9E9E9E" d="M139.3,69.8C139.3,69.8,139.4,69.9,139.3,69.8C139.4,69.9,139.3,69.9,139.3,69.8
			C139.3,69.9,139.3,69.8,139.3,69.8L139.3,69.8z"/>
		<path fill="#C1C0C0" d="M145.7,110.2c-0.2-0.4-0.4-0.8-0.9-0.7c-0.5,0.1-0.5,0.6-0.5,1c0,0,0,0.1,0,0.1c0,0.9-0.2,1.1-1.2,1.2
			c-1.1,0.1-2.2-0.2-3.2-0.5c-0.4-0.1-0.8-0.3-1.1,0.1c-0.3,0.4-0.3,0.8,0,1.2c0,0,0.1,0,0.1,0.1c0,0-0.1,0-0.1,0.1
			c-1,0.1-1.2,0.3-1,1.1c0,0.1,0.1,0.2,0.1,0.3c1,0.6,2.3,0.5,3.4,0.9c-0.3,0.4-0.6,0.2-0.9,0.2c-1-0.2-1.9-0.5-2.8-0.8
			c-0.5,0.5-0.4,0.9,0.1,1.3c0.4,0.3,0.8,0.5,1.2,0.8c-0.5,0.1-0.9,0-1,0.4c-0.1,0.4,0.3,0.6,0.6,0.9c0.7,0.5,1.5,0.7,2.4,0.8
			c0.6,0.1,1.3,0.1,1.9,0c-0.1-0.6,0.4-0.9,0.6-1.4c0.8-1.4,1.7-2.8,2.5-4.2c0.1-0.2,0.3-0.4,0.5-0.5
			C146.3,111.6,146.1,110.9,145.7,110.2z M139.1,112.8c1,0.2,2,0.4,3,0.6c0,0.1,0,0.1,0,0.2C141,113.7,140.1,113.3,139.1,112.8z"/>
		<path fill="#B3B3B3" d="M142.8,118.5c-0.1-0.6,0.2-0.9,0.5-1.3c0.7-1.6,1.7-3,2.6-4.3c0.2-0.2,0.3-0.4,0.5-0.5
			c0.5,2.4-0.4,4.7-2.5,5.8C143.6,118.4,143.2,118.5,142.8,118.5z"/>
		<path fill="#9E9E9E" d="M137.9,114.2c1,0.6,2.3,0.5,3.4,0.9c-0.3,0.4-0.6,0.2-0.9,0.2c-1-0.2-1.9-0.5-2.8-0.8
			C137.7,114.4,137.8,114.3,137.9,114.2z"/>
		<path fill="#9E9E9E" d="M138.7,112.7c0,0,0.1,0,0.1,0.1c0,0-0.1,0-0.1,0.1C138.7,112.8,138.7,112.7,138.7,112.7z"/>
		<path fill="#505050" d="M105.1,96.4c0,0-0.1,0.1-0.1,0.1C105,96.5,105.1,96.4,105.1,96.4z"/>
		<path fill="#858585" d="M39.6,91.7c-0.5,0-1.1,0-1.6,0c-1-0.1-1.5-0.8-1.1-1.6c0.5-1.1,1.1-2.2,1.6-3.3c0.2-0.4,0.6-0.7,1.1-0.7
			c0.5,0,0.8,0.3,1,0.7c0.5,1.1,1.1,2.1,1.6,3.2c0.5,1,0,1.7-1.2,1.8C40.6,91.7,40.1,91.7,39.6,91.7z"/>
		<path fill="#D8D8D8" stroke="#D8D8D8" stroke-miterlimit="10" d="M51.1,91.5c0.3,0.6,0.7,1.1,0.9,1.6c0.9,1.6,1.8,3.1,2.5,4.7
			c1,2.1,0.6,4.7-1.7,5.8c-0.9,0.4-3.2,0.4-3.9-0.4c0.7,0.1,1.4,0.2,2,0.1c2.2-0.5,3.4-2.6,2.7-4.6c-0.8-2.1-1.6-4.3-2.4-6.4
			C51.1,92.1,50.9,91.9,51.1,91.5z"/>
		<path fill="#D8D8D8" stroke="#D8D8D8" stroke-miterlimit="10" d="M26.8,103.8c2.9-0.3,4.7-1.8,5.5-4.6c0.3-1.2,1-1.9,1.9-1.8
			c0.8,0.1,1.6,0.1,2.6,0.5c-0.7,0-1.3,0-1.8,0c-0.9-0.1-1.5,0.3-1.8,1.1c-0.5,1.1-0.9,2.2-1.7,3.2
			C30.4,103.7,28.6,104.7,26.8,103.8z"/>
		<path fill="#D8D8D8" stroke="#D8D8D8" stroke-miterlimit="10" d="M36.1,90.6c0.1-1.5,0.5-2.8,1-4.2c0.3-0.7,0.5-1.4,1.1-1.9
			c0.4-0.5,1-0.8,1.6-0.5c0.6,0.3,0.7,0.9,0.7,1.5c-1.1-0.6-1.7-0.4-2.3,0.9C37.5,87.8,36.8,89.2,36.1,90.6z"/>
		<path fill="#D8D8D8" d="M50.9,91.3C50.9,91.3,50.9,91.3,50.9,91.3C50.9,91.2,50.9,91.2,50.9,91.3C50.9,91.2,50.9,91.3,50.9,91.3
			C50.9,91.3,50.9,91.3,50.9,91.3z"/>
		<path fill="#D8D8D8" stroke="#D8D8D8" stroke-miterlimit="10" d="M69.5,94.1c1,0.2,1.7-0.4,2.3-1.1c1.7-2.2,3.2-4.6,4.8-6.9
			c0.2-0.3,0.5-0.7,0.7-1.1c0.2,0.2,0,0.3-0.1,0.4c-1.2,2.4-2.5,4.8-3.8,7.2c-0.5,0.9-1.1,1.6-2,2c-1.2,0.6-2.7-0.1-3.2-1
			C68.3,93.7,69.2,94,69.5,94.1z"/>
		<path fill="#D8D8D8" d="M68.2,93.6C68.2,93.6,68.2,93.6,68.2,93.6C68.2,93.6,68.2,93.6,68.2,93.6L68.2,93.6z"/>
		<path fill="#D8D8D8" stroke="#D8D8D8" stroke-miterlimit="10" d="M58.8,87.1c0.8,0.8,1.2,1.8,1.7,2.8c0.8,1.4,1.6,2.7,2.3,4.2
			c0.5,1,0.5,2-0.2,3c-1,1.4-2.4,1.5-3.7,0.2c0.6,0.1,1.1,0,1.6-0.2c1.2-0.5,1.5-1.2,1.1-2.4c-0.8-2.3-1.7-4.6-2.5-6.9
			C58.9,87.6,58.9,87.4,58.8,87.1z"/>
		<path fill="#D8D8D8" stroke="#D8D8D8" stroke-miterlimit="10" d="M86.3,97.1c0.5,0,0.9,0.2,1.3,0.3c2.5,0.8,5,1.7,7.6,2.2
			c1.5,0.3,3.2-0.4,4-1.6c1.7-2.7,3.4-5.4,5.1-8.2c0.1-0.2,0.2-0.3,0.4-0.4l0,0c-0.1,0.7-0.4,1.3-0.7,1.9c-1.3,2.7-2.5,5.5-4.3,8
			c-0.5,0.7-1.1,1.3-1.9,1.6c-0.6,0.2-1.2,0.3-1.8,0.1c-3.2-1.3-6.3-2.6-9.5-3.9C86.4,97.2,86.4,97.1,86.3,97.1L86.3,97.1z"/>
		<path fill="#D8D8D8" d="M104.7,89.5c0-0.1,0-0.2,0.1-0.3l0,0C104.8,89.3,104.8,89.4,104.7,89.5L104.7,89.5z"/>
		<path fill="#D8D8D8" d="M85.5,96.7C85.5,96.7,85.5,96.7,85.5,96.7C85.5,96.7,85.4,96.7,85.5,96.7C85.4,96.7,85.4,96.7,85.5,96.7
			C85.4,96.7,85.5,96.7,85.5,96.7z"/>
		<path fill="#D8D8D8" d="M86,96.9c0.1,0,0.2,0,0.3,0.1l0,0C86.2,97.1,86.1,97,86,96.9L86,96.9z"/>
		<path fill="#D8D8D8" d="M86,96.9c-0.1,0-0.1,0-0.2-0.1c0,0,0,0,0-0.1C85.9,96.9,86,96.9,86,96.9L86,96.9z"/>
		<path fill="#D8D8D8" d="M104.8,89.2c0-0.1,0-0.1,0.1-0.2c0,0,0,0,0.1,0C104.9,89.1,104.9,89.1,104.8,89.2L104.8,89.2z"/>
		<path fill="#858585" d="M115.4,94.7c-0.4,0-0.8,0-1.2,0c-0.7-0.1-1.1-0.6-0.8-1.2c0.4-0.9,0.9-1.7,1.3-2.6
			c0.2-0.3,0.4-0.5,0.8-0.5c0.4,0,0.7,0.2,0.8,0.6c0.4,0.8,0.8,1.6,1.2,2.5c0.3,0.7,0,1.3-0.9,1.3C116.2,94.7,115.8,94.7,115.4,94.7
			z"/>
		<path fill="#D8D8D8" d="M113.4,99.1c-0.5,0-0.8,0-1.2,0c-1.1,0-1.4,0.2-1.7,1.2c-0.2,0.7-0.6,1.3-1,1.9c-0.8,1.4-2,2-3.7,1.7
			c0-0.2,0.2-0.2,0.4-0.2c1.9-0.3,3-1.6,3.5-3.2c0.1-0.4,0.2-0.8,0.5-1.1c0.3-0.4,0.8-0.7,1.3-0.6C112.1,98.8,112.7,98.8,113.4,99.1
			z"/>
		<path fill="#D8D8D8" d="M116.1,90.1c-0.8-0.4-1.3-0.2-1.7,0.6c-0.4,1-0.9,1.9-1.4,2.9c-0.1,0.2-0.1,0.4-0.4,0.4
			c0.3-1.6,0.7-3.2,1.7-4.6c0.3-0.4,0.7-0.6,1.2-0.4C116,89.1,116.2,89.5,116.1,90.1z"/>
		<path fill="#D8D8D8" d="M124.1,94.6c0,0-0.1-0.1-0.1-0.1c0,0,0,0,0.1,0C124.1,94.5,124.1,94.5,124.1,94.6L124.1,94.6z"/>
		<path fill="#D8D8D8" d="M112.6,94.3C112.6,94.3,112.6,94.3,112.6,94.3C112.6,94.3,112.6,94.3,112.6,94.3
			C112.6,94.3,112.6,94.3,112.6,94.3C112.6,94.3,112.6,94.3,112.6,94.3z"/>
		<path fill="#474747" d="M123.2,91c0.1,0.1,0.1,0.1,0.2,0.2C123.2,91.2,123.2,91,123.2,91z"/>
		<path fill="#E0E0E0" d="M120.8,84.2c0.5,0.4,0.6,1,0.7,1.5c0.4,2.4,2.1,3.7,4.4,4.3c0.2,0.1,0.4,0.1,0.5,0.2
			c1.4,0.2,1.8,1.2,2,2.3c0.2,1.2,0.9,1.9,2,2.3c0.3,0.1,0.6,0.2,0.7,0.5c-1.7-0.2-3-1.1-4.3-2c-2.3-1.5-4.1-3.5-5.5-5.8
			C120.5,86.5,120.4,85.4,120.8,84.2z"/>
		<path fill="#9E9E9E" d="M121.1,81.5c-0.9-0.8-1.4-2.1-1-2.9c0.3,0.5,0,1.3,0.6,1.8c-0.1-0.3-0.1-0.6-0.1-0.8
			c-0.1-0.4-0.2-0.8,0-1.2c0.3-0.6,0.8-0.6,1.2-0.2c-0.8,0.3-1,0.9-0.6,1.9c0.1,0.4-0.2,1,0.6,1C121.6,81.3,121.4,81.5,121.1,81.5z"
			/>
		<path fill="#CACACA" d="M121.2,80.1c-0.4-1.1-0.2-1.6,0.6-1.9c0.2,0,0.4,0,0.6,0c0,0.6,0.2,1.1,0.1,1.7c-0.1,0.2-0.2,0.5-0.4,0.7
			C121.9,80.2,121.5,80.1,121.2,80.1z"/>
		<path fill="#C1C0C0" d="M122.4,78.1c-0.2,0-0.4,0-0.6,0c-0.4-0.4-0.9-0.4-1.2,0.2c-0.2,0.4-0.1,0.8,0,1.2c0.1,0.2,0.1,0.5,0.1,0.8
			c-0.7-0.5-0.4-1.3-0.6-1.8c0.1-0.9,0.7-1.3,1.4-1.7c0,0,0.1,0,0.1,0c0.1,0.4,0.4,0.4,0.7,0.4C122.4,77.6,122.4,77.8,122.4,78.1z"
			/>
		<path fill="#C1C0C0" d="M121.2,80.1c0.3,0.1,0.6,0.2,0.9,0.4c-0.1,0.2-0.2,0.4-0.3,0.5C121,81,121.3,80.5,121.2,80.1z"/>
		<path fill="#B3B3B3" d="M122.4,77.3c-0.3,0-0.6,0-0.7-0.4C122,76.9,122.3,76.8,122.4,77.3z"/>
		<path fill="#E0E0E0" d="M150.2,88.3c-0.1-0.4,0.2-0.8,0.1-1.2c1.2-0.5,2.3-0.7,3.3,0.4c0.1,0.1,0.1,0.2,0.2,0.3
			c-0.4,0.2-0.4,0.7-0.6,1C152.3,88,151.3,87.8,150.2,88.3L150.2,88.3z"/>
		<path fill="#CACACA" d="M153.2,88.8c0.2-0.3,0.2-0.8,0.6-1c1,1.2,0.6,2.8-0.6,3.4c-0.3,0.1-0.4,0.4-0.8,0.4
			c-0.2-0.4,0.3-0.7,0-1.1C153,90,153.3,89.5,153.2,88.8z"/>
		<path fill="#E0E0E0" d="M152.5,90.4c0.3,0.4-0.2,0.7,0,1.1c-0.8,0.4-1.7,0.5-2.6,0.5c0-0.5,0.3-1,0.4-1.5c0.4-0.1,0.8,0.3,1.2,0
			C151.8,90.6,152.2,90.5,152.5,90.4z"/>
		<path fill="#7D7D7D" d="M154.8,90.7c0.4,0.4,0.7,0.8,1.1,1.2c-0.7,0.2-1.4-0.1-2-0.1C154.2,91.4,154.5,91.1,154.8,90.7z"/>
		<path fill="#CACACA" stroke="#CACACA" stroke-width="0.5" stroke-miterlimit="10" d="M125.9,87.8c-1.1,0-2-0.1-2.9-0.8
			c-0.7-0.5-0.9-1.2-0.5-2c0.3-0.7,0.7-1.3,1-2c0.2-0.6,0-1.1,0.3-1.7c0.2,0,0.4,0,0.6,0c-0.3,1.3-0.5,2.7-1.4,3.8
			c-0.3,0.3-0.4,0.8-0.1,1.2c0.4,0.6,1,0.9,1.8,0.8c0.6,0,1.1-0.3,1.4-0.9c0.3-0.6,0.3-1.3,0.5-2c0.1-0.6,0-1.3,0.3-1.9
			c0.2,0.1,0.5,0.2,0.7,0.3c0.4,0.2,0.4,0,0.5-0.3c0.6-0.4,0.9-1.1,1.4-1.7c0,0,0-0.1,0-0.1c0.1,0,0.1-0.1,0.2-0.1
			c0.5-0.4,0.9-1,1-1.7c-0.1-0.2-0.1-0.5-0.2-0.7c0.2-1.1-0.1-2.1-0.6-3c0.6-0.3,1-0.1,1.3,0.5c0.6,1.1,0.6,2.2,0.5,3.3
			c-0.1,1.3-0.9,2.6-1,3.9c-0.3,0.1-0.6,0.2-0.9,0.3c-0.6,0.3-0.8,0.8-0.8,1.4c0,0.6,0.4,1,1,1.1c0.1,0.1,0.2,0.2,0.3,0.2
			c-0.2,1-0.7,1.7-1.7,2.1c-0.4,0-0.9-0.2-1.1-0.5c-0.3-0.3,0.3-0.7,0.1-1.1C126.6,86.5,126.3,87.2,125.9,87.8z"/>
		<path fill="#181818" d="M130.4,77.9c0.1,0.2,0.1,0.5,0.2,0.7c-0.5,0-0.4-0.5-0.7-0.7c-0.2-0.3-0.5-0.5-0.7-0.8
			c-1-1.3-2.7-1.6-4.1-0.7c-0.2,0.1-0.4,0.3-0.7,0.2c0.4-0.4,0.3-0.6-0.3-0.9c-0.7-0.3-1-1.1-0.7-1.8c0.1-0.2,0.1-0.4,0.4-0.4
			c0.2,0,0.3,0.2,0.3,0.4c0.1,0.7,0.4,1.3,1.1,1.6c-0.4-1-1.2-1.9-0.2-3c0.3,0,0.5,0,0.7,0.2c-0.4,0.7-0.7,1.4-0.1,2.1
			c0.2,0.3,0.5,0.7,1,0.5c-0.2-0.2-0.2-0.5-0.4-0.6c-0.1-0.6-0.2-1.2,0.2-1.8c0.3-0.1,0.4-0.5,0.8-0.4c0.1,0,0.4-0.1,0.4,0.1
			c0.1,0.2-0.1,0.3-0.2,0.4c-0.4,0.3-0.6,0.6-0.5,1.1c0,0.2-0.1,0.3,0.1,0.5c0,0.1,0,0.3,0.2,0.3c0.2,1,1.2,1,1.8,1.5
			c0,0.2,0.2,0.3,0.3,0.4C129.8,77.2,130,77.6,130.4,77.9z"/>
		<path fill="#CACACA" d="M124.4,76.7c0.3,0.1,0.5-0.1,0.7-0.2c1.4-0.9,3.1-0.5,4.1,0.7c0.2,0.3,0.5,0.5,0.7,0.8
			c0,0.3,0,0.5,0.1,0.8c0,0.2,0.1,0.4-0.2,0.4c-0.1-0.1,0-0.3-0.2-0.4c0,0,0-0.1,0-0.1c0-0.1,0-0.2-0.1-0.3l0,0
			c0-0.1-0.1-0.1-0.1-0.2c0-0.1-0.1-0.2-0.3-0.3c-0.1-0.1-0.1-0.1-0.2-0.2c0.1-0.3-0.1-0.4-0.3-0.6c-0.7-0.7-1.6-0.7-2.5-0.5
			c-0.8,0.2-1.3,0.7-1.6,1.5c-0.3,0.9-0.1,1.7,0.4,2.5c-0.4,0-0.8,0-1.2,0c0.6-0.9,0.4-1.8,0.2-2.7
			C123.9,77.6,123.9,77.1,124.4,76.7z"/>
		<path fill="#B3B3B3" stroke="#B3B3B3" stroke-width="0.5" stroke-miterlimit="10" d="M126.1,81.9c0,1.1-0.1,2.3-0.5,3.4
			c-0.3,0.9-0.8,1.2-1.6,1.2c-0.7,0-1-0.5-0.6-1.1c0.5-0.7,0.7-1.4,0.9-2.1c0.2-0.6,0.4-1.2,0.9-1.6
			C125.6,81.6,125.9,81.6,126.1,81.9z"/>
		<path fill="#C1C0C0" stroke="#C1C0C0" stroke-width="0.5" stroke-miterlimit="10" d="M124.4,81.3c0.3,0.1,0.6,0.2,0.9,0.2
			c-0.5,0.4-0.7,1-0.9,1.6c-0.2,0.8-0.5,1.5-0.9,2.1c-0.4,0.6-0.1,1.1,0.6,1.1c0.7,0,1.2-0.3,1.6-1.2c0.4-1.1,0.5-2.2,0.5-3.4
			c0.2,0.1,0.5,0.3,0.7,0.4c-0.3,0.6-0.2,1.3-0.3,1.9c-0.1,0.7-0.2,1.4-0.5,2c-0.3,0.6-0.8,0.9-1.4,0.9c-0.8,0-1.4-0.3-1.8-0.8
			c-0.3-0.4-0.2-0.8,0.1-1.2C123.9,84,124.1,82.6,124.4,81.3z"/>
		<path fill="#8B8A8B" d="M123.8,80.8c0.4,0,0.8,0,1.2,0c0.3,0.1,0.6,0.1,0.8,0.2c0.1,0.1,0.2,0.2,0.3,0.2c0.7,0.3,1.2,1,1.9,1.2
			c0,0.3-0.1,0.5-0.5,0.3c-0.2-0.1-0.5-0.2-0.7-0.3c-0.2-0.1-0.5-0.3-0.7-0.4c-0.2-0.3-0.5-0.3-0.8-0.3c-0.3-0.1-0.6-0.2-0.9-0.2
			c-0.2,0-0.4,0-0.6,0c-0.2,0-0.5,0-0.7,0C123.2,80.9,123.6,80.9,123.8,80.8z"/>
		<path fill="#9E9E9E" d="M152.5,90.4c-0.3,0.1-0.7,0.2-1,0.2c0.1-0.2,0.3-0.3,0.4-0.5c0.5-0.6,0.4-1-0.3-1.5
			c-0.1-0.1-0.2-0.1-0.3-0.1c-0.3-0.3-0.7-0.1-1.1-0.2c1.1-0.5,2.1-0.4,2.9,0.5C153.3,89.5,153,90,152.5,90.4z"/>
		<path fill="#C1C0C0" d="M150.3,88.3c0.4,0.1,0.8-0.1,1.1,0.2c-0.3,0.4-0.8,0.2-1.2,0.4c-0.2,0-0.4,0.2-0.5,0
			C149.6,88.6,149.8,88.4,150.3,88.3C150.2,88.3,150.3,88.3,150.3,88.3z"/>
		<path fill="#C1C0C0" d="M102.8,75.8c-0.5,1-0.1,1.7,0.3,2.5c0.1,0.2,0.4,0.5,0.1,0.7c-0.3,0.2-0.6,0.2-0.9,0
			c-1.7-0.8-2.1-3.3-0.6-4.4c2.6-1.8,5.5-2.4,8.6-1.7c0.5,0.1,0.9,0.4,1.3,0.8c-1.2,0.4-1.5,1.4-1.6,2.5c0,0.4-0.1,0.8-0.1,1.2
			c-0.1,0.5-0.4,0.8-1,0.9c-0.5,0.1-0.8-0.3-1-0.7c-0.5-1-0.5-2-0.4-3.1c-0.4,0.5-0.5,1-0.4,1.6c0.1,0.5,0.2,1,0.4,1.4
			c0.3,0.5,0.2,0.9-0.3,1.1c-0.5,0.3-1,0.1-1.3-0.4c-0.5-0.7-0.6-1.6-0.6-2.4c0-0.3,0-0.6-0.1-0.8c-0.6,0.9-0.4,1.9,0,2.8
			c0.1,0.3,0.7,0.6,0.1,0.9c-0.5,0.3-1,0.2-1.4-0.2c-0.5-0.6-0.8-1.3-0.9-2.1C102.9,76.4,102.9,76.2,102.8,75.8z"/>
		<path fill="#D8D8D8" d="M136.6,89.9c-0.3-0.5-0.7-0.9-1-1.4c0.2-0.3,0.2-0.7,0.2-1.1c0.2-0.8,0.3-1.7,0.3-2.6c0-0.2,0-0.5-0.3-0.6
			c-0.2-0.1-0.4,0.2-0.5,0.4c-0.1,0.2-0.3,0.3-0.5,0.2c-0.2-0.3-0.4-0.5-0.6-0.8c0.8-1.6,1.1-3.3,1.9-4.9c0.5-1,2.1-1.8,3.3-1.7
			c0.4,0,0.6,0.2,0.7,0.6c0,0.2-0.2,0.2-0.3,0.4c-1,0.5-1.9,1.1-2.4,2.2c-0.2,0.2-0.3,0.4-0.3,0.6c-0.2,0.2-0.2,0.4-0.2,0.6
			c-0.4,1.2,0.1,2.3,0.7,3.4c-0.2,0.1-0.4,0.3-0.6,0.4c-0.6,0.5-0.4,1.2-0.5,1.8c-0.1,0.4-0.1,1,0.5,1.2c0.6,0.2,1-0.2,1.4-0.5
			c0.1-0.1,0.1-0.2,0.2-0.3c0.5-0.7,0.3-1.4,0.4-2.2c0.3,0,0.7-0.1,1-0.1C139.9,87.8,139,89.1,136.6,89.9z"/>
		<path fill="#181818" d="M137.1,81.2c0.1-0.2,0.1-0.5,0.3-0.6c0.7-0.4,1.3-0.9,2.1-1.2c0.3-0.1,0.7-0.2,1-0.3c0.7-0.1,1.4,0,2,0.1
			c0.4,0.1,0.6,0.6,1.1,0.3c0.2-0.1,0.4-0.2,0.5-0.4c0.5-0.3,0.3-0.8,0.5-1.2c0.1-0.2,0-0.7,0.5-0.6c0.5,0.1,0.6,0.4,0.4,0.9
			c-0.2,0.6-0.6,1.1-1.1,1.5c0.6,0.1,0.8-0.2,1-0.5c0.3-0.4,0.5-0.9,1-1.1c0.6,0.3,0.5,0.7,0.2,1.1c-0.5,0.6-1.2,1-1.9,1.3
			c0.6,0.3,1.2,0.2,1.7-0.1c0.4-0.2,0.8-0.6,1.3-0.5c0.2,0.3,0.2,0.6,0,0.9c-0.7,0.4-1.5,0.6-2.3,0.4c-0.6-0.1-0.5,0.2-0.5,0.6
			c-0.2,0-0.3-0.2-0.4-0.4c-0.6-0.7-1.3-1.3-2.2-1.4c-1.4-0.4-2.7-0.1-3.9,0.6c0,0-0.1,0.1-0.1,0.1c-0.1,0.1-0.2,0.1-0.3,0.2
			C137.6,80.9,137.3,81,137.1,81.2z"/>
		<path fill="#D8D8D8" d="M130.5,82.6c0.2-1.4,0.9-2.6,1-3.9c0.1-1.1,0.1-2.3-0.5-3.3c-0.3-0.5-0.7-0.7-1.3-0.5
			c-0.3-0.5-0.9-0.7-1.4-0.9c1.9-0.7,3.5,0.3,3.8,2.2c0.4,2.2-0.1,4.4-0.7,6.5C131.2,82.7,130.8,82.7,130.5,82.6z"/>
		<path fill="#8B8A8B" d="M130.5,82.6c0.3,0,0.7,0,1,0c1,0.2,1.9,0.9,2.7,1.4c0.2,0.3,0.4,0.5,0.6,0.8c0,0.1,0,0.1,0,0.2
			c-0.2,0-0.3-0.1-0.4-0.2c-0.5-0.5-1-0.9-1.7-1.1c-0.4-0.1-0.7-0.3-1.1-0.4c-0.6-0.1-1.2,0-1.5,0.6c-0.2,0.1-0.3,0.3-0.2,0.5
			c0,0.3,0.2,0.6,0,0.9c-0.6-0.2-1-0.6-1-1.1c0-0.6,0.3-1.1,0.8-1.4C129.9,82.8,130.2,82.8,130.5,82.6z"/>
		<path fill="#7D7D7D" d="M144.8,74.9c0.6,0.3,1.2,0.5,1.7,0.9c0.2,0.2,0.4,0.4,0.3,0.7c-0.1,0.3-0.3,0.3-0.6,0.3
			c-1.4-0.8-2.7-1.7-4.2-2.6C143.1,74.4,143.9,74.7,144.8,74.9z"/>
		<path fill="#9E9E9E" d="M128.4,74c0.5,0.3,1,0.4,1.4,0.9c0.6,0.9,0.9,1.9,0.6,3c-0.4-0.3-0.6-0.7-1-1c0.3-0.4,0.2-0.8,0.1-1.2
			c-0.2-1-1.6-1.6-2.5-1c-0.2-0.1-0.1-0.3-0.1-0.5C127.5,74.1,127.9,74,128.4,74z"/>
		<path fill="#8B8A8B" d="M129.8,71.6c-1.2-0.1-2.3,0.3-3.3,0.6c-0.3,0.1-0.6,0.2-0.8-0.1c-0.2-0.4,0.1-0.5,0.4-0.7
			C127.1,70.8,128.9,70.9,129.8,71.6z"/>
		<path fill="#B3B3B3" d="M140.5,79c-0.3,0.1-0.7,0.2-1,0.3c-0.1-0.4,0.3-0.6,0.3-0.9c0.1-0.1,0.3-0.2,0.3-0.4
			c0.8,0,1.5-0.4,2.3-0.1c0.4,0.5,0.9,1,1.3,1.4c-0.5,0.3-0.8-0.2-1.1-0.3c-0.1-0.6-0.6-0.6-1.1-0.6C141.1,78.5,140.5,78.4,140.5,79
			z"/>
		<path fill="#D8D8D8" d="M125.7,75c-0.6-0.7-0.4-1.4,0.1-2.1c0.3,0,0.5,0,0.8,0.2c-0.4,0.6-0.3,1.2-0.2,1.8
			C126,74.7,125.9,74.9,125.7,75z"/>
		<path fill="#9E9E9E" d="M143.6,79.4c-0.4-0.5-0.9-1-1.3-1.4c0.8,0,1.4,0.3,1.8,1C144,79.2,143.8,79.3,143.6,79.4z"/>
		<path fill="#C1C0C0" stroke="#C1C0C0" stroke-miterlimit="10" d="M136.6,89.9c2.4-0.8,3.3-2,3.3-4.5c0.4-0.1,0.9-0.1,1.3,0.1
			c-0.3,1.8-0.7,3.6-2.1,5c-0.4,0.4-0.3,0.8,0.2,1.1c0.7,0.4,1.5,0.5,2.4,0.5c1.1,0.1,2.1-0.1,3.1-0.3c-0.2,0.3-0.4,0.5-0.7,0.6
			c-2.4,0.5-4.7,0.7-7.1,0c-0.4-0.1-0.7-0.4-0.9-0.7c-0.3-0.3,0-0.6,0.2-0.9C137.1,90.7,136.5,90.2,136.6,89.9z"/>
		<path fill="#8B8A8B" d="M125.9,87.8c0.4-0.6,0.7-1.3,1.5-1.6c0.1,0.4-0.4,0.8-0.1,1.1c0.3,0.3,0.7,0.5,1.1,0.5
			c1.6,0.9,3.3,1.5,5.1,1.5c0.4,0,0.7,0,1.1,0c0.4,0,0.6-0.1,0.4-0.5c-0.1-0.1-0.1-0.4,0.1-0.5c0.2-0.1,0.3,0.2,0.5,0.2
			c0.4,0.4,0.8,0.8,1,1.4c-0.1,0.3,0.5,0.8-0.3,0.9c-0.8-0.9-0.8-0.9-1.8-0.2c-0.6,0.5-1.3,0.8-2,1.2c-2.1,0.6-3-0.1-3.8-1.7
			c-0.4-0.8-0.8-1.5-1.5-2.1c-0.3-0.3-0.4-0.4-0.8-0.1C126.3,88,126,88.4,125.9,87.8z M128.9,88.9C128.9,88.9,128.8,88.9,128.9,88.9
			C128.8,88.9,128.9,88.9,128.9,88.9c0.1,0.2,0.1,0.3,0.2,0.5c-0.1,0.2-0.1,0.4,0,0.7c0.6,1.4,2.1,2.2,3.6,1.2
			c0.3-0.2,0.8-0.3,0.5-0.7c-0.2-0.4-0.5,0-0.8,0.1c-0.7,0.2-1.4,0.3-2.1-0.3c0-0.2,0.1-0.4,0.2-0.6c0.1-0.2,0.1-0.4-0.2-0.4
			C129.8,89.3,129.4,88.9,128.9,88.9z"/>
		<path fill="#B3B3B3" stroke="#B3B3B3" stroke-miterlimit="10" d="M144.8,91.8c-1.2,0.4-2.1,0.4-3.1,0.3c-0.8-0.1-1.6-0.1-2.4-0.5
			c-0.5-0.3-0.6-0.7-0.2-1.1c1.4-1.4,1.8-3.2,2.1-5c0.6-0.1,1.2,0.1,1.9,0.1c-0.1,0.5-0.8,0.7-0.7,1.3c0.1,1.1-0.2,2.2-0.2,3.3
			c0,0.7,0.3,1.1,1,1.2c0.4,0.1,0.8,0,1.1,0c0.7-0.1,1-0.6,1.6-0.8c0,0.3,0,0.2-0.1,0.4c-0.2,0.2-0.1,0-0.6,0.4
			C145.2,91.4,144.9,91.8,144.8,91.8z"/>
		<path fill="#E0E0E0" d="M144.8,81.6c0-0.3-0.1-0.7,0.5-0.6c0.8,0.2,1.6-0.1,2.3-0.4c0.3,0.2,0.4,0.5,0.3,0.8c0,0.5,0.1,1,0.3,1.5
			c0.2,0.5-0.2,1.2-0.8,1.2c-0.9,0.1-1.8-0.2-2.6-0.6c-0.1-0.1-0.3-0.2-0.4-0.2C144.4,82.7,144.9,82.2,144.8,81.6z"/>
		<path fill="#C1C0C0" d="M144.8,81.6c0.1,0.6-0.4,1.1-0.4,1.7c-0.6,0.6-0.5,0.7,0.2,1c0.7,0.3,1.5,0.4,2.2,0.9
			c0.7,0.5,1,1.1,0.9,1.9c-0.2,1.6-0.4,3.1-1.8,4.2c-0.3,0.2-0.6,0.5-1,0.6c0-0.4,0.4-0.4,0.6-0.6c0.2-0.2,0.4-0.3,0.4-0.6
			c0-0.1,0.1-0.2,0.1-0.3c0.2,0,0.3-0.1,0.4-0.3c0.3-0.8,0.6-1.7,0.6-2.5c0.1-1.2-0.4-1.8-1.6-2.1c-0.4-0.1-0.9-0.2-1.3-0.3
			c-0.3-0.1-0.7-0.2-1,0.1c-0.2,0-0.3,0-0.4-0.2c1.7-1.5,1.4-3.6-0.4-4.9c-0.1-0.1-0.2-0.2-0.2-0.3c1,0.2,1.6,0.8,2.2,1.4
			C144.5,81.3,144.6,81.5,144.8,81.6z"/>
		<path fill="#555555" d="M156,86.6C156,86.5,155.9,86.5,156,86.6C155.9,86.5,156,86.5,156,86.6L156,86.6z"/>
		<path fill="#9E9E9E" d="M139.1,112.8c1,0.2,2,0.4,3,0.6c0,0.1,0,0.1,0,0.2C141,113.7,140.1,113.3,139.1,112.8z"/>
		<path fill="#D8D8D8" d="M134.4,84.9c0.1,0.1,0.3,0.2,0.4,0.2c0.1,0.1,0.2,0.2,0.1,0.3c-0.8,1.2-1.3,2.5-1.4,4
			c-1.9,0.1-3.5-0.6-5.1-1.5c1-0.4,1.5-1.1,1.7-2.1c0.1,0,0.3,0,0.4,0c0.8,0.7,1.6,0.4,2.5,0.2c0.3,0,0.7,0.1,1-0.1
			C134.5,85.7,134.4,85.2,134.4,84.9z"/>
		<path fill="#3F3F3F" d="M128,82.3c-0.7-0.3-1.2-0.9-1.9-1.2c0-0.5,0.1-1.1,0.3-1.6c0-0.2,0.3-0.4,0-0.5c0.1-0.4,0.3-0.8,0.7-1.1
			c0.5,0,0.9-0.1,1.4-0.1l0,0c0.1,0.3,0.3,0.3,0.6,0.3c0.1,0,0.2,0.1,0.3,0.3c0,0.1,0.1,0.1,0.1,0.2l0,0c0,0.1,0,0.2,0.1,0.3
			c0,0,0,0.1,0,0.1c0.1,0.5-0.2,1,0,1.5l0.1,0c-0.1,0-0.1,0.1-0.2,0.1c0,0-0.1,0-0.1,0c0,0,0,0.1,0,0.1
			C129,81.2,128.7,81.9,128,82.3z M129,79L129,79c0-0.6-0.3-0.8-0.9-0.7c-0.7,0.1-1.3,0.8-1.4,1.5c0,0.5,0.2,1,0.8,1.1
			c0.6,0.1,1.1-0.1,1.2-0.7c0.4-0.3,0.6-0.6,0.4-1C129.1,79,129.1,79,129,79z"/>
		<path fill="#9E9E9E" d="M130.5,85.7c-0.1,0-0.3,0-0.4,0c-0.1-0.1-0.2-0.2-0.3-0.2c0.2-0.3,0-0.6,0-0.9c0.1,0,0.2,0,0.2,0
			c0.1,0.2,0.3,0.1,0.4,0.2c0.4,0.1,0.8,0.4,0.8,0.7C131.3,85.9,130.7,85.7,130.5,85.7z"/>
		<path fill="#B3B3B3" d="M129.8,79.2c0.3,0,0.2-0.2,0.2-0.4c-0.1-0.3-0.1-0.5-0.1-0.8c0.3,0.1,0.2,0.7,0.7,0.7
			c-0.1,0.7-0.5,1.2-1,1.7l-0.1,0C129.7,80,129.8,79.6,129.8,79.2z"/>
		<path fill="#181818" d="M129.4,80.6c0,0,0-0.1,0-0.1c0,0,0,0,0.1,0C129.5,80.5,129.5,80.6,129.4,80.6z"/>
		<path fill="#CACACA" d="M133.5,89.3c0.1-1.4,0.6-2.7,1.4-4c0.1-0.1,0-0.2-0.1-0.3c0-0.1,0-0.1,0-0.2c0.2,0,0.4,0,0.5-0.2
			c0.1-0.2,0.2-0.4,0.5-0.4c0.2,0.1,0.3,0.4,0.3,0.6c-0.1,0.9-0.2,1.7-0.3,2.6c-0.1,0.4,0,0.7-0.2,1.1c-0.2-0.1-0.3-0.3-0.5-0.2
			c-0.2,0.1-0.1,0.3-0.1,0.5c0.2,0.4,0,0.6-0.4,0.5C134.2,89.3,133.9,89.3,133.5,89.3z"/>
		<path fill="#9E9E9E" stroke="#9E9E9E" stroke-miterlimit="10" d="M130.5,90.6c-0.5-0.2-0.8-0.7-1.3-1c-0.1-0.2-0.1-0.3-0.2-0.5
			l0,0c0.3,0,0.7,0.4,1.5,0.5c0.2,0,0.3,0.2,0.2,0.4C130.6,90.2,130.5,90.4,130.5,90.6z"/>
		<path fill="#7D7D7D" stroke="#7D7D7D" stroke-miterlimit="10" d="M130.3,90.3c0.6,0.6,1.3,0.5,2.1,0.3c0.3-0.1,0.6-0.4,0.8-0.1
			c0.2,0.4-0.3,0.5-0.5,0.7c-1.5,0.9-3,0.2-3.6-1.2c-0.1-0.2-0.1-0.4,0-0.7C129.5,89.6,129.8,90.1,130.3,90.3z"/>
		<path fill="#9E9E9E" d="M128.9,88.9C128.9,88.9,128.8,88.9,128.9,88.9C128.8,88.9,128.9,88.9,128.9,88.9L128.9,88.9z"/>
		<path fill="#B3B3B3" d="M127.1,74.7c0.8-0.6,2.3,0,2.5,1c0.1,0.4,0.2,0.8-0.1,1.2c-0.1-0.1-0.4-0.2-0.3-0.4c0-1.1-0.5-1.6-1.8-1.5
			C127.1,75,127.2,74.8,127.1,74.7z"/>
		<path fill="#D8D8D8" d="M127.3,75c1.3-0.1,1.8,0.3,1.8,1.5C128.5,76,127.5,75.9,127.3,75z"/>
		<path fill="#9E9E9E" d="M125.7,75c0.2-0.1,0.4-0.2,0.6-0.2c0.2,0.1,0.3,0.4,0.4,0.6C126.1,75.7,125.9,75.3,125.7,75z"/>
		<path fill="#E0E0E0" d="M127.1,77.8c-0.4,0.3-0.6,0.7-0.7,1.1c-0.3,0.6-0.4,1.3-0.6,1.9c-0.3-0.1-0.6-0.1-0.8-0.2
			c-0.6-0.8-0.8-1.6-0.4-2.5c0.3-0.7,0.8-1.2,1.6-1.5c0.9-0.3,1.7-0.2,2.5,0.5c0.2,0.2,0.3,0.3,0.3,0.6c-0.1,0-0.3-0.1-0.4-0.1
			c0,0,0,0,0,0C128,77.5,127.5,77.5,127.1,77.8z"/>
		<path fill="#181818" d="M129.8,79.2c0,0.4-0.1,0.8-0.2,1.1c-0.2-0.5,0.2-1,0-1.5C129.8,78.9,129.7,79.1,129.8,79.2z"/>
		<path fill="#181818" d="M128.5,77.7c0.1,0,0.3,0.1,0.4,0.1c0.1,0.1,0.1,0.1,0.2,0.2C128.8,78,128.5,78,128.5,77.7z"/>
		<path fill="#181818" d="M129.6,78.7c-0.1-0.1-0.1-0.2-0.1-0.3C129.6,78.5,129.6,78.5,129.6,78.7z"/>
		<path fill="#181818" d="M129.5,78.4c0-0.1-0.1-0.1-0.1-0.2C129.4,78.3,129.4,78.3,129.5,78.4z"/>
		<path fill="#181818" d="M125.8,80.9c0.1-0.7,0.2-1.3,0.6-1.9c0.3,0.2,0.1,0.4,0,0.5c-0.1,0.5-0.3,1-0.3,1.6
			C126,81,125.9,81,125.8,80.9z"/>
		<path fill="#E0E0E0" d="M138.9,85.5c0,0.7,0.1,1.5-0.4,2.2c-0.1,0.1-0.1,0.3-0.2,0.3c-0.4,0.3-0.8,0.7-1.4,0.5
			c-0.6-0.2-0.5-0.7-0.5-1.2c0.1-0.6,0-1.3,0.5-1.8C137.6,85.6,138.2,85.5,138.9,85.5z"/>
		<path fill="#8B8A8B" d="M138.9,85.5c-0.6,0-1.3,0.1-1.9,0.1c0.2-0.1,0.4-0.3,0.6-0.4c0.3-0.1,0.5-0.1,0.7-0.3c0.2,0,0.4,0,0.6-0.2
			c0.1,0,0.2,0,0.3,0c1-0.3,1.9,0.1,2.9,0c0.2,0.2,0.4,0.3,0.7,0.2c0.1,0.2,0.3,0.2,0.4,0.2c0.2,0.3,0.7,0.2,0.9,0.6
			c-0.3,0-0.7-0.1-1-0.1c-0.6,0-1.2-0.2-1.9-0.1c-0.4-0.2-0.9-0.1-1.3-0.1C139.6,85.4,139.2,85.4,138.9,85.5z"/>
		<path fill="#C1C0C0" d="M138.3,84.9c-0.2,0.2-0.5,0.2-0.7,0.3c-0.6-1-1.1-2.1-0.7-3.4c0.1-0.2,0.1-0.4,0.2-0.6
			c0.3-0.2,0.5-0.3,0.8-0.5c0,0.2,0,0.4-0.1,0.5C137.1,82.6,137.3,83.8,138.3,84.9z"/>
		<path fill="#8B8A8B" d="M139.8,78.4c0,0.3-0.4,0.6-0.3,0.9c-0.7,0.3-1.4,0.8-2.1,1.2C137.8,79.5,138.7,78.9,139.8,78.4z"/>
		<path fill="#E0E0E0" d="M138.3,84.9c-1-1.1-1.2-2.3-0.5-3.7c0.1-0.2,0.1-0.3,0.1-0.5c0.1-0.1,0.2-0.1,0.3-0.2c0,0,0.1-0.1,0.1-0.1
			c1.2-0.7,2.5-1.1,3.9-0.6c0,0.2,0.1,0.2,0.2,0.3c1.8,1.3,2,3.4,0.4,4.9c-0.3,0.1-0.5,0-0.7-0.2c0.2-0.3,0.5-0.5,0.7-0.8
			c0.4-0.6,0.8-1.1,0.4-1.9c0-0.1,0-0.2-0.1-0.3l0,0c0-0.1-0.1-0.1-0.1-0.2c-0.1-0.2-0.3-0.4-0.5-0.4c-0.1-0.1-0.2-0.1-0.4-0.2l0,0
			c-0.9-0.3-1.7-0.2-2.4,0.3c-0.2,0.1-0.4,0.2-0.5,0.4c-0.8,0.9-0.6,1.9-0.3,2.9C138.7,84.9,138.5,84.9,138.3,84.9z"/>
		<path fill="#CACACA" d="M140.5,79c0-0.6,0.7-0.5,1-0.5c0.4,0,0.9,0,1.1,0.6C141.8,79,141.1,78.9,140.5,79z"/>
		<path fill="#C1C0C0" d="M138.3,80.4c0,0-0.1,0.1-0.1,0.1C138.2,80.4,138.3,80.4,138.3,80.4z"/>
		<path fill="#E0E0E0" d="M130,84.1c0.3-0.7,0.9-0.7,1.5-0.6c0.4,0,0.8,0.2,1.1,0.4c0,0.1-0.1,0.3-0.1,0.4c-0.1,0-0.3,0-0.4,0
			C131.4,84,130.7,83.9,130,84.1z"/>
		<path fill="#CACACA" d="M132.5,84.2c0-0.1,0.1-0.3,0.1-0.4c0.7,0.2,1.2,0.6,1.7,1.1c0,0.4,0.1,0.8-0.4,1c-0.1-0.1-0.1-0.3-0.2-0.4
			c0.3-0.4,0.1-0.7-0.3-0.9C133.2,84.5,132.8,84.3,132.5,84.2z"/>
		<path fill="#CACACA" d="M130,84.1c0.7-0.1,1.4-0.1,2.1,0.1c-0.4,0.3-0.9,0.1-1.3,0.1c-0.3,0-0.6,0-0.7,0.3c-0.1,0-0.2,0-0.2,0
			C129.8,84.4,129.8,84.2,130,84.1z"/>
		<path fill="#9E9E9E" stroke="#9E9E9E" stroke-miterlimit="10" d="M143.1,85.6c0.3,0,0.7,0.1,1,0.1c0.4,0.1,0.9,0.1,1.3,0.2
			c1,0.2,1.3,0.5,1.3,1.5c0,1-0.4,1.9-0.6,2.9c0,0.1-0.1,0.2-0.1,0.3c-0.6,0.2-1,0.7-1.6,0.8c-0.4,0-0.8,0.1-1.1,0
			c-0.7-0.1-1-0.4-1-1.2c0-1.1,0.3-2.2,0.2-3.3C142.3,86.3,143,86.1,143.1,85.6z"/>
		<path fill="#B3B3B3" d="M146.1,90.3c0.2-1,0.6-1.9,0.6-2.9c0-1-0.3-1.4-1.3-1.5c-0.4-0.1-0.8-0.1-1.3-0.2
			c-0.2-0.4-0.7-0.2-0.9-0.6c0.3-0.3,0.6-0.2,1-0.1c0.4,0.1,0.9,0.2,1.3,0.3c1.2,0.3,1.7,0.9,1.6,2.1c-0.1,0.9-0.3,1.7-0.6,2.5
			C146.4,90.2,146.3,90.3,146.1,90.3z"/>
		<path fill="#B3B3B3" d="M130,84.6c0.2-0.3,0.5-0.2,0.7-0.3c0.4,0,0.9,0.1,1.3-0.1c0.1,0,0.3,0,0.4,0c0.3,0.1,0.7,0.2,1,0.4
			c0.4,0.2,0.6,0.4,0.3,0.9c-0.3-0.2-0.7-0.5-1.1-0.1c-0.3,0.3,0,0.5,0.2,0.7c-0.9,0.1-1.7,0.5-2.5-0.2c0.3-0.1,0.8,0.1,0.8-0.3
			c0-0.3-0.4-0.6-0.8-0.7C130.3,84.7,130.1,84.8,130,84.6z"/>
		<path fill="#8B8A8B" d="M133,86c-0.2-0.2-0.5-0.4-0.2-0.7c0.4-0.4,0.7-0.1,1.1,0.1c0.1,0.1,0.1,0.3,0.2,0.4
			C133.7,86.1,133.3,86,133,86z"/>
		<path fill="#181818" d="M128.7,80.1c-0.1,0.7-0.7,0.8-1.2,0.7c-0.6-0.1-0.8-0.5-0.8-1.1c0.1-0.7,0.7-1.4,1.4-1.5
			c0.6-0.1,0.9,0.1,0.8,0.7c-0.7,0.1-1.1,0.4-1.1,0.8C128,80.4,128.4,80.2,128.7,80.1z"/>
		<path fill="#FDFDFD" d="M128.7,80.1c-0.3,0.1-0.7,0.2-0.8-0.3c-0.1-0.4,0.4-0.8,1.1-0.8l0,0c0.1,0,0.1,0.1,0.2,0.1
			C129.3,79.6,129.1,79.9,128.7,80.1z"/>
		<path fill="#181818" d="M127.1,77.8c0.4-0.4,0.9-0.4,1.4-0.1C128,77.7,127.6,77.8,127.1,77.8z"/>
		<path fill="#181818" d="M129.2,79.1c-0.1,0-0.1-0.1-0.2-0.1C129.1,79,129.1,79,129.2,79.1z"/>
		<path fill="#3F3F3F" d="M139.2,81.8c0.1-0.2,0.3-0.4,0.5-0.4c0.8-0.1,1.6-0.4,2.4-0.3l0,0c0.1,0.2,0.2,0.2,0.4,0.2
			c0.3,0,0.4,0.2,0.5,0.4c0,0.1,0.1,0.1,0.1,0.2l0,0c0.1,0.1-0.2,0.3,0.1,0.3c0.4,0.7,0,1.3-0.4,1.9c-0.2,0.3-0.5,0.5-0.7,0.8
			c-1,0-1.9-0.3-2.9,0C138.7,83.8,138.9,82.8,139.2,81.8z M142.5,82.3L142.5,82.3c0.1-0.6-0.2-0.8-0.8-0.8c-0.9,0-1.7,0.8-1.7,1.7
			c0,0.8,0.5,1.2,1.3,1c0.6-0.2,1.1-0.8,1.1-1.4l0,0C142.7,82.5,142.7,82.4,142.5,82.3z"/>
		<path fill="#181818" d="M139.2,81.8c-0.3,1-0.5,1.9,0,2.9c-0.1,0-0.2,0-0.3,0C138.6,83.7,138.4,82.7,139.2,81.8z"/>
		<path fill="#181818" d="M142.1,81.2c-0.8-0.1-1.6,0.2-2.4,0.3C140.4,80.9,141.2,80.9,142.1,81.2z"/>
		<path fill="#181818" d="M143.2,82.1c-0.3,0-0.1-0.2-0.1-0.3C143.2,81.9,143.2,82,143.2,82.1z"/>
		<path fill="#181818" d="M142.4,81.3c-0.1,0-0.3,0-0.4-0.2C142.2,81.2,142.4,81.2,142.4,81.3z"/>
		<path fill="#181818" d="M143.1,81.9c0-0.1-0.1-0.1-0.1-0.2C143,81.7,143,81.8,143.1,81.9z"/>
		<path fill="#181818" d="M142.5,82.7c0,0.7-0.5,1.3-1.1,1.4c-0.8,0.2-1.3-0.2-1.3-1c0-0.9,0.8-1.7,1.7-1.7c0.6,0,0.9,0.2,0.8,0.8
			c-0.4-0.4-0.8-0.2-1.1,0.2c-0.2,0.2-0.3,0.6,0,0.8C141.9,83.4,142.2,83.1,142.5,82.7C142.4,82.8,142.5,82.8,142.5,82.7z"/>
		<path fill="#E0E0E0" d="M142.5,82.7C142.5,82.8,142.4,82.8,142.5,82.7c-0.3,0.4-0.6,0.7-1.1,0.4c-0.4-0.2-0.2-0.5,0-0.8
			c0.3-0.3,0.6-0.6,1.1-0.2l0,0C142.5,82.4,142.5,82.5,142.5,82.7L142.5,82.7z"/>
		<path fill="#181818" d="M142.5,82.7c0-0.1,0-0.3,0-0.4C142.7,82.4,142.7,82.5,142.5,82.7z"/>
	</g>
</g>
</svg>
