<?xml version="1.0" encoding="utf-8"?>
<!-- Generator: Adobe Illustrator 21.0.0, SVG Export Plug-In . SVG Version: 6.00 Build 0)  -->
<svg version="1.1" id="Слой_2" xmlns="http://www.w3.org/2000/svg" xmlns:xlink="http://www.w3.org/1999/xlink" x="0px" y="0px"
	 viewBox="0 0 180 180" enable-background="new 0 0 180 180" xml:space="preserve">
<g>
	<path fill="#8D8A88" d="M69.8,113.1c0.4,0.1,0.8,0.2,1.3,0.3c0.8,0.2,1.6,0.3,2.4,0.5c0.6,0.1,1.1,0.2,1.7,0.3
		c0.6,0.1,1.1,0.1,1.7,0.2c0.4,0,0.8,0.1,1.1,0.1c0.4,0,0.7,0.1,1.1,0.1c0.4,0,0.9,0.1,1.3,0.1c0.4,0,0.7,0,1.1,0c0.6,0,1.1,0,1.7,0
		c0.3,0,0.6,0,1,0c0.4,0,0.9,0,1.3,0c0.5,0,1-0.1,1.4-0.1c0.9-0.1,1.8-0.3,2.6-0.6c0.2-0.1,0.4-0.2,0.6-0.2c0.1,0,0.1-0.1,0.1-0.1
		c0,0,0-0.1,0-0.1c0-0.2,0.1-0.2-0.2-0.2c-0.3,0-0.7,0-1,0.1c-0.3,0-0.7,0.1-1,0.1c-0.3,0-0.6,0-0.8,0c-0.4,0-0.8,0-1.3,0
		c-0.9-0.1-1.9-0.2-2.8-0.4c-0.9-0.2-1.9-0.5-2.8-0.8c-1.5-0.5-2.9-1.2-4.2-2.1c-0.2-0.1-0.4-0.3-0.5-0.4c-0.1-0.1-0.1-0.2-0.1-0.2
		c0,0,0.1,0,0.1,0c0.3,0,0.5,0,0.8,0.1c0.5,0,1,0,1.6,0c0.2,0,0.3,0,0.5,0c0.4,0,0.8-0.1,1.1-0.1c0.8-0.1,1.6-0.3,2.3-0.6
		c1.1-0.3,2.1-0.8,3.1-1.2c1.1-0.5,2.2-1,3.3-1.6c0.8-0.4,1.5-0.9,2.3-1.3c0.9-0.5,1.8-1,2.8-1.3c0.5-0.2,1.1-0.3,1.6-0.4
		c0.4,0,0.8-0.1,1.2-0.1c1.2,0,2.4,0.4,3.4,1.2c0.6,0.5,0.9,1.2,1.1,1.9c0.1,0.4,0.1,0.8,0.1,1.2c0,0.7-0.2,1.4-0.6,2.1
		c-0.2,0.4-0.5,0.7-0.7,1.1c-0.1,0.2-0.1,0.3-0.1,0.5c0,0,0.1,0,0.1,0c0.3,0,0.5-0.1,0.7-0.3c0.3-0.2,0.6-0.5,1-0.8
		c0.5-0.4,1-1,1.4-1.5c0.8-0.8,1.6-1.5,2.6-2c0.6-0.3,1.2-0.5,1.8-0.6c1.2-0.2,2.4,0.1,3.4,0.9c0.5,0.3,0.9,0.7,1.4,1
		c0,0,0.1,0.1,0.1,0.1c-0.2,0.1-0.4,0.2-0.5,0.3c-0.4,0.2-0.8,0.4-1.2,0.6c-0.4,0.2-0.7,0.6-1,1c-0.6,0.8-1.1,1.6-1.6,2.5
		c-0.5,1.1-1.1,2.1-1.7,3.2c-0.6,1.1-1.3,2-2.1,3c-0.8,0.9-1.6,1.7-2.6,2.4c-1.3,0.9-2.7,1.6-4.2,2.1c-0.7,0.2-1.5,0.4-2.2,0.5
		c-0.8,0.1-1.7,0.2-2.5,0.2c-0.5,0-1,0-1.5-0.1c-1.3-0.1-2.5-0.4-3.7-0.7c-1.3-0.4-2.6-0.9-3.9-1.5c-2.8-1.2-5.4-2.7-8-4.2
		c-1.7-1-3.3-2.1-5-3.3c-0.1-0.1-0.2-0.1-0.3-0.2C69.8,113.4,69.8,113.3,69.8,113.1z"/>
	<path fill="#8D8A88" d="M48.4,88.7c2.2,0.2,4.3,0.2,6.4,0.1c3.2-0.1,6.3-0.5,9.3-1.6c4.3-1.6,7.2-4.6,9-8.8c1.3-2.9,2-5.8,1.9-9
		c-0.3-6.3-4.1-11.3-10-13.3c-2.8-0.9-5.7-1.3-8.7-0.9c-2.6,0.3-5.1,1.1-7.2,2.6c-1,0.7-1.8,1.6-2.5,2.6c-0.1,0.1-0.2,0.4-0.4,0.3
		c-0.2-0.1-0.1-0.3-0.1-0.5c0.1-1,0.7-1.9,1.4-2.6c1.8-2,4.1-3.3,6.7-3.7c8.5-1.5,15.8,1,21.7,7.3c3.5,3.8,4.7,8.4,4,13.5
		c-0.5,3.5-1.8,6.6-4.2,9.2c-2.3,2.4-5.1,3.9-8.2,4.9c-3.3,1-6.7,1.4-10.2,1.4c-4.4,0-8.8,0-13.2,0c-1.2,0-1.4-0.3-0.8-1.3
		c2.6-4.6,4.3-9.5,6.2-14.3c1-2.5,1.8-5.2,3.2-7.5c1.9-3.3,4.3-6,7.8-7.6c0.8-0.4,1.7-0.6,2.6-0.6c0.2,0,0.5-0.1,0.5,0.1
		c0.1,0.2-0.2,0.3-0.3,0.4c-1.9,1.6-3.3,3.5-4.5,5.5c-1.5,2.6-2.6,5.4-3.6,8.2c-1.7,4.6-3.3,9.3-5.6,13.7
		C49.2,87.4,48.8,88,48.4,88.7z"/>
	<path fill="#8D8A88" d="M80.8,82c0-6.2,4.6-13.5,11.8-15.4c2.1-0.5,4.2-0.6,6.2,0c2.9,0.9,4.5,3.1,4.8,6c0.8,7.5-4.4,15.1-11.7,17
		c-2,0.5-4.1,0.6-6.1,0c-3-0.9-4.9-3.5-5-6.8C80.8,82.6,80.8,82.3,80.8,82z M99.4,73.3c0-0.9-0.1-1.8-0.3-2.6
		c-0.5-2.1-1.8-3.9-4.8-3c-1.6,0.5-2.9,1.5-4,2.7c-3.1,3.4-4.7,7.4-5,11.9c-0.1,1.5,0,3,0.5,4.4c0.6,1.5,1.6,2.2,3.2,2.2
		c1.8,0,3.2-0.9,4.5-2.1C97.4,83.2,99,78.5,99.4,73.3z"/>
	<path fill="#8D8A88" d="M121.7,81c0.3-5,2.6-9.2,7-12.3c2.6-1.8,5.5-2.7,8.7-2.5c1.3,0.1,2.5,0.5,3.5,1.3c1.6,1.3,1.9,3.6,0.6,5.6
		c-1.1,1.8-2.8,3-4.7,3.9c-3,1.6-6.3,2.4-9.6,3c-0.6,0.1-0.8,0.3-0.8,0.9c0,1.6,0.1,3.1,0.6,4.6c1.1,2.7,3.4,3.8,6.1,2.8
		c2-0.7,3.6-2.1,5-3.6c0.3-0.3,0.6-0.6,0.8-0.8c0.1-0.1,0.2-0.2,0.4-0.1c0.2,0.1,0.2,0.3,0.1,0.4c-0.1,0.4-0.3,0.8-0.5,1.2
		c-2.4,3.9-8.3,5.8-12.6,4.1c-2.5-1-3.8-2.9-4.3-5.4C121.8,83.2,121.7,82.3,121.7,81z M137.9,70.5c0-2.5-1.6-3.7-3.7-2.9
		c-1.3,0.4-2.3,1.2-3.2,2.2c-2.1,2.3-3.4,5-4.1,8c-0.3,1.3-0.3,1.4,1,1.1c2.8-0.6,5.3-1.6,7.5-3.6C136.8,73.8,137.8,72.2,137.9,70.5
		z"/>
	<path fill="#8D8A88" d="M110.5,85.3c0.4-0.1,0.5-0.4,0.8-0.6c3.8-3.5,6.6-7.5,8.2-12.4c0.5-1.6,0.6-3.3,0.5-4.9
		c0-0.3-0.2-0.7,0.1-0.8c0.3-0.1,0.6,0.2,0.8,0.4c1.3,1.3,1.6,2.8,1.2,4.5c-0.7,2.9-2.1,5.5-3.9,7.9c-2.4,3.4-5.2,6.5-8.6,9
		c-0.8,0.6-1.6,1.1-2.5,1.5c-0.9,0.4-1.2,0.3-1.2-0.7c0-1.4,0.1-2.8,0.2-4.2c0.2-4,0.4-8-0.1-11.9c-0.2-1.8-0.8-3.6-1.4-5.3
		c-0.1-0.3-0.4-0.6-0.1-0.9c0.3-0.3,0.6,0,0.9,0.1c3.2,1.1,4.7,3.4,5.2,6.7c0.5,3.7,0.3,7.3-0.1,10.9
		C110.5,84.8,110.3,85,110.5,85.3z"/>
</g>
</svg>
