<?xml version="1.0" encoding="utf-8"?>
<!-- Generator: Adobe Illustrator 21.0.0, SVG Export Plug-In . SVG Version: 6.00 Build 0)  -->
<svg version="1.1" xmlns="http://www.w3.org/2000/svg" xmlns:xlink="http://www.w3.org/1999/xlink" x="0px" y="0px"
	 viewBox="0 0 180 180" enable-background="new 0 0 180 180" xml:space="preserve">
<g id="Слой_1">
	<path fill="#8D8A88" d="M93.1,53.3c3,0,6.8,0.2,10.6,0.6c9.5,1,18.7,3.1,27.4,6.9c5.3,2.3,10.3,5.2,14.7,9.1
		c3.5,3.2,6.5,6.8,8.1,11.4c2.3,6.4,1.4,12.5-2.1,18.3c-2.5,4.1-5.8,7.3-9.7,10c-5.5,3.9-11.5,6.7-17.8,8.8
		c-4.7,1.6-9.5,2.7-14.4,3.5c-3.3,0.5-6.6,0.9-9.9,1.1c-4.1,0.3-8.1,0.3-12.2,0.2c-2.9-0.1-5.9-0.4-8.8-0.7c-6.1-0.7-12.1-2-18-3.9
		c-6.4-2.1-12.5-4.8-18-8.7c-4-2.8-7.5-6.1-10.1-10.2c-2.4-3.8-3.6-7.8-3.4-12.3c0.1-3.5,1.2-6.7,2.9-9.8c2.6-4.4,6.2-7.9,10.3-10.8
		c5-3.6,10.5-6.2,16.3-8.2c5.2-1.8,10.5-3.1,15.9-4C80.6,53.8,86.4,53.3,93.1,53.3z M92.3,120.2c3.1,0,6.2-0.1,9.4-0.4
		c6.1-0.5,12-1.5,17.9-3.1c6.6-1.8,13-4.3,18.8-8.1c3.8-2.5,7.3-5.4,9.9-9.2c4.7-6.7,5-14.3,0.6-21.2c-2.3-3.7-5.5-6.6-9-9.1
		c-6.6-4.6-13.9-7.5-21.7-9.5c-6.7-1.7-13.5-2.7-20.4-3c-7.7-0.4-15.3,0-22.9,1.2c-6.2,1-12.2,2.6-18.1,4.9
		c-5.2,2.1-10.1,4.6-14.4,8.2c-3.2,2.6-5.9,5.6-7.8,9.3c-1.7,3.5-2.4,7.1-1.8,11c0.5,3.3,2,6.3,4,8.9c2.9,3.8,6.5,6.7,10.5,9.2
		c5.9,3.6,12.3,6,18.9,7.7C74.8,119.2,83.5,120.1,92.3,120.2z"/>
	<path fill="#FFFFFF" d="M92.3,120.2c-8.8,0-17.5-1-26-3.2c-6.6-1.7-13-4.1-18.9-7.7c-4-2.5-7.7-5.4-10.5-9.2c-2-2.7-3.4-5.6-4-8.9
		c-0.6-3.9,0-7.5,1.8-11c1.9-3.7,4.6-6.7,7.8-9.3c4.4-3.5,9.3-6.1,14.4-8.2c5.8-2.3,11.9-3.9,18.1-4.9c7.6-1.2,15.2-1.6,22.9-1.2
		c6.9,0.3,13.7,1.3,20.4,3c7.7,2,15.1,4.9,21.7,9.5c3.6,2.5,6.7,5.4,9,9.1c4.3,6.9,4.1,14.5-0.6,21.2c-2.7,3.8-6.1,6.7-9.9,9.2
		c-5.8,3.7-12.2,6.2-18.8,8.1c-5.9,1.6-11.8,2.6-17.9,3.1C98.6,120,95.4,120.2,92.3,120.2z M62.1,87.4c0-3.7,0-7.4,0-11.1
		c0-0.4-0.1-0.5-0.5-0.5c-1.2,0-2.3,0-3.5,0c-0.5,0-0.6,0.1-0.6,0.6c0,2.8,0,5.6,0,8.4c0,0.4-0.1,0.5-0.5,0.5c-2.9,0-5.9,0-8.8,0
		c-0.4,0-0.6-0.1-0.6-0.6c0-2.8,0-5.5,0-8.3c0-0.5-0.2-0.6-0.7-0.6c-1.1,0-2.2,0-3.4,0c-0.5,0-0.6,0.1-0.6,0.6c0,5.1,0,10.3,0,15.4
		c0,2.2,0,4.4,0,6.6c0,0.4,0.1,0.5,0.5,0.5c1.2,0,2.3,0,3.5,0c0.5,0,0.7-0.1,0.7-0.6c0-2.9,0-5.9,0-8.8c0-0.4,0.1-0.5,0.5-0.5
		c2.9,0,5.9,0,8.8,0c0.5,0,0.6,0.1,0.6,0.6c0,2.9,0,5.9,0,8.8c0,0.5,0.1,0.6,0.6,0.5c1.2,0,2.3,0,3.5,0c0.4,0,0.5-0.1,0.5-0.5
		C62.1,94.8,62.1,91.1,62.1,87.4z M107.2,89.4c0-0.3,0-0.5,0-0.7c0-4.1,0-8.3,0-12.4c0-0.4-0.1-0.5-0.5-0.5c-0.8,0-1.5,0-2.3,0
		c-0.5,0-1.2-0.2-1.4,0.1c-0.3,0.3-0.1,1-0.1,1.5c0,7,0,14,0,21c0,0.5,0.1,0.6,0.6,0.6c1.1,0,2.1,0,3.2,0c0.5,0,0.6-0.2,0.6-0.6
		c0-2.6,0-5.2,0-7.8c0-0.2-0.1-0.4,0.1-0.6c1.9,2.7,3.8,5.3,5.6,7.9c0.5,0.8,1,1.1,2,1c1.3-0.1,2.7,0,4,0c0-0.3-0.2-0.4-0.3-0.5
		c-2.1-2.8-4.2-5.6-6.3-8.4c-0.2-0.3-0.3-0.5,0-0.8c1.8-2.1,3.7-4.3,5.5-6.5c0.1-0.1,0.2-0.3,0.4-0.5c-1.7,0-3.3,0-4.9,0
		c-0.2,0-0.3,0.1-0.4,0.3c-0.5,0.6-1,1.2-1.5,1.8C110,86,108.7,87.6,107.2,89.4z M128.6,91.7c1.9,0,3.8,0,5.6,0
		c0.5,0,0.6-0.2,0.6-0.6c0-0.6,0-1.3-0.1-1.9c-0.6-4.1-3.4-7.7-8.7-7.4c-3,0.2-5.4,1.6-6.8,4.3c-1.1,2-1.3,4.2-0.9,6.5
		c0.6,3.1,2.2,5.3,5.2,6.3c1.5,0.5,3.1,0.6,4.7,0.4c2.9-0.5,5-2,6-4.9c0.1-0.3,0.1-0.4-0.3-0.4c-1.1,0-2.2,0-3.3,0
		c-0.2,0-0.4,0.1-0.5,0.3c-0.3,0.7-0.9,1.1-1.5,1.4c-2.9,1.4-6.1-0.4-6.3-3.6c0-0.4,0.1-0.4,0.4-0.4
		C124.8,91.7,126.7,91.7,128.6,91.7z M75.1,91.7c1.9,0,3.8,0,5.8,0c0.4,0,0.5-0.1,0.5-0.5c0-1-0.1-1.9-0.3-2.9
		c-0.7-3.6-3.2-6-6.7-6.5c-3.5-0.5-7,1.1-8.6,4.1c-1.5,2.9-1.6,5.8-0.3,8.8c0.9,2.1,2.5,3.5,4.7,4.2c2.1,0.7,4.2,0.6,6.3-0.1
		c2.1-0.7,3.5-2.2,4.3-4.2c0.2-0.6,0.2-0.6-0.4-0.6c-0.9,0-1.8,0-2.7,0c-0.5,0-0.8,0-1,0.5c-0.2,0.5-0.7,0.8-1.2,1.1
		c-1,0.6-2.1,0.6-3.3,0.4c-1.9-0.4-2.9-1.7-3.2-3.9c-0.1-0.4,0.1-0.5,0.4-0.5C71.3,91.7,73.2,91.7,75.1,91.7z M87.9,84.5
		c0-0.6,0-1.2,0-1.8c0-0.3-0.1-0.4-0.4-0.4c-1.1,0-2.2,0-3.2,0c-0.4,0-0.4,0.1-0.4,0.4c0,1.4,0,2.9,0,4.3c0,3.8,0,7.6,0,11.5
		c0,0.4,0.1,0.5,0.5,0.5c1.1,0,2.2,0,3.3,0c0.4,0,0.5-0.1,0.5-0.5c0-0.7,0-1.3,0-2c0-2.5-0.1-5.1,0.1-7.6c0.2-2.5,1.4-4,4.2-3.7
		c1.1,0.1,1.8,0.8,2.2,1.8c0.3,0.8,0.3,1.6,0.3,2.4c0,3,0,6,0,9.1c0,0.4,0.1,0.5,0.5,0.5c1.1,0,2.2,0,3.3,0c0.4,0,0.5-0.1,0.5-0.5
		c0-3.2,0-6.4,0-9.6c0-0.9,0-1.7-0.2-2.5c-0.3-1.8-1.1-3.2-2.9-3.9c-1.3-0.5-2.7-0.6-4.1-0.4C90.4,82.1,89,83,87.9,84.5z
		 M141.7,87.4c0-3.7,0-7.4,0-11.1c0-0.4-0.1-0.5-0.5-0.5c-1.1,0-2.2,0-3.4,0c-0.4,0-0.5,0.1-0.5,0.5c0,2.6,0,5.3,0,7.9
		c0,4.7,0,9.5,0,14.2c0,0.4,0.1,0.5,0.5,0.5c1.1,0,2.2,0,3.3,0c0.4,0,0.5-0.1,0.5-0.5C141.7,94.7,141.7,91.1,141.7,87.4z"/>
	<path fill="#8D8A88" d="M62.1,87.4c0,3.7,0,7.4,0,11c0,0.4-0.1,0.5-0.5,0.5c-1.2,0-2.3,0-3.5,0c-0.4,0-0.6-0.1-0.6-0.5
		c0-2.9,0-5.9,0-8.8c0-0.5-0.1-0.6-0.6-0.6c-2.9,0-5.9,0-8.8,0c-0.4,0-0.5,0.1-0.5,0.5c0,2.9,0,5.9,0,8.8c0,0.5-0.2,0.6-0.7,0.6
		c-1.2,0-2.3,0-3.5,0c-0.4,0-0.5-0.1-0.5-0.5c0-2.2,0-4.4,0-6.6c0-5.1,0-10.3,0-15.4c0-0.5,0.1-0.6,0.6-0.6c1.1,0,2.2,0,3.4,0
		c0.5,0,0.7,0.1,0.7,0.6c0,2.8,0,5.5,0,8.3c0,0.4,0.1,0.6,0.6,0.6c2.9,0,5.9,0,8.8,0c0.4,0,0.5-0.1,0.5-0.5c0-2.8,0-5.6,0-8.4
		c0-0.5,0.2-0.6,0.6-0.6c1.2,0,2.3,0,3.5,0c0.4,0,0.5,0.1,0.5,0.5C62.1,80,62.1,83.7,62.1,87.4z"/>
	<path fill="#8D8A88" d="M107.2,89.4c1.4-1.8,2.8-3.4,4.1-5.1c0.5-0.6,1-1.2,1.5-1.8c0.1-0.1,0.2-0.3,0.4-0.3c1.6,0,3.2,0,4.9,0
		c-0.2,0.2-0.3,0.4-0.4,0.5c-1.8,2.2-3.6,4.3-5.5,6.5c-0.3,0.3-0.2,0.5,0,0.8c2.1,2.8,4.2,5.6,6.3,8.4c0.1,0.1,0.3,0.3,0.3,0.5
		c-1.4,0-2.7-0.1-4,0c-0.9,0.1-1.5-0.3-2-1c-1.8-2.7-3.7-5.3-5.6-7.9c-0.1,0.2-0.1,0.4-0.1,0.6c0,2.6,0,5.2,0,7.8
		c0,0.4-0.1,0.6-0.6,0.6c-1.1,0-2.1,0-3.2,0c-0.5,0-0.6-0.1-0.6-0.6c0-7,0-14,0-21c0-0.5-0.2-1.2,0.1-1.5c0.3-0.3,0.9-0.1,1.4-0.1
		c0.8,0,1.5,0,2.3,0c0.4,0,0.5,0.1,0.5,0.5c0,4.1,0,8.3,0,12.4C107.2,88.9,107.2,89.1,107.2,89.4z"/>
	<path fill="#8D8A88" d="M128.6,91.7c-1.9,0-3.8,0-5.7,0c-0.3,0-0.5,0-0.4,0.4c0.2,3.2,3.4,5,6.3,3.6c0.7-0.3,1.2-0.8,1.5-1.4
		c0.1-0.2,0.2-0.3,0.5-0.3c1.1,0,2.2,0,3.3,0c0.4,0,0.4,0.1,0.3,0.4c-1,2.9-3.1,4.4-6,4.9c-1.6,0.3-3.2,0.2-4.7-0.4
		c-3-1.1-4.7-3.3-5.2-6.3c-0.4-2.2-0.2-4.4,0.9-6.5c1.5-2.7,3.8-4.1,6.8-4.3c5.3-0.3,8.1,3.3,8.7,7.4c0.1,0.6,0.1,1.3,0.1,1.9
		c0,0.5-0.1,0.6-0.6,0.6C132.4,91.7,130.5,91.7,128.6,91.7z M126.5,88.8c1.2,0,2.4,0,3.7,0c0.1,0,0.4,0.1,0.4-0.2
		c0.1-1.3-1-2.9-2.2-3.4c-2.7-1.1-5.3,0.4-5.8,3.2c-0.1,0.4,0,0.4,0.4,0.4C124.1,88.8,125.3,88.8,126.5,88.8z"/>
	<path fill="#8D8A88" d="M75.1,91.7c-1.9,0-3.8,0-5.7,0c-0.4,0-0.5,0.1-0.4,0.5c0.3,2.2,1.3,3.5,3.2,3.9c1.1,0.2,2.2,0.2,3.3-0.4
		c0.5-0.3,1-0.6,1.2-1.1c0.2-0.5,0.5-0.5,1-0.5c0.9,0,1.8,0,2.7,0c0.6,0,0.6,0,0.4,0.6c-0.8,2.1-2.2,3.5-4.3,4.2
		c-2.1,0.7-4.2,0.8-6.3,0.1c-2.2-0.7-3.8-2.1-4.7-4.2c-1.3-3-1.2-5.9,0.3-8.8c1.6-3,5.1-4.7,8.6-4.1c3.5,0.6,5.9,2.9,6.7,6.5
		c0.2,0.9,0.3,1.9,0.3,2.9c0,0.4-0.1,0.5-0.5,0.5C78.9,91.7,77,91.7,75.1,91.7z M76.9,88.8c-0.2-1.3-0.5-2.6-1.7-3.3
		c-2.5-1.6-5.8,0-6.2,2.9c-0.1,0.4,0,0.5,0.4,0.5c2.4,0,4.8,0,7.2,0C76.7,88.8,76.8,88.8,76.9,88.8z"/>
	<path fill="#8D8A88" d="M87.9,84.5c1.1-1.4,2.5-2.3,4.2-2.6c1.4-0.2,2.8-0.1,4.1,0.4c1.8,0.7,2.5,2.2,2.9,3.9
		c0.2,0.8,0.2,1.7,0.2,2.5c0,3.2,0,6.4,0,9.6c0,0.4-0.1,0.6-0.5,0.5c-1.1,0-2.2,0-3.3,0c-0.4,0-0.5-0.1-0.5-0.5c0-3,0-6,0-9.1
		c0-0.8,0-1.6-0.3-2.4c-0.4-1.1-1.1-1.7-2.2-1.8c-2.9-0.3-4.1,1.1-4.2,3.7c-0.2,2.5,0,5.1-0.1,7.6c0,0.7,0,1.3,0,2
		c0,0.4-0.1,0.6-0.5,0.5c-1.1,0-2.2,0-3.3,0c-0.4,0-0.5-0.1-0.5-0.5c0-3.8,0-7.6,0-11.5c0-1.4,0-2.9,0-4.3c0-0.3,0.1-0.5,0.4-0.4
		c1.1,0,2.2,0,3.2,0c0.3,0,0.4,0.1,0.4,0.4C87.9,83.2,87.9,83.9,87.9,84.5z"/>
	<path fill="#8D8A88" d="M141.7,87.4c0,3.7,0,7.3,0,11c0,0.4-0.1,0.5-0.5,0.5c-1.1,0-2.2,0-3.3,0c-0.4,0-0.5-0.1-0.5-0.5
		c0-4.7,0-9.5,0-14.2c0-2.6,0-5.3,0-7.9c0-0.4,0.1-0.5,0.5-0.5c1.1,0,2.2,0,3.4,0c0.4,0,0.5,0.1,0.5,0.5
		C141.7,80,141.7,83.7,141.7,87.4z"/>
	<path fill="#FFFFFF" d="M126.5,88.8c-1.2,0-2.4,0-3.6,0c-0.3,0-0.4,0-0.4-0.4c0.5-2.8,3.1-4.3,5.8-3.2c1.2,0.5,2.3,2.1,2.2,3.4
		c0,0.3-0.2,0.2-0.4,0.2C128.9,88.8,127.7,88.8,126.5,88.8z"/>
	<path fill="#FFFFFF" d="M76.9,88.8c-0.1,0-0.3,0-0.4,0c-2.4,0-4.8,0-7.2,0c-0.4,0-0.5-0.1-0.4-0.5c0.4-2.9,3.7-4.5,6.2-2.9
		C76.4,86.2,76.8,87.5,76.9,88.8z"/>
</g>
<g id="Слой_2" display="none">
	<g display="inline">
		<path fill="#8D8A88" d="M69.8,113.1c0.4,0.1,0.8,0.2,1.3,0.3c0.8,0.2,1.6,0.3,2.4,0.5c0.6,0.1,1.1,0.2,1.7,0.3
			c0.6,0.1,1.1,0.1,1.7,0.2c0.4,0,0.8,0.1,1.1,0.1c0.4,0,0.7,0.1,1.1,0.1c0.4,0,0.9,0.1,1.3,0.1c0.4,0,0.7,0,1.1,0
			c0.6,0,1.1,0,1.7,0c0.3,0,0.6,0,1,0c0.4,0,0.9,0,1.3,0c0.5,0,1-0.1,1.4-0.1c0.9-0.1,1.8-0.3,2.6-0.6c0.2-0.1,0.4-0.2,0.6-0.2
			c0.1,0,0.1-0.1,0.1-0.1c0,0,0-0.1,0-0.1c0-0.2,0.1-0.2-0.2-0.2c-0.3,0-0.7,0-1,0.1c-0.3,0-0.7,0.1-1,0.1c-0.3,0-0.6,0-0.8,0
			c-0.4,0-0.8,0-1.3,0c-0.9-0.1-1.9-0.2-2.8-0.4c-0.9-0.2-1.9-0.5-2.8-0.8c-1.5-0.5-2.9-1.2-4.2-2.1c-0.2-0.1-0.4-0.3-0.5-0.4
			c-0.1-0.1-0.1-0.2-0.1-0.2c0,0,0.1,0,0.1,0c0.3,0,0.5,0,0.8,0.1c0.5,0,1,0,1.6,0c0.2,0,0.3,0,0.5,0c0.4,0,0.8-0.1,1.1-0.1
			c0.8-0.1,1.6-0.3,2.3-0.6c1.1-0.3,2.1-0.8,3.1-1.2c1.1-0.5,2.2-1,3.3-1.6c0.8-0.4,1.5-0.9,2.3-1.3c0.9-0.5,1.8-1,2.8-1.3
			c0.5-0.2,1.1-0.3,1.6-0.4c0.4,0,0.8-0.1,1.2-0.1c1.2,0,2.4,0.4,3.4,1.2c0.6,0.5,0.9,1.2,1.1,1.9c0.1,0.4,0.1,0.8,0.1,1.2
			c0,0.7-0.2,1.4-0.6,2.1c-0.2,0.4-0.5,0.7-0.7,1.1c-0.1,0.2-0.1,0.3-0.1,0.5c0,0,0.1,0,0.1,0c0.3,0,0.5-0.1,0.7-0.3
			c0.3-0.2,0.6-0.5,1-0.8c0.5-0.4,1-1,1.4-1.5c0.8-0.8,1.6-1.5,2.6-2c0.6-0.3,1.2-0.5,1.8-0.6c1.2-0.2,2.4,0.1,3.4,0.9
			c0.5,0.3,0.9,0.7,1.4,1c0,0,0.1,0.1,0.1,0.1c-0.2,0.1-0.4,0.2-0.5,0.3c-0.4,0.2-0.8,0.4-1.2,0.6c-0.4,0.2-0.7,0.6-1,1
			c-0.6,0.8-1.1,1.6-1.6,2.5c-0.5,1.1-1.1,2.1-1.7,3.2c-0.6,1.1-1.3,2-2.1,3c-0.8,0.9-1.6,1.7-2.6,2.4c-1.3,0.9-2.7,1.6-4.2,2.1
			c-0.7,0.2-1.5,0.4-2.2,0.5c-0.8,0.1-1.7,0.2-2.5,0.2c-0.5,0-1,0-1.5-0.1c-1.3-0.1-2.5-0.4-3.7-0.7c-1.3-0.4-2.6-0.9-3.9-1.5
			c-2.8-1.2-5.4-2.7-8-4.2c-1.7-1-3.3-2.1-5-3.3c-0.1-0.1-0.2-0.1-0.3-0.2C69.8,113.4,69.8,113.3,69.8,113.1z"/>
		<path fill="#8D8A88" d="M48.4,88.7c2.2,0.2,4.3,0.2,6.4,0.1c3.2-0.1,6.3-0.5,9.3-1.6c4.3-1.6,7.2-4.6,9-8.8c1.3-2.9,2-5.8,1.9-9
			c-0.3-6.3-4.1-11.3-10-13.3c-2.8-0.9-5.7-1.3-8.7-0.9c-2.6,0.3-5.1,1.1-7.2,2.6c-1,0.7-1.8,1.6-2.5,2.6c-0.1,0.1-0.2,0.4-0.4,0.3
			c-0.2-0.1-0.1-0.3-0.1-0.5c0.1-1,0.7-1.9,1.4-2.6c1.8-2,4.1-3.3,6.7-3.7c8.5-1.5,15.8,1,21.7,7.3c3.5,3.8,4.7,8.4,4,13.5
			c-0.5,3.5-1.8,6.6-4.2,9.2c-2.3,2.4-5.1,3.9-8.2,4.9c-3.3,1-6.7,1.4-10.2,1.4c-4.4,0-8.8,0-13.2,0c-1.2,0-1.4-0.3-0.8-1.3
			c2.6-4.6,4.3-9.5,6.2-14.3c1-2.5,1.8-5.2,3.2-7.5c1.9-3.3,4.3-6,7.8-7.6c0.8-0.4,1.7-0.6,2.6-0.6c0.2,0,0.5-0.1,0.5,0.1
			c0.1,0.2-0.2,0.3-0.3,0.4c-1.9,1.6-3.3,3.5-4.5,5.5c-1.5,2.6-2.6,5.4-3.6,8.2c-1.7,4.6-3.3,9.3-5.6,13.7
			C49.2,87.4,48.8,88,48.4,88.7z"/>
		<path fill="#8D8A88" d="M80.8,82c0-6.2,4.6-13.5,11.8-15.4c2.1-0.5,4.2-0.6,6.2,0c2.9,0.9,4.5,3.1,4.8,6c0.8,7.5-4.4,15.1-11.7,17
			c-2,0.5-4.1,0.6-6.1,0c-3-0.9-4.9-3.5-5-6.8C80.8,82.6,80.8,82.3,80.8,82z M99.4,73.3c0-0.9-0.1-1.8-0.3-2.6
			c-0.5-2.1-1.8-3.9-4.8-3c-1.6,0.5-2.9,1.5-4,2.7c-3.1,3.4-4.7,7.4-5,11.9c-0.1,1.5,0,3,0.5,4.4c0.6,1.5,1.6,2.2,3.2,2.2
			c1.8,0,3.2-0.9,4.5-2.1C97.4,83.2,99,78.5,99.4,73.3z"/>
		<path fill="#8D8A88" d="M121.7,81c0.3-5,2.6-9.2,7-12.3c2.6-1.8,5.5-2.7,8.7-2.5c1.3,0.1,2.5,0.5,3.5,1.3c1.6,1.3,1.9,3.6,0.6,5.6
			c-1.1,1.8-2.8,3-4.7,3.9c-3,1.6-6.3,2.4-9.6,3c-0.6,0.1-0.8,0.3-0.8,0.9c0,1.6,0.1,3.1,0.6,4.6c1.1,2.7,3.4,3.8,6.1,2.8
			c2-0.7,3.6-2.1,5-3.6c0.3-0.3,0.6-0.6,0.8-0.8c0.1-0.1,0.2-0.2,0.4-0.1c0.2,0.1,0.2,0.3,0.1,0.4c-0.1,0.4-0.3,0.8-0.5,1.2
			c-2.4,3.9-8.3,5.8-12.6,4.1c-2.5-1-3.8-2.9-4.3-5.4C121.8,83.2,121.7,82.3,121.7,81z M137.9,70.5c0-2.5-1.6-3.7-3.7-2.9
			c-1.3,0.4-2.3,1.2-3.2,2.2c-2.1,2.3-3.4,5-4.1,8c-0.3,1.3-0.3,1.4,1,1.1c2.8-0.6,5.3-1.6,7.5-3.6
			C136.8,73.8,137.8,72.2,137.9,70.5z"/>
		<path fill="#8D8A88" d="M110.5,85.3c0.4-0.1,0.5-0.4,0.8-0.6c3.8-3.5,6.6-7.5,8.2-12.4c0.5-1.6,0.6-3.3,0.5-4.9
			c0-0.3-0.2-0.7,0.1-0.8c0.3-0.1,0.6,0.2,0.8,0.4c1.3,1.3,1.6,2.8,1.2,4.5c-0.7,2.9-2.1,5.5-3.9,7.9c-2.4,3.4-5.2,6.5-8.6,9
			c-0.8,0.6-1.6,1.1-2.5,1.5c-0.9,0.4-1.2,0.3-1.2-0.7c0-1.4,0.1-2.8,0.2-4.2c0.2-4,0.4-8-0.1-11.9c-0.2-1.8-0.8-3.6-1.4-5.3
			c-0.1-0.3-0.4-0.6-0.1-0.9c0.3-0.3,0.6,0,0.9,0.1c3.2,1.1,4.7,3.4,5.2,6.7c0.5,3.7,0.3,7.3-0.1,10.9
			C110.5,84.8,110.3,85,110.5,85.3z"/>
	</g>
</g>
</svg>
