<?xml version="1.0" encoding="utf-8"?>
<!-- Generator: Adobe Illustrator 17.1.0, SVG Export Plug-In . SVG Version: 6.00 Build 0)  -->
<!DOCTYPE svg PUBLIC "-//W3C//DTD SVG 1.1//EN" "http://www.w3.org/Graphics/SVG/1.1/DTD/svg11.dtd">
<svg version="1.1" xmlns="http://www.w3.org/2000/svg" xmlns:xlink="http://www.w3.org/1999/xlink" x="0px" y="0px"
	 viewBox="0 0 180 180" enable-background="new 0 0 180 180" xml:space="preserve">
<g id="Layer_2" display="none">
	<rect x="70.4" y="55" display="inline" fill="#848485" width="39" height="70"/>
</g>
<g id="Layer_1">
	<g>
		<path fill="#858585" d="M69.4,113.4c-3.6-3.9-7.2-7.9-9.3-13c-6.3-15.8-0.4-33.1,14.4-41.4c12.5-6.9,28-4.4,38.2,4.9
			c12.3,11.3,14.3,32.3,1.7,46c-1.6,1.8-3.4,3.3-5.4,4.7c-0.6-0.3-0.4-0.9-0.4-1.4c-0.1-2.1-1-3.4-2.9-4.4c-1.8-0.9-3.6-1-5.5-0.9
			c-1.9,0.1-3.5,1-5,2.1c-0.5,0.5-1.3,0.4-1.7,1c-3.3,3-6.9,5.1-11.4,5.7c-0.8,0-1.6,0-2.4,0C76,116.5,72.7,114.8,69.4,113.4z
			 M102.6,58.5c-1.9-0.7-3.7-1.8-5.9-1.3c1.8,0.6,3.7,1.1,5.5,1.7c1.2,0.6,2.4,1.2,3.6,1.7C105,59.5,103.8,58.9,102.6,58.5z
			 M109.7,111.8c0,0.4-0.1,1.4,0.5,0.9c1.7-1.3,3.5-2.6,4.4-4.7c1.4-0.6,1.6-2.3,2.7-3.2c0.1-0.1,0-0.3,0-0.5
			c-0.2-0.7-2.9-2.1-3.7-2c-2.5,0.2-4.6,2.2-7.1,2.1c-2.3-0.1-3.9,1.6-6.4,1.8c1.1,0.7,1.9,0.7,2.7,0.8c0.9,0,1.7,0.3,2.6,0.4
			C107.4,108.2,108.6,110,109.7,111.8z M67.2,75.8c0,10.4,0,20.8,0,31.2c0,1.2,0.3,2,1.5,1.5c1.3-0.4,2.6-0.6,3.9-0.7
			c1.2-0.1,1.8-0.6,1.7-1.9c-0.1-3.5,0-7-0.1-10.5c0-0.9,0.1-1.4,1.2-1.7c3.1-0.9,5.6-2.8,7.3-5.6c2.4-4.1,2.8-8.5,2.2-13
			c-0.3-2.8-1.1-5.5-3.7-7.2c0.5-0.7,1,0.2,1.4,0c0,0,0,0.1,0.1,0.1c0,0,0.1,0,0.1,0c-0.1,0-0.1-0.1-0.2-0.1
			c0.1-0.4,0.2-0.6,0.7-0.5c1.9,0.4,3.6-0.2,5.4-0.9c1.5-0.6,2.5-1.8,4-2.2c0.8-0.2,1.7-1,1.9-1.7c0.2-0.7-0.7-1.4-1.5-1.7
			c-2.1-2-4.8-2.1-7.4-2.4c-0.2,0-0.4,0-0.7,0c-0.4,0-0.7,0-1.1,0c-3,0.1-5.7,1.4-8.6,2c2.2-1.3,4.5-2.2,6.8-3.1
			c-2.8-0.2-5.7,0.9-7.3,2.7c-1.5,1.7-3.2,3.2-4.8,4.7c-1.8,1.3-3,3.1-4.2,4.9c-1.4,1.5-1.8,3.4-2.4,5.5c1.9-0.9,3.3-1.9,3.2-4
			c0-0.1,0.3-0.3,0.5-0.4 M105.8,86.5C105.8,86.5,105.8,86.5,105.8,86.5c0,5,0,10,0,15.1c0,1.6,0.5,1.9,2,1.4c0.3-0.1,0.7-0.2,1-0.3
			c2.7-0.6,4-2.1,4-4.9c0.1-2.6,0-5.3,0-7.9c0-7.3,0-14.6,0-21.9c0-0.5,0.5-1.3-0.7-1.4c-3.6-0.3-6.3,2.1-6.4,5.6
			C105.8,77,105.8,81.7,105.8,86.5z M96.4,90.6C96.4,90.6,96.4,90.6,96.4,90.6c0,4.2,0,8.3,0,12.5c0,1.1,0.3,1.4,1.4,1.2
			c1.5-0.3,3-0.5,4.5-0.6c0.9-0.1,1.4-0.4,1.4-1.4c0-8.2,0-16.5,0-24.7c0-1.1-0.5-1.3-1.4-1.2c-1.5,0.2-3,0.6-4.5,0.6
			c-1.1,0-1.3,0.5-1.3,1.5C96.4,82.6,96.4,86.6,96.4,90.6z M85.5,95c0,3.2,0.1,6.4,0,9.6c0,1.2,0.4,1.3,1.4,1.2
			c1.4-0.2,2.9-0.6,4.3-0.6c1.2-0.1,1.4-0.5,1.4-1.6c-0.1-5.3,0-10.6,0-15.9c0-1.1-0.1-2.6,1.3-2.9c1.2-0.3,1.3-1.1,1.3-2.1
			c0-0.8,0.2-1.5,0.1-2.3c-0.1-1,0.9-2.3,0-2.9c-0.9-0.5-2.1,0.2-3.2,0.6c-4.7,1.4-6.5,4-6.6,8.8C85.4,89.6,85.5,92.3,85.5,95z
			 M100.1,67.6c-1.9,0-4,1.6-4,3.1c-0.1,2.3,1.6,4.2,3.8,4.2c2.1,0,3.8-1.7,3.9-3.7C103.7,69.1,102.2,67.6,100.1,67.6z M86.2,56.4
			c2.7,0.4,5.5,0.1,8.3,0.5c0.3,0,0.4-0.2,0.4-0.4c0-0.3-0.2-0.4-0.5-0.4C91.7,55.9,88.9,55.7,86.2,56.4z"/>
		<path fill="#727373" d="M95.2,110.1c1.5-1.1,3.1-2,5-2.1c0.4,0.7,1.1,0.8,1.7,0.6c1.5-0.3,2.6,0.7,3.7,1.2
			c0.7,0.4,1.1,0.9,0.3,1.7c-0.8,0.9-1.1,2-0.8,3.2c0.2,0.9-0.4,1.5-0.8,2.2c-0.3,0.2-0.7,0.4-1,0.7c-1.2,1-2.3,1.9-3.4-0.1
			c-0.8,0.9,1.1,1.8-0.3,2.5c-1.1,0.1-2.1,0.5-2.9,1.3c-0.3,0.3-0.7,0.3-1,0.3c-0.3,0-0.6-0.1-0.6,0.3c0,0.6,0.6,0.6,0.9,0.8
			c-1.9,0.7-3.9,0-5.8,0.4c-0.2,0-0.5,0-0.7-0.1c-0.4-0.6-0.9-0.2-1.4-0.3c1.2-0.8,2.7-0.1,4.3-0.7c-1.3-0.4-2.4-0.3-3.3-0.8
			c-0.2-0.1-0.6,0.1-0.7-0.3c-0.1-0.5,0.3-0.5,0.6-0.6c1.7-0.8,3.2-1.8,4.6-3c0.9-0.7,1.2-1.5,1-2.6c0.9-0.9,1.9-1.7,2.8-2.6
			c0.1-0.1,0.2-0.2,0.3-0.2l0.1-0.1c0.1-0.1,0.2-0.2,0.4-0.3l0,0c1.3-0.1,1.9-1.3,3.2-1.9c-1.8-0.4-2.9,0.1-3.9,0.9
			c-0.1,0-0.2,0.1-0.3,0.1c-0.1,0.1-0.3,0.2-0.4,0.2c-0.3,0.2-0.6,0.3-1,0.5C95.2,110.9,95.3,110.5,95.2,110.1z"/>
		<path fill="#7B7B7B" d="M94.6,114.6c0.2,1.1-0.1,1.9-1,2.6c-1.4,1.2-3,2.2-4.6,3c-0.3,0.2-0.7,0.2-0.6,0.6
			c0.1,0.4,0.5,0.2,0.7,0.3c0.9,0.5,2,0.4,3.3,0.8c-1.6,0.6-3.1-0.1-4.3,0.7c-0.5,0.5-0.9,0.6-1.6,0.3c-2.2-0.9-4.4-1.5-6.6-2.3
			c-1.5-0.6-2.8-1.5-3.7-2.8c0.2,0,0.3,0.1,0.5,0.1c1.3,0.2,3,1.5,3.2-1.2c0.8,0,1.6,0,2.4,0c0.9,0.7,2.5-0.4,2.9,1.4
			c0,0.2,0.7,0.3,1.1,0.3c1.4,0.1,2.6-0.3,3.9-0.8C91.7,116.9,92.9,115.3,94.6,114.6z"/>
		<path fill="#7B7B7B" d="M104.3,116.9c0.4-0.7,1.1-1.2,0.8-2.2c-0.3-1.2,0-2.3,0.8-3.2c0.8-0.8,0.4-1.3-0.3-1.7
			c-1.2-0.6-2.2-1.6-3.7-1.2c-0.6,0.1-1.3,0-1.7-0.6c1.9-0.1,3.7-0.1,5.5,0.9c2,1,2.8,2.3,2.9,4.4c0,0.5-0.2,1.1,0.4,1.4
			c0.2,2.5-1.9,3.8-3,5.6c-0.1,0.2-0.8,0.3-0.7,0.1c0.5-2.2-1.1-0.2-1.4-0.6C103.4,118.7,106.4,118.1,104.3,116.9z M107.3,111.7
			c0,0.2-0.1,0.3-0.1,0.4c0,0.1,0.2,0.2,0.2,0.3c0-0.1,0.1-0.2,0.1-0.3C107.5,112,107.4,111.8,107.3,111.7z"/>
		<path fill="#A3A2A2" d="M105.3,121c-0.3,0.6-0.2,1.1-0.3,1.6c-0.4,1.2-1.9,2.1-3.1,1.7c-0.4-0.1-0.9,0-1.2-0.3
			c-0.2-0.2-0.8-0.1-0.6-0.6c0.1-0.4,0.4-0.9,0.9-0.8c0.3,0.1,1-0.7,0.9,0.3c0.4-0.5,0.8,0.5,1.1,0c0,0,0-0.1,0.1-0.1
			c0.9,0.1,0.9-0.6,1.1-1.3C104.1,121.2,104.6,121.1,105.3,121z M101.4,123.6c0-0.1,0.1-0.1,0.1-0.2c0-0.1,0-0.2-0.1-0.1
			c-0.1,0-0.1,0.1-0.1,0.2C101.2,123.5,101.3,123.5,101.4,123.6z"/>
		<path fill="#727373" d="M79.7,116.8c-0.2,2.7-1.9,1.4-3.2,1.2c-0.2,0-0.3-0.1-0.5-0.1c-2.5-1.1-4.7-2.4-6.6-4.4
			C72.7,114.8,76,116.5,79.7,116.8z"/>
		<path fill="#848484" d="M96.7,121.3c0.8-0.8,1.8-1.2,2.9-1.3c-0.8,0.8-0.7,1.4,0.6,1.7c-0.7-0.1-1.6,1.4-1.9-0.4
			C98.3,121.2,97.2,121.3,96.7,121.3z"/>
		<path fill="#848484" d="M95.9,122.7c-0.3-0.2-0.9-0.2-0.9-0.8c0-0.4,0.4-0.3,0.6-0.3C95.6,122,96.9,122.1,95.9,122.7z"/>
		<path fill="#848484" d="M89.3,123c0.2,0,0.5,0,0.7,0.1C89.8,123.2,89.5,123.8,89.3,123z"/>
		<path fill="#FBFAF8" d="M105.8,86.5c0-4.8,0-9.6,0-14.4c0-3.5,2.8-5.9,6.4-5.6c1.2,0.1,0.7,0.9,0.7,1.4c0,7.3,0,14.6,0,21.9
			c0,2.6,0,5.3,0,7.9c-0.1,2.8-1.4,4.3-4,4.9c-0.3,0.1-0.7,0.2-1,0.3c-1.5,0.6-2,0.2-2-1.4C105.8,96.6,105.8,91.5,105.8,86.5
			C105.8,86.5,105.8,86.5,105.8,86.5z"/>
		<path fill="#FBFAF8" d="M96.4,90.6c0-4,0-8.1,0-12.1c0-1,0.2-1.5,1.3-1.5c1.5-0.1,3-0.4,4.5-0.6c0.9-0.1,1.4,0.1,1.4,1.2
			c0,8.2,0,16.5,0,24.7c0,1-0.4,1.3-1.4,1.4c-1.5,0.1-3,0.3-4.5,0.6c-1.1,0.2-1.4-0.1-1.4-1.2C96.4,98.9,96.4,94.8,96.4,90.6
			C96.4,90.6,96.4,90.6,96.4,90.6z"/>
		<path fill="#FBFAF8" d="M85.5,95c0-2.7,0-5.4,0-8.1c0-4.9,1.9-7.4,6.6-8.8c1.1-0.3,2.3-1,3.2-0.6c1,0.5-0.1,1.9,0,2.9
			c0.1,0.7,0,1.5-0.1,2.3c-0.1,0.9-0.1,1.7-1.3,2.1c-1.4,0.4-1.3,1.8-1.3,2.9c0,5.3,0,10.6,0,15.9c0,1.1-0.2,1.5-1.4,1.6
			c-1.4,0.1-2.9,0.4-4.3,0.6c-1,0.2-1.4,0-1.4-1.2C85.5,101.4,85.5,98.2,85.5,95z"/>
		<path fill="#C1C1C0" d="M74.3,66.8c-0.4,0-0.7,0-1.1,0.1c-2.5,0.1-4.5,1.3-6.4,2.7c-0.3,0.2-0.5,0.7-1,0.2
			c1.2-1.8,2.4-3.6,4.2-4.9c0.7,0.6,1.5,0.5,2.1,0.2c2.1-1,4.5-0.7,6.7-1.4c2.5-0.8,4.2-2.6,6.5-3.6c0.4-0.2,0.5-0.9,0.4-1.4
			c2.6,0.3,5.3,0.4,7.4,2.4c-2.6,1.9-5.9,2.7-8.6,4.5c-0.1,0.1-0.2,0-0.3,0c-2.8,0.7-5.7,0.8-8.6,0.7C75.2,66.2,74.5,65.9,74.3,66.8
			z"/>
		<path fill="#FBFAF8" d="M85.8,58.5c0.1,0.6,0,1.2-0.4,1.4c-2.2,1.1-4,2.8-6.5,3.6c-2.2,0.7-4.6,0.4-6.7,1.4
			c-0.6,0.3-1.5,0.4-2.1-0.2c1.6-1.6,3.3-3.1,4.8-4.7c1.6-1.8,4.5-2.8,7.3-2.7c-2.3,0.9-4.6,1.8-6.8,3.1c2.9-0.6,5.6-1.9,8.6-2
			c0.4,0.3,0.7,0.3,1.1,0C85.3,58.5,85.6,58.5,85.8,58.5z"/>
		<path fill="#A3A2A2" d="M105.4,107.3c-0.9-0.1-1.7-0.4-2.6-0.4c-0.8,0-1.6-0.1-2.7-0.8c2.4-0.2,4-1.9,6.4-1.8
			c2.5,0.1,4.6-1.9,7.1-2.1c0.7-0.1,3.5,1.4,3.7,2c0.1,0.2,0.1,0.4,0,0.5c-1.1,0.9-1.3,2.6-2.7,3.2c-0.5-0.1-0.7,0.4-1.1,0.6
			c-0.1-0.6,0.1-1.2,0.5-1.9c-1.2,0.2-2-0.7-3-0.9c-1.2-0.3-2.5-0.2-3.4,0.6C107,107.1,106.3,107.3,105.4,107.3z"/>
		<path fill="#FBFAF8" d="M100.1,67.2c2.2,0,3.7,1.5,3.6,3.6c0,2-1.8,3.7-3.9,3.7c-2.1,0-3.9-1.9-3.8-4.2
			C96.1,68.9,98.2,67.2,100.1,67.2z"/>
		<path fill="#A3A2A2" d="M74.3,66.8c0.2-0.9,0.9-0.6,1.4-0.6c2.9,0,5.8,0,8.6-0.7c0.1,0,0.3,0,0.3,0c2.7-1.9,5.9-2.6,8.6-4.5
			c0.8,0.3,1.7,1,1.5,1.7c-0.2,0.7-1.1,1.5-1.9,1.7c-1.5,0.4-2.6,1.6-4,2.2c-1.8,0.7-3.5,1.4-5.4,0.9c-0.5-0.1-0.6,0.2-0.7,0.5l0,0
			c-0.5,0.2-1-0.7-1.4,0C79,66.8,76.6,67,74.3,66.8z"/>
		<path fill="#FBFAF8" d="M94.6,114.6c-1.7,0.7-2.9,2.3-4.6,3c-1.2,0.5-2.5,0.9-3.9,0.8c-0.4,0-1.1-0.1-1.1-0.3
			c-0.4-1.8-2-0.7-2.9-1.4c4.5-0.6,8.1-2.7,11.4-5.7c0.2,0.5-0.6,0.8-0.3,1.4c1.1-0.1,1.8-0.7,2.5-1.4c0.3-0.2,0.6-0.3,1-0.5
			c0.1-0.1,0.3-0.2,0.4-0.2c0.1,0,0.2-0.1,0.3-0.1c0.7,0,1.3,0.1,0.8,1.1l0,0c-0.1,0.1-0.2,0.2-0.4,0.3l-0.1,0.1
			c-0.1,0.1-0.2,0.2-0.3,0.2C96.4,112.9,95.5,113.7,94.6,114.6z"/>
		<path fill="#C1C1C0" d="M105.4,107.3c0.9,0,1.6-0.2,2.3-0.9c0.9-0.8,2.1-0.9,3.4-0.6c1,0.2,1.8,1.1,3,0.9
			c-0.4,0.6-0.6,1.2-0.5,1.9c-1.2,1.2-2.1,2.7-3.8,3.2C108.6,110,107.4,108.2,105.4,107.3z"/>
		<path fill="#A3A2A2" d="M65.8,69.7c0.4,0.5,0.6,0.1,1-0.2c1.9-1.4,3.9-2.6,6.4-2.7C73.1,68,72,67.6,71.4,68
			c-1.5,0.9-3.5,0.9-4.3,2.8c-0.2,0.1-0.5,0.3-0.5,0.4c0.1,2.1-1.3,3.1-3.2,4C64,73.2,64.4,71.2,65.8,69.7z"/>
		<path fill="#FBFAF8" d="M84.9,75.1c-0.3-2.8-1.1-5.5-3.7-7.2c-2.2-1.1-4.6-1-6.9-1.1c-0.4,0-0.7,0-1.1,0.1l0,0
			c-2.6,0.1-4,1-5.9,2.3l-0.1,1.6l0.1,5c0,10.4,0,20.8,0,31.2c0,1.2,0.3,2,1.5,1.5c1.3-0.4,2.6-0.6,3.9-0.7c1.2-0.1,1.8-0.6,1.7-1.9
			c-0.1-3.5,0-7-0.1-10.5c0-0.9,0.1-1.4,1.2-1.7c3.1-0.9,5.6-2.8,7.3-5.6C85.1,84,85.4,79.6,84.9,75.1z M76.6,86.1
			c-0.3,0.3-0.5,0.6-0.9,0.8c-0.4,0.3-0.9,0.8-1.4,0.5c-0.4-0.2-0.1-0.9-0.2-1.3c0-2,0-4.1,0-6.1c0-2,0-4.1,0-6.1
			c0-0.5-0.5-1.4,0.8-1.5c1.1-0.1,2.1-0.4,2.8,0.8C79.3,75.8,78.5,83.8,76.6,86.1z"/>
		<path fill="#C1C1C0" d="M86.2,56.4c2.7-0.7,5.5-0.5,8.2-0.4c0.2,0,0.5,0.1,0.5,0.4c0,0.2-0.1,0.5-0.4,0.4
			C91.7,56.5,88.9,56.8,86.2,56.4z"/>
		<path fill="#FBFAF8" d="M109.7,111.8c1.8-0.5,2.6-2.1,3.8-3.2c0.3-0.2,0.6-0.7,1.1-0.6c-0.9,2.1-2.7,3.4-4.4,4.7
			C109.5,113.2,109.7,112.2,109.7,111.8z"/>
		<path fill="#C1C1C0" d="M102.3,58.9c-1.8-0.6-3.7-1.1-5.5-1.7c2.2-0.5,4,0.6,5.9,1.3C102.5,58.6,102.4,58.7,102.3,58.9z"/>
		<path fill="#848484" d="M95.6,111.2c-0.7,0.6-1.4,1.3-2.5,1.4c-0.3-0.6,0.5-0.9,0.3-1.4c0.4-0.6,1.2-0.6,1.7-1
			C95.3,110.5,95.2,110.9,95.6,111.2z"/>
		<path fill="#A3A2A2" d="M102.3,58.9c0.1-0.1,0.2-0.2,0.3-0.3c1.2,0.4,2.4,1,3.3,2.1C104.7,60,103.5,59.4,102.3,58.9z"/>
		<path fill="#FBFAF8" d="M85.1,58.5c-0.4,0.3-0.7,0.4-1.1,0C84.4,58.5,84.8,58.5,85.1,58.5z"/>
		<path fill="#F28355" d="M82.6,67.9c0.1,0,0.1,0.1,0.2,0.1c0,0-0.1,0-0.1,0C82.7,68,82.7,68,82.6,67.9L82.6,67.9z"/>
		<path fill="#848484" d="M98.1,111.4c0.6-0.9-0.1-1-0.8-1.1c1-0.8,2.2-1.2,3.9-0.9C99.9,110.1,99.4,111.3,98.1,111.4z"/>
		<path fill="#A9D0E7" d="M97.1,110.4c-0.1,0.1-0.3,0.2-0.4,0.2C96.8,110.6,96.9,110.5,97.1,110.4z"/>
		<path fill="#A9D0E7" d="M97.7,111.7c0.1-0.1,0.2-0.2,0.4-0.3C97.9,111.5,97.8,111.6,97.7,111.7z"/>
		<path fill="#A9D0E7" d="M97.4,112c0.1-0.1,0.2-0.2,0.3-0.2C97.5,111.9,97.5,111.9,97.4,112z"/>
		<path fill="#848484" d="M107.3,111.7c0.1,0.2,0.2,0.3,0.2,0.4c0,0.1,0,0.2-0.1,0.3c-0.1-0.1-0.2-0.2-0.2-0.3
			C107.2,111.9,107.3,111.8,107.3,111.7z"/>
		<path fill="#FBFAF8" d="M98.4,125c-0.1-0.1-0.2-0.2-0.2-0.3c0.1-0.1,0.2-0.3,0.3-0.4c0.2-0.1,0.3,0.1,0.2,0.3
			C98.6,124.7,98.5,124.8,98.4,125z"/>
		<path fill="#858585" d="M74.2,80.1c0-2,0-4.1,0-6.1c0-0.5-0.5-1.4,0.8-1.5c1.1-0.1,2.1-0.4,2.8,0.8c1.5,2.6,0.8,10.6-1.2,13
			c-0.3,0.3-0.5,0.6-0.9,0.8c-0.4,0.3-0.9,0.8-1.4,0.5c-0.4-0.2-0.1-0.9-0.2-1.3C74.2,84.1,74.2,82.1,74.2,80.1z"/>
	</g>
</g>
</svg>
