<?xml version="1.0" encoding="utf-8"?>
<!-- Generator: Adobe Illustrator 17.1.0, SVG Export Plug-In . SVG Version: 6.00 Build 0)  -->
<!DOCTYPE svg PUBLIC "-//W3C//DTD SVG 1.1//EN" "http://www.w3.org/Graphics/SVG/1.1/DTD/svg11.dtd">
<svg version="1.1" xmlns="http://www.w3.org/2000/svg" xmlns:xlink="http://www.w3.org/1999/xlink" x="0px" y="0px"
	 viewBox="0 0 180 180" enable-background="new 0 0 180 180" xml:space="preserve">
<g id="Layer_2" display="none">
	<rect x="70.4" y="55" display="inline" fill="#848485" width="39" height="70"/>
</g>
<g id="Layer_1">
	<g>
		<path fill="#848485" d="M89.1,106.1c-0.4-0.1-0.7-0.3-0.9-0.7c-0.9-1.9-1.9-3.7-2.9-5.6c-1.3-2.4-2.5-4.9-3.9-7.3
			c-1-1.7-1.9-3.4-2.8-5.1c-1-1.8-2-3.5-3.1-5.2c-0.3-0.5-0.6-1-0.9-1.5c-0.1-0.1-0.1-0.3,0-0.4c0.1-0.1,0.3,0,0.4,0.1
			c2.1,1.4,4.2,2.9,6.3,4.3c1.7,1.2,3.3,2.3,5,3.5c0.5,0.3,1,0.3,1.4-0.2c1.6-2.2,3.2-4.3,4.8-6.5c1.2-1.5,2.3-3,3.5-4.5
			c1.1-1.4,2.2-2.9,3.3-4.3c1-1.3,2-2.5,3-3.7c1-1.2,2-2.4,3-3.6c0.6-0.7,1.1-1.4,1.7-2c1.8-2,3.5-4,5.5-5.9c0.8-0.7,1.6-1.4,2.5-2
			c0.1-0.1,0.3-0.4,0.5-0.2c0.2,0.2,0,0.4-0.1,0.6c-0.6,0.8-1.1,1.7-1.7,2.5c-1.7,2.5-3.3,5.1-4.8,7.7c-1.5,2.5-3,5.1-4.4,7.7
			c-1.9,3.4-3.6,6.9-5.3,10.4c-1.4,2.8-2.7,5.7-4,8.5c-1.5,3.3-2.8,6.6-4.2,9.9c-0.4,0.9-0.7,1.8-1,2.8
			C89.9,105.7,89.7,106.1,89.1,106.1z"/>
		<path fill="#848485" d="M65.6,117.7c0.8,0,1.5-0.1,2.2-0.3c1-0.3,1.5-1.2,1.6-2.3c0.1-1.1-0.7-2.1-1.5-2.4
			c-0.9-0.4-1.8-0.2-2.7-0.3c-0.3,0-0.2,0.2-0.2,0.4c0,1.3,0,2.6,0,3.9c0,2.5,0,5,0,7.5c0,0.3,0,0.5-0.4,0.5c-0.7,0.1-1.3,0-2,0.1
			c-0.3,0-0.3-0.1-0.3-0.3c0-4.6,0-9.2,0-13.8c0-0.3,0.1-0.3,0.3-0.3c1.6,0,3.3-0.1,4.9,0c2,0.1,3.8,0.8,4.5,3.3
			c0.5,1.9-0.1,4.2-2.1,5.1c-0.3,0.1-0.3,0.2-0.1,0.5c1,1.7,2.1,3.4,3.1,5.2c0.1,0.2,0.1,0.3-0.2,0.3c-0.9,0-1.7,0-2.6,0
			c-0.2,0-0.2-0.1-0.3-0.2c-1.3-2.2-2.6-4.4-3.9-6.6C65.7,117.9,65.7,117.8,65.6,117.7z"/>
		<path fill="#848485" d="M114.4,124.8c-1-0.1-2.1,0.1-3.2-0.2c-1.4-0.4-2.6-1.6-2.6-3.2c0-0.8,0.1-1.5,0.5-2.2
			c0.6-1,1.6-1.5,2.7-1.7c0.8-0.2,1.6-0.1,2.4-0.1c0.4,0,0.4-0.2,0.3-0.4c-0.3-0.7-0.9-1.1-1.7-1.3c-1.1-0.2-2.2,0-3.2,0.5
			c-0.2,0.1-0.3,0.1-0.3-0.2c0-0.3,0-0.7,0-1c0-0.8,0-0.8,0.8-1.1c1.7-0.5,3.3-0.6,4.9,0.2c1.2,0.6,1.9,1.6,2.2,2.8
			c0.2,0.6,0.2,1.3,0.2,1.9c0.1,1.9-0.1,3.7-0.1,5.6c0,0.3-0.1,0.3-0.3,0.3C116.2,124.8,115.4,124.8,114.4,124.8z M114.7,121.2
			c0-0.4,0-0.9,0-1.3c0-0.2-0.1-0.4-0.3-0.4c-0.8,0-1.5-0.2-2.3,0.2c-0.6,0.3-1.1,1-1,1.6c0.1,0.9,0.5,1.4,1.3,1.6
			c0.7,0.2,1.3,0,2,0.1c0.2,0,0.2-0.1,0.2-0.3C114.7,122.1,114.7,121.7,114.7,121.2z"/>
		<path fill="#848485" d="M80.9,122c0,0.7,0,1.3,0,1.9c0,0.1,0,0.2-0.1,0.3c-0.8,0.4-1.6,0.7-2.5,0.8c-0.9,0.1-1.7,0.1-2.6-0.2
			c-1.8-0.5-2.8-1.8-3.1-3.5c-0.3-1.6-0.3-3.2,0.2-4.8c0.4-1.5,1.4-2.5,2.9-2.8c1.5-0.3,3-0.2,4.2,0.8c0.8,0.7,1.1,1.6,1.3,2.6
			c0.2,0.8,0.1,1.7,0.1,2.5c0,0.3-0.1,0.4-0.4,0.4c-1.8,0-3.6,0-5.4,0c-0.3,0-0.4,0.1-0.4,0.4c0,0.9,0.2,1.7,1.1,2.2
			c0.6,0.4,1.3,0.4,2,0.4C79.1,122.8,80,122.5,80.9,122z M77,118c0.5,0,1.1,0,1.6,0c0.2,0,0.3,0,0.3-0.2c-0.1-0.6-0.1-1.1-0.5-1.5
			c-0.6-0.6-1.2-0.7-2.1-0.4c-0.6,0.2-1.1,1.3-1.1,1.9c0,0.2,0.1,0.2,0.3,0.2C75.9,118,76.4,118,77,118z"/>
		<path fill="#848485" d="M98.5,119.1c0,1.5-0.1,2.7-0.7,3.9c-0.6,1.1-1.6,1.7-2.8,1.9c-0.9,0.2-1.7,0.1-2.5-0.2
			c-1.2-0.4-1.9-1.3-2.2-2.5c-0.6-1.9-0.6-3.9,0-5.8c0.5-1.5,1.5-2.5,3.1-2.8c1.1-0.2,2.2-0.1,3.1,0.5c1,0.6,1.6,1.6,1.8,2.8
			C98.5,117.7,98.6,118.5,98.5,119.1z M92.4,119.2c0,0.7,0,1.4,0.1,2.1c0.1,0.9,0.9,1.6,1.7,1.6c0.8,0,1.6-0.7,1.7-1.6
			c0.2-1.4,0.2-2.8,0-4.2c-0.1-0.8-0.8-1.5-1.6-1.6c-0.7-0.1-1.4,0.5-1.7,1.2C92.3,117.6,92.4,118.4,92.4,119.2z"/>
		<path fill="#848485" d="M99.4,119.7c0-1.6,0-3.1,0-4.7c0-0.3,0.1-0.4,0.3-0.5c1.3-0.8,2.8-1.1,4.3-1c2,0.1,3.6,1.2,3.9,3.5
			c0.1,1.1,0.1,2.3,0.1,3.4c0,1.3,0,2.6,0,3.9c0,0.4-0.1,0.5-0.5,0.4c-0.6,0-1.2,0-1.7,0c-0.3,0-0.4-0.1-0.4-0.4c0-2.2,0-4.5,0-6.7
			c0-1-0.4-1.8-1.3-2c-0.7-0.2-1.4,0-2,0.2c-0.3,0.1-0.2,0.3-0.2,0.5c0,2.6,0,5.2,0,7.8c0,0.5-0.1,0.6-0.6,0.5c-0.5,0-1.1,0-1.6,0
			c-0.3,0-0.3-0.1-0.3-0.4C99.4,122.9,99.4,121.3,99.4,119.7z"/>
		<path fill="#848485" d="M81,113.7c1,0,1.8,0,2.7,0c0.2,0,0.2,0.1,0.3,0.2c0.5,1,1.1,2,1.6,3.1c0.5-0.9,1-1.7,1.4-2.6
			c0.3-0.5,0.5-0.8,1.2-0.7c0.7,0.1,1.4,0,2.2,0c-0.6,1-1.1,2-1.7,2.9c-0.5,0.8-0.9,1.6-1.4,2.4c-0.1,0.2,0,0.3,0.1,0.4
			c0.9,1.6,1.9,3.3,2.8,4.9c0.1,0.1,0.1,0.2,0.2,0.4c-0.9,0-1.7,0-2.6,0c-0.2,0-0.3-0.1-0.4-0.3c-0.5-0.9-1-1.8-1.5-2.7
			c0-0.1,0-0.2-0.2-0.2c-0.1,0-0.2,0.1-0.2,0.2c-0.5,0.9-0.9,1.7-1.4,2.6c-0.1,0.3-0.3,0.4-0.6,0.4c-0.8,0-1.6,0-2.5,0
			c0.8-1.4,1.5-2.7,2.3-4c0.3-0.5,0.5-0.9,0.8-1.3c0.1-0.2,0.1-0.3,0-0.5c-0.6-1.1-1.2-2.1-1.9-3.2C81.8,115.2,81.4,114.5,81,113.7z
			"/>
	</g>
</g>
</svg>
