<?xml version="1.0" encoding="utf-8"?>
<!-- Generator: Adobe Illustrator 17.1.0, SVG Export Plug-In . SVG Version: 6.00 Build 0)  -->
<!DOCTYPE svg PUBLIC "-//W3C//DTD SVG 1.1//EN" "http://www.w3.org/Graphics/SVG/1.1/DTD/svg11.dtd">
<svg version="1.1" xmlns="http://www.w3.org/2000/svg" xmlns:xlink="http://www.w3.org/1999/xlink" x="0px" y="0px"
	 viewBox="0 0 180 180" enable-background="new 0 0 180 180" xml:space="preserve">
<g id="Layer_2" display="none">
	<rect x="70.4" y="55" display="inline" fill="#848485" width="39" height="70"/>
</g>
<g id="Layer_1">
	<g>
		<path fill="#858585" d="M89.8,115c0,1.3-0.2,2.6-0.7,3.8c-0.3,0.9-0.8,1.7-1.2,2.6c-0.1,0.2-0.1,0.4,0,0.5
			c0.6,0.9,1.5,1.5,2.4,1.3c0.5-0.1,0.5-0.2,0.4-0.7c-0.2-1.1,0-2.2,0.5-3.2c0.4-0.7,0.8-1.4,1.5-1.8c0.8-0.5,1.7-0.3,2.1,0.5
			c0.2,0.3,0.4,0.7,0.4,1c0.2,1.1-0.2,1.9-1,2.6c-0.3,0.3-0.7,0.5-1.1,0.8c-0.3,0.2-0.2,0.3,0,0.4c0.8,0.5,1.6,0.2,2.3-0.3
			c0.8-0.5,1.3-1.3,1.6-2.2c0.4-0.8,0.6-1.6,1-2.4c0.1-0.2,0.2-0.5,0.4-0.7c0.3-0.3,0.6-0.3,0.7,0.1c0.3,0.7,0.5,1.4,0.7,2.1
			c0.3,0.9,0.6,1.8,0.9,2.7c0.1,0.2,0.3,0.4,0.4,0.5c0.3,0.3,0.7,0.2,0.9-0.1c0.5-0.9,0.8-1.8,0.5-2.8c-0.2-0.8-0.2-1.6,0.2-2.3
			c0.2-0.4,0.5-0.6,0.9-0.8c0.4-0.2,0.9,0.1,0.9,0.6c0,0.5,0,1.1-0.1,1.7c-0.2,0.8-0.5,1.7-0.8,2.5c-0.3,0.9-0.9,1.6-1.5,2.2
			c-0.5,0.5-1,0.7-1.7,0.7c-0.5,0-1-0.4-1.2-0.9c-0.2-0.6-0.4-1.1-0.6-1.7c-0.3-0.7-0.6-0.7-1-0.2c-0.4,0.5-0.8,1-1.3,1.5
			c-0.9,0.8-1.9,1.3-3.1,1.3c-0.7,0-1.3-0.2-1.7-0.7c-0.2-0.2-0.3-0.2-0.5,0c-0.6,0.4-1.2,0.6-1.9,0.7c-0.6,0-1.1-0.1-1.5-0.5
			c-0.2-0.2-0.4-0.4-0.7-0.6c-0.4-0.3-0.6-0.3-1-0.1c-0.3,0.2-0.7,0.5-1.1,0.7c-0.7,0.4-1.4,0.6-2.2,0.5c-0.3,0-0.7-0.2-0.9-0.4
			c-0.4-0.4-0.7-0.9-1.1-1.4c-0.4-0.6-0.6-0.7-1-0.1c-0.3,0.4-0.6,0.9-0.9,1.3c-0.1,0.2-0.3,0.3-0.4,0.4c-0.3,0.2-0.7,0.2-0.9-0.1
			c-0.4-0.5-0.7-1-1-1.6c-0.3-0.5-0.5-1.1-0.8-1.6c-0.1-0.2-0.3-0.4-0.4-0.5c-0.3-0.3-0.6-0.3-0.9,0c-0.9,0.8-1.9,1.6-2.8,2.4
			c-0.5,0.4-1,0.9-1.5,1.3c-0.2,0.2-0.5,0.3-0.7,0.1c-0.3-0.2-0.3-0.4-0.2-0.7c0.2-0.7,0.4-1.4,0.6-2.1c0.2-0.7,0.3-1.3,0.5-2
			c0.1-0.4,0.2-0.8,0.4-1.1c0.1-0.1,0.2-0.3,0.4-0.4c0.3-0.2,0.5-0.1,0.6,0.3c0.1,0.5,0.2,1,0.4,1.5c0.2,0.5,0.4,0.6,0.8,0.2
			c0.2-0.2,0.3-0.4,0.5-0.6c0.5-0.6,1-1.2,1.5-1.8c0.1-0.2,0.3-0.3,0.5-0.4c0.4-0.2,0.7-0.1,0.8,0.3c0.3,0.7,0.5,1.4,0.8,2.1
			c0.2,0.6,0.4,1.2,0.7,1.7c0.2,0.4,0.4,0.6,0.8,0.8c0.3,0.1,0.5,0.1,0.7-0.1c0.5-0.5,0.9-1,0.9-1.8c0-0.8,0.2-1.5,0.6-2.2
			c0.3-0.5,0.9-0.7,1.2-0.3c0.1,0.1,0.2,0.3,0.2,0.4c0.3,0.8,0.2,1.5,0,2.3c-0.2,0.7,0,1.4,0.5,1.9c0.6,0.6,1.7,0.8,2.4,0.3
			c0.4-0.3,0.7-0.6,1.1-0.9c0.1-0.1,0.1-0.3,0.1-0.5c-0.7-2.1-0.9-4.2-0.5-6.4c0.2-0.9,0.5-1.8,0.9-2.6c0.6-1,1-1.2,1.9-1.1
			c0.7,0.1,0.9,0.6,1.1,1.1C89.8,113.3,89.7,114.1,89.8,115z M86.7,117.2C86.7,117.2,86.7,117.2,86.7,117.2c0.1,0.5,0.1,1,0.1,1.4
			c0,0.3,0.1,0.7,0.2,1c0,0.1,0.2,0.3,0.3,0.3c0.1,0,0.2-0.1,0.3-0.2c0.7-1.5,1.1-3.1,1-4.8c0-0.4-0.1-0.8-0.3-1.1
			c-0.2-0.5-0.7-0.5-1,0c-0.2,0.3-0.3,0.6-0.4,0.9C86.9,115.5,86.8,116.3,86.7,117.2z M92.1,120.5c0,0.6,0.1,1.1,0.4,1.4
			c0.1,0.1,0.3,0.1,0.4,0.1c1-0.3,1.3-1.8,1-2.5c-0.3-0.6-0.7-0.7-1.1-0.3C92.2,119.5,92.1,120,92.1,120.5z"/>
		<path fill="#858585" d="M66.2,55c0.8,0.2,1.7,0.3,2.5,0.5c0,0,0.1,0,0.1,0c0.2,0.1,0.5,0.3,0.5,0.4c0,0.2-0.2,0.4-0.4,0.5
			c-0.4,0.3-0.8,0.5-1.1,0.7c-0.1,0.1-0.3,0.2-0.4,0.3c-0.2,0.3-0.2,0.5,0.2,0.6c0.4,0.1,0.9,0.2,1.3,0.2c0.3,0,0.6,0.1,0.9,0.1
			c0.3,0.1,0.4,0.2,0.3,0.5c-0.1,0.2-0.2,0.3-0.3,0.5c-0.5,0.5-1,1-1.5,1.5c-0.1,0.1-0.1,0.3-0.2,0.4c0.1,0,0.3,0.1,0.4,0
			c0.5-0.2,1-0.4,1.4-0.6c0.1,0,0.2-0.1,0.3-0.1c0.2,0,0.4-0.1,0.5,0c0.1,0.1,0.1,0.4,0.1,0.5c-0.1,0.5-0.2,0.9-0.3,1.4
			c0,0.1-0.1,0.2,0,0.3c0,0.1,0.1,0.3,0.2,0.3c0.1,0,0.2,0,0.3-0.1c0.2-0.2,0.4-0.5,0.6-0.8c0.2-0.2,0.3-0.5,0.5-0.7
			c0.1-0.1,0.3-0.2,0.4-0.1c0.1,0,0.2,0.2,0.2,0.3c0,0.5,0.1,1,0.1,1.5c0,0.2,0,0.4,0.1,0.6c0,0.1,0.1,0.2,0.2,0.2
			c0.1,0,0.2-0.1,0.2-0.1c0.1-0.3,0.2-0.6,0.3-0.9c0.1-0.4,0.2-0.8,0.4-1.1c0.1-0.3,0.3-0.3,0.5,0c0.2,0.3,0.3,0.6,0.5,0.9
			c0.1,0.1,0.3,0.2,0.5,0.3c0.1-0.2,0.2-0.3,0.2-0.5c0-0.4,0-0.7,0-1.1c0-0.4,0.2-0.5,0.5-0.3c0.4,0.2,0.7,0.6,1.1,0.9
			c0.3,0.3,0.6,0.5,0.9,0.8c0.1,0.1,0.2,0,0.3,0.1c0-0.1,0.1-0.2,0-0.3c-0.2-0.5-0.5-1-0.7-1.6c-0.2-0.4-0.3-0.9-0.4-1.3
			c-0.1-0.4,0.1-0.5,0.5-0.5c0.2,0,0.5,0.1,0.7,0.2c0.5,0.2,1,0.3,1.5,0.5c0.1,0,0.2,0.1,0.3,0.1c0.3,0,0.5-0.2,0.3-0.5
			c-0.3-0.4-0.6-0.8-1-1.2c-0.4-0.4-0.8-0.9-1.1-1.3c-0.2-0.2-0.1-0.5,0.1-0.6c0.4-0.2,0.8-0.4,1.3-0.6c0.9-0.3,1.9-0.4,2.9-0.4
			c0.1,0,0.2,0,0.4,0c0.1,0,0.2,0.1,0.2,0.2c0,0.1,0,0.2-0.1,0.2c-0.2,0.1-0.4,0.2-0.6,0.3c-0.5,0.2-1,0.4-1.5,0.6
			c-0.7,0.3-0.8,0.6-0.3,1.2c0.6,0.6,1.2,1.2,1.8,1.9c0.4,0.5,0.7,1,1.1,1.5c0.2,0.3-0.1,0.6-0.5,0.6c-0.3,0-0.7-0.1-1-0.2
			c-0.8-0.2-1.6-0.5-2.5-0.7c-0.2-0.1-0.5,0-0.7,0c0,0.2,0,0.5,0.1,0.7c0.3,0.7,0.6,1.4,0.9,2.1c0.2,0.4,0.3,0.9,0.4,1.4
			c0.1,0.4-0.2,0.6-0.5,0.4c-0.4-0.2-0.7-0.4-1-0.7c-0.6-0.4-1.1-0.9-1.7-1.4c-0.4-0.3-0.8-0.2-0.9,0.3c-0.1,0.4-0.1,0.7-0.2,1.1
			c-0.1,0.4-0.3,0.4-0.6,0.1c-0.2-0.2-0.4-0.4-0.5-0.6c-0.4-0.4-0.6-0.4-0.8,0.2c-0.2,0.6-0.3,1.2-0.5,1.8c-0.1,0.4-0.3,0.8-0.4,1.2
			c-0.1,0.1-0.2,0.3-0.4,0.4c-0.1-0.1-0.3-0.2-0.4-0.4c-0.1-0.3-0.2-0.6-0.2-0.9c-0.1-0.5-0.1-1.1-0.2-1.6c0-0.1,0-0.2-0.1-0.3
			c-0.1-0.3-0.3-0.3-0.5-0.1c-0.3,0.2-0.5,0.5-0.8,0.7c-0.1,0.1-0.2,0.2-0.4,0.3c-0.5,0.3-0.9,0.1-0.9-0.5c0-0.4,0.1-0.9,0.1-1.3
			c0-0.2,0.1-0.5,0.1-0.7c0-0.4-0.2-0.6-0.6-0.4c-0.6,0.3-1.3,0.6-1.9,0.9c-0.6,0.3-1.1,0.6-1.7,0.8c-0.2,0.1-0.5,0.1-0.7,0
			c-0.2-0.2,0-0.5,0.1-0.6c0.6-0.8,1.3-1.6,2-2.4c0.4-0.4,0.7-0.9,1-1.3c0.1-0.2,0.1-0.3-0.1-0.4c-0.3-0.1-0.5-0.1-0.8-0.1
			c-0.7,0-1.4,0-2.1-0.1c-0.1,0-0.2,0-0.3,0c-0.3-0.1-0.4-0.3-0.2-0.5c0.2-0.2,0.4-0.3,0.6-0.5c0.6-0.4,1.2-0.8,1.8-1.2
			c0.3-0.2,0.2-0.4-0.1-0.5c-0.6-0.2-1.2-0.3-1.8-0.5c-0.2-0.1-0.5-0.2-0.5-0.4c0-0.3,0.3-0.3,0.5-0.3C65.2,55.1,65.7,55.1,66.2,55
			C66.1,55,66.1,55,66.2,55z"/>
		<path fill="#858585" d="M76,102.6c0.1,0,0.2,0,0.2,0c0.6,0,1.3,0,1.9-0.2c0.9-0.2,1.4-1.4,1.4-2.2c0-0.1,0-0.2,0-0.3
			c0,0,0.1,0,0.1-0.1c0.2,0.2,0.5,0.4,0.7,0.6c0.5,0.5,0.9,1.2,1.1,1.9c0,0.2,0.2,0.4,0.4,0.4c0.7,0.2,1.4,0.3,2.1-0.1
			c0.3-0.2,0.5-0.4,0.6-0.8c0-0.3,0.2-0.3,0.4-0.4c0.7-0.2,1.4-0.4,2-0.7c0.9-0.5,1.5-1.3,1.8-2.2c0.1-0.3,0.2-0.3,0.4-0.2
			c0.5,0.4,1,0.7,1.4,1.1c0.1,0.1,0.3,0.1,0.4,0.1c0.9-0.2,1.8-0.1,2.7,0.2c0.2,0.1,0.3,0,0.4-0.2c0.1-0.1,0.3-0.2,0.5-0.2
			c0.1,0,0.3,0.2,0.3,0.3c0,0.4,0.2,0.7,0.5,1c0.1,0.1,0.2,0.3,0.1,0.4c-0.1,0.1-0.2,0.3-0.4,0.3c-0.3,0-0.4,0.1-0.5,0.4
			c-0.2,0.5-0.3,1.1-0.6,1.6c-0.5,1-1.3,1.1-2.3,0.7c-0.9-0.4-1.3-1.1-1.7-1.9c-0.1-0.2-0.3-0.5-0.6-0.6c-0.2-0.1-0.5-0.1-0.7,0.1
			c-0.3,0.3-0.7,0.6-1,0.9c-1.3,1.2-2.9,1.5-4.7,1.5c-0.2,0-0.4,0-0.6,0c-0.1,0-0.2,0-0.3,0.1c0,0.1,0.1,0.2,0.2,0.3
			c0.4,0.2,0.7,0.4,1.1,0.4c1.8,0.2,3.5-0.2,4.9-1.4c0.1-0.1,0.2-0.2,0.3-0.3c0.3-0.3,0.5-0.2,0.7,0.2c0.5,1.1,1.4,1.9,2.7,2.2
			c0.6,0.1,1.2,0,1.8,0.1c0.2,0,0.3,0.1,0.5,0.1c-0.1,0.2-0.2,0.4-0.3,0.5c-1,0.5-2,0.6-3.1,0.3c-0.3-0.1-0.6-0.3-0.7-0.6
			c-0.1-0.3-0.3-0.3-0.5-0.1c-0.9,0.5-1.8,0.9-2.8,1c-2.1,0.2-4-0.2-5.7-1.5c-0.4-0.3-0.9-0.6-1.4-0.8c-0.3-0.1-0.6-0.1-0.9-0.1
			c-1.2,0-2.2-0.5-3-1.3c0,0-0.1-0.1-0.1-0.1C76,102.7,76,102.7,76,102.6z M92.4,100.8c-0.4,0-0.8,0.3-0.8,0.7
			c0,0.4,0.4,0.9,0.8,0.9c0.4,0,0.8-0.4,0.8-0.8C93.2,101.2,92.9,100.8,92.4,100.8z"/>
		<path fill="#858585" d="M101.8,70c0.1,0,0.1,0,0.1,0c0.8,0.6,1.8,0.4,2.7,0.4c0.7,0,1.3-0.1,2,0c1.1,0.1,1.9,0.8,2.5,1.6
			c0.4,0.5,0.8,1,1.1,1.5c0.2,0.4,0.6,0.6,1,0.8c1.2,0.6,2.3,2,2.2,3.5c0,0.8-0.4,1.5-0.9,2.2c-0.3,0.4-0.6,0.8-0.9,1.2
			c-0.5,0.6-0.8,1.2-1,1.9c0,0.1,0,0.2,0,0.2c0.1,0,0.2,0.1,0.3,0c0.2-0.2,0.5-0.4,0.7-0.6c0.2-0.2,0.4-0.5,0.6-0.7
			c0.3-0.3,0.6-0.3,1-0.2c0.3,0.1,0.3,0.5,0.3,0.8c0,0.8-0.3,1.6-0.8,2.2c-0.1,0.2-0.3,0.4-0.5,0.6c-0.1-0.3-0.1-0.6-0.2-0.8
			c-0.2-0.7-0.9-0.9-1.5-0.4c-0.3,0.3-0.6,0.7-0.8,1c-0.1,0.1-0.2,0.3-0.3,0.5c-0.2-0.5-0.3-0.9-0.5-1.3c-0.4-0.8-0.7-1.7-1.3-2.4
			c-0.7-1-1.6-1.6-2.9-1.8c-0.5-0.1-1-0.2-1.3-0.6c-0.5-0.5-0.5-1.1-0.3-1.8c0-0.2,0.1-0.3,0.1-0.5c0.1-0.4,0.1-0.8,0.2-1.2
			c0.4,0.2,0.8,0.6,1.1,1c0.1,0.2,0.2,0.5,0.3,0.8c0.1,0.8,0.7,1.3,1.2,1.7c0.3,0.2,0.6,0.5,0.9,0.7c1,0.9,1.7,1.9,2.2,3.1
			c0,0.1,0.1,0.2,0.1,0.3c0,0,0.1,0,0.1,0c0-0.1,0-0.3,0-0.4c0-0.9-0.3-1.6-0.8-2.3c-0.6-0.8-1.3-1.6-1.9-2.4
			c-0.4-0.5-0.8-1-1.2-1.5c0,0,0-0.1-0.1-0.2c0.3,0,0.5,0.1,0.8,0.1c0.8,0.2,1.5,0.5,1.8,1.3c0.4,1.1,0.9,2.2,1.4,3.3
			c0.2,0.5,0.3,1,0.5,1.5c0.1-0.1,0.2-0.2,0.2-0.3c0.3-0.6,0.6-1.3,1-1.9c0.1-0.2,0.1-0.3-0.1-0.4c-0.4-0.2-0.8-0.4-1.2-0.6
			c-1-0.8-1.1-1.7-0.3-2.7c0.3-0.4,0.7-0.6,1.2-0.9c0.3-0.2,0.4-0.1,0.4,0.3c-0.1,0.6-0.2,1.2-0.2,1.9c0,0.4,0,0.7,0.1,1.1
			c0.1,0.6,0.5,0.7,0.9,0.3c0.7-0.7,1.1-2.1,0.7-3.1c-0.4-0.9-1.1-1.3-1.9-1.6c-0.3-0.1-0.7,0-1,0.2c-1.4,0.7-2.9,0.7-4.4,0.4
			c-0.6-0.1-1.2-0.5-1.7-0.9c-0.6-0.6-1.1-1.1-1.3-1.9C102.1,71.9,101.8,71,101.8,70z M106.1,72.1C106.1,72.1,106.1,72.1,106.1,72.1
			c0,0.2-0.1,0.4-0.2,0.4c-0.1,0-0.3-0.1-0.4-0.1c-0.1-0.1-0.1-0.2-0.2-0.3c-0.2-0.2-0.4-0.5-0.6-0.7c-0.1-0.1-0.3,0-0.4-0.1
			c0,0.1,0,0.3,0,0.4c0,0.1,0.1,0.2,0.2,0.4c0.2,0.3,0.1,0.4-0.2,0.5c-0.2,0.1-0.4,0.1-0.6,0.1c-0.1,0-0.2,0.1-0.2,0.2
			c0.1,0.1,0.2,0.2,0.2,0.2c0.1,0,0.2,0,0.3,0c0.3,0,0.7-0.1,1-0.1c0.1,0,0.3,0,0.4,0c0.2,0.1,0.2,0.2,0.1,0.4
			c-0.1,0.2-0.3,0.3-0.4,0.5c-0.1,0.1-0.1,0.2-0.1,0.3c0.1,0,0.2,0.1,0.3,0.1c0.3-0.1,0.5-0.2,0.8-0.3c0.4-0.2,0.7-0.5,1.2-0.5
			c0.1,0,0.3,0.1,0.3,0.1c0,0.1,0,0.2-0.1,0.3c-0.2,0.2-0.4,0.4-0.5,0.6c0,0.1,0,0.3,0.1,0.3c0,0.1,0.2,0,0.3,0
			c0.2-0.1,0.3-0.2,0.4-0.4c0.4-0.3,0.8-0.5,1.3-0.4c0.1,0,0.2,0.1,0.3,0c0.1,0,0.2-0.1,0.3-0.1c0-0.1,0-0.2-0.1-0.3
			c-0.1-0.1-0.2-0.2-0.4-0.3c-0.4-0.3-0.6-0.6-0.7-1.1c0-0.1,0-0.2-0.1-0.3c0-0.1-0.1-0.2-0.2-0.1c-0.1,0-0.2,0.1-0.2,0.2
			c0,0.1,0,0.3-0.1,0.4c0,0.4-0.2,0.5-0.6,0.3c-0.2-0.1-0.4-0.3-0.5-0.5c-0.2-0.3-0.3-0.6-0.4-0.9c0-0.1-0.2-0.1-0.3-0.2
			c-0.1,0.1-0.2,0.2-0.2,0.3C106,71.7,106.1,71.9,106.1,72.1z"/>
		<path fill="#858585" d="M99.8,64c-0.8-0.1-1.6-0.1-2.3-0.6c-0.2-0.1-0.4-0.2-0.6-0.3c-0.2-0.2-0.4-0.1-0.5,0.1
			c-0.1,0.2-0.2,0.3-0.3,0.5c-0.1,0.1-0.2,0.2-0.3,0.1c-0.1,0-0.1-0.2-0.2-0.3c-0.1-0.3-0.1-0.6-0.2-0.8c-0.1-0.4-0.3-0.4-0.6-0.1
			c-0.4,0.3-0.8,0.7-1.1,1c-0.1,0.1-0.2,0.1-0.3,0.1c0-0.1,0-0.2,0-0.3c0.2-0.5,0.5-0.9,0.7-1.4c0.3-0.6,0.2-0.7-0.4-0.8
			c-0.2,0-0.3,0-0.5,0c-0.2,0-0.2-0.2-0.1-0.3c0.1-0.1,0.3-0.3,0.4-0.4c0.1-0.1,0.2-0.2,0.3-0.2c0.6-0.5,0.5-0.8-0.1-1.1
			c-0.2-0.1-0.4-0.2-0.5-0.3c-0.2-0.1-0.2-0.3,0-0.4c0.2-0.1,0.5-0.3,0.7-0.4c0.3-0.2,0.4-0.3,0.2-0.6c-0.3-0.5-0.6-1-0.9-1.4
			c0-0.1-0.1-0.2-0.1-0.2c0-0.1,0-0.2,0-0.2c0.1,0,0.2,0,0.2,0c0.5,0.2,1,0.5,1.4,0.8c0.5,0.3,0.7,0.2,0.7-0.4c0-0.2,0-0.4,0-0.5
			c0-0.1,0.1-0.2,0.2-0.3c0.1,0.1,0.2,0.1,0.3,0.2c0.1,0.1,0.2,0.2,0.2,0.3c0.2,0.3,0.5,0.4,0.8,0.2c0.5-0.2,1.1-0.4,1.6-0.5
			c1.8-0.3,3.4,0.2,4.6,1.6c0.7,0.8,0.8,1.8,0.8,2.9c0,0.7-0.2,1.5-0.5,2.1c-0.6,1-1.5,1.8-2.7,2C100.6,63.9,100.2,64,99.8,64z
			 M102.6,59.2c-0.1-0.4-0.2-1.1-0.5-1.7c-0.7-1.5-2.6-1.8-4-1.2c-0.2,0.1-0.4,0.2-0.5,0.3c-0.1,0.1-0.1,0.4-0.1,0.5
			c0.1,0.1,0.3,0.2,0.5,0.2c0.3,0,0.6-0.2,0.9-0.2c0.2,0,0.4,0,0.6-0.1c-0.1,0.2-0.1,0.4-0.2,0.5c-0.3,0.4-0.2,0.6,0.4,0.7
			c0.4,0,0.8,0,1.2,0.1c0.1,0,0.3,0.1,0.4,0.2c-0.1,0.1-0.2,0.2-0.3,0.3c-0.3,0.2-0.6,0.3-0.9,0.5c-0.3,0.1-0.3,0.2-0.1,0.5
			c0.3,0.3,0.6,0.6,0.9,1c0.1,0.1,0.1,0.2,0.1,0.3c-0.1,0-0.2,0.1-0.3,0.1c-0.4,0-0.9-0.1-1.3-0.1c-0.3,0-0.4,0.1-0.3,0.4
			c0.1,0.3,0.1,0.5,0.2,0.8c0,0.1,0,0.2,0,0.3c-0.1,0-0.2,0-0.3,0c-0.3-0.2-0.7-0.3-1-0.5c-0.2-0.1-0.4-0.1-0.6,0.1
			c-0.1,0.2,0,0.4,0.2,0.5c1.3,1,3.1,0.9,4.2-0.4C102.5,61.3,102.5,60.4,102.6,59.2z M95.3,58.4c0,0-0.2,0-0.2,0.1
			c0,0.1,0,0.2,0.1,0.2c0.1,0.1,0.3,0.3,0.5,0.4c0.2,0.1,0.2,0.2,0,0.4c-0.2,0.1-0.3,0.3-0.5,0.4c-0.1,0.1-0.1,0.2-0.1,0.3
			c0,0,0.1,0.1,0.2,0.1c0.1,0,0.1,0,0.2,0c0.7,0,0.7,0,0.7,0.7c0,0.1,0.1,0.2,0.1,0.3c0.1-0.1,0.2-0.1,0.3-0.2
			c0.4-0.5,0.4-0.5,1-0.3c0.1,0,0.2,0,0.4,0c0-0.1,0-0.2-0.1-0.4c-0.2-0.6-0.2-0.6,0.4-0.7c0,0,0,0,0.1,0c0.1-0.1,0.2-0.1,0.3-0.2
			c-0.1-0.1-0.2-0.2-0.3-0.2c-0.8-0.2-0.8-0.2-0.4-0.9c0-0.1,0-0.2,0-0.2c-0.1,0-0.2,0-0.2,0c-0.1,0-0.1,0-0.1,0.1
			c-0.6,0.2-0.6,0.2-0.8-0.3c0,0,0-0.1-0.1-0.1c-0.1-0.1-0.2-0.2-0.3-0.3c0,0.1-0.1,0.2-0.1,0.3c-0.1,0.6-0.2,0.6-0.7,0.6
			C95.5,58.4,95.4,58.4,95.3,58.4z"/>
		<path fill="#858585" d="M68.9,89.6c-0.6-0.1-1.2-0.1-1.6-0.5c-0.1-0.1-0.1-0.2-0.2-0.3c0-0.1-0.1-0.1-0.2-0.1c0,0-0.1,0.1-0.1,0.1
			c-0.6,1.3-0.3,2.6,0.8,3.5c0.5,0.4,1,0.9,1.3,1.5c0.1,0.3,0.2,0.6,0.2,0.9c0,0.4-0.2,0.7-0.3,1.1c-0.8-0.6-1.7-1.1-2.3-1.9
			c-1-1.3-1-2.7-0.8-4.2c0.1-1,0.6-1.9,1.1-2.7c0.5-0.7,1-1.4,1.4-2.2c0.4-0.6,0.3-1.1-0.3-1.6c-0.2-0.2-0.4-0.4-0.5-0.6
			c-0.4-0.4-0.7-0.4-0.9,0.1c-0.2,0.4-0.1,0.8,0,1.2c0.1,0.3,0.4,0.6,0.3,0.8c-0.1,0.5-0.4,0.9-0.7,1.3c-0.1,0.1-0.2,0.2-0.3,0.3
			c-0.3,0.3-0.5,0.3-0.8-0.1c-0.4-0.5-0.4-1.1-0.5-1.7c-0.2-1.6-0.2-3.2,0.2-4.7c0.1-0.4,0.2-0.7,0.4-1.1c0.1-0.1,0.3-0.2,0.4-0.2
			c0,0.1,0.1,0.3,0.1,0.4c0,0.5-0.1,1-0.1,1.6c0,0.2,0.1,0.4,0.1,0.6c0,0.1,0.1,0.2,0.2,0.2c0.1,0,0.2-0.1,0.3-0.2
			c0.1-0.4,0.2-0.7,0.3-1.1c0.2-0.7,0.3-1.5,0.5-2.2c0-0.1,0.1-0.3,0.2-0.3c0.1-0.1,0.3-0.2,0.4-0.2c0.1,0,0.2,0.2,0.2,0.3
			c0,0.4,0,0.8-0.1,1.3c-0.1,0.5-0.2,1.1-0.3,1.6c0,0.1,0,0.2,0,0.3c0.1,0.2,0.2,0.3,0.2,0.5c0.1-0.1,0.3-0.2,0.4-0.4
			c0.3-0.7,0.5-1.4,0.7-2.1c0.2-0.5,0.4-1,0.6-1.5c0,0,0,0,0,0c0.2-0.1,0.4-0.4,0.6-0.4c0.3,0,0.3,0.4,0.2,0.6
			c-0.2,0.7-0.3,1.3-0.5,2c-0.2,0.6-0.4,1.2-0.6,1.8c0,0.1-0.1,0.2,0,0.4c0,0.2,0.2,0.3,0.4,0.1c0.3-0.4,0.6-0.8,0.8-1.2
			c0.3-0.6,0.5-1.3,0.8-2c0-0.1,0.1-0.2,0.1-0.2c0.1-0.1,0.3-0.2,0.4-0.3c0.1,0.2,0.3,0.4,0.2,0.5c-0.1,0.7-0.2,1.3-0.4,2
			c-0.3,0.9-0.8,1.8-1.2,2.7c-0.5,1-1,1.9-1.4,2.9c-0.3,0.8-0.7,1.7-0.3,2.6C68.6,89,68.7,89.2,68.9,89.6z"/>
		<path fill="#858585" d="M99.3,93.8c-0.1,0.3-0.1,0.7-0.2,1c-0.4,1.3-1.1,2.3-2.3,2.9c-1.1,0.6-2.2,0.8-3.5,0.6
			c-0.7-0.1-1.5-0.3-2.1-0.7c-1.5-1-2.3-2.4-2.5-4.2c-0.1-1.5,0.3-2.9,1.2-4c0.6-0.7,1.4-1.4,2.3-1.6c1-0.3,2.1-0.6,3.2-0.1
			c0.1,0.1,0.3,0.2,0.4,0.4c-0.1,0.1-0.3,0.2-0.4,0.3c-0.2,0.1-0.5,0.1-0.7,0.2c-0.1,0-0.1,0.1-0.1,0.2c0,0,0.1,0.1,0.2,0.1
			c0.2,0.1,0.4,0.1,0.5,0.2c0.3,0.2,0.4,0.6,0,0.7C95.3,89.9,95,90,94.8,90c-0.3,0-0.6,0-0.9,0c-0.2,0-0.4,0.1-0.6,0.2
			c-0.1,0.1-0.2,0.2-0.3,0.3c0.1,0.1,0.2,0.2,0.3,0.2c0.3,0.2,0.3,0.7,0,0.8c-0.1,0.1-0.3,0.1-0.5,0.2c-0.4,0.1-0.9,0.2-1.3,0.4
			c-0.5,0.2-0.9,0.6-1,1.2c-0.5,2.1,1.1,3.5,2.9,3.9c0.7,0.2,1.3,0.2,2,0c0.3-0.1,0.7-0.3,0.9-0.5c0.3-0.2,0.2-0.4-0.1-0.5
			c-0.4-0.1-0.4-0.1-0.2-0.5c0.1-0.1,0.1-0.4,0-0.5c-0.1-0.1-0.3-0.1-0.5,0c-0.5,0.1-1,0.4-1.6,0.4c-0.8,0.1-1.5,0-2.1-0.6
			c-0.2-0.2-0.3-0.4-0.3-0.6c-0.1-0.3,0.1-0.4,0.3-0.3c0.2,0.1,0.3-0.1,0.3-0.3c0-0.1,0-0.3,0-0.4c0.1-0.4,0.3-0.5,0.6-0.2
			c0.6,0.4,1.2,0.8,1.9,1c1.5,0.4,3,0.3,4.5-0.4c0,0,0.1,0,0.2-0.1C99.2,93.7,99.2,93.8,99.3,93.8z"/>
		<path fill="#858585" d="M68.4,116.7c0,1.5,0,2.9-0.5,4.3c-0.5,1.3-1.1,2.4-2.3,3.1c-0.5,0.3-1,0.5-1.6,0.6c-1.3,0.2-2.5,0-3.6-0.7
			c-0.7-0.5-1.1-1.1-1.4-1.8c-0.5-1.1-0.6-2.3-0.6-3.5c0-1.6,0.4-3.2,0.9-4.7c0.2-0.7,0.8-1,1.4-1.1c0.3,0,0.6,0.1,0.5,0.4
			c-0.1,0.7-0.1,1.5-0.3,2.2c-0.3,1.7-0.4,3.5-0.2,5.2c0.1,0.6,0.3,1.3,0.6,1.9c0.6,1.1,2,1.5,3.2,1c1-0.4,1.4-1.3,1.7-2.2
			c0.3-0.9,0.4-1.8,0.5-2.7c0.1-0.9-0.1-1.7-0.4-2.6c-0.3-0.7-0.5-1.5-0.3-2.3c0.1-0.4,0.3-0.7,0.7-0.9c0.6-0.4,1.1-0.2,1.3,0.5
			c0.2,0.5,0.3,1.1,0.3,1.7C68.5,115.5,68.4,116.1,68.4,116.7z"/>
		<path fill="#858585" d="M112.6,121.1c-0.2,0.3-0.3,0.5-0.5,0.8c-0.7,1-1.4,1.9-2.6,2.4c-1.1,0.4-2.2,0.5-3.2-0.3
			c-0.7-0.5-0.9-1.2-0.9-2.1c-0.1-1.4,0.4-2.7,1.4-3.7c0.6-0.6,1.8-1,2.5-0.6c1.2,0.6,1.9,2.2,0.8,3.5c-0.4,0.5-1,0.6-1.5,0.9
			c-0.3,0.1-0.5,0.2-0.8,0.4c-0.3,0.2-0.4,0.4-0.1,0.6c0.2,0.1,0.5,0.2,0.7,0.3c1.1,0.2,2-0.4,2.6-1.2c0.7-0.9,1.2-1.9,1.5-3
			c0.1-0.3,0.1-0.5,0.2-0.8c0-0.1,0.1-0.2,0.1-0.2c0.2-0.1,0.4-0.3,0.6-0.3c0.1,0,0.3,0.3,0.3,0.5c0.1,0.6,0.1,1.2,0.2,1.7
			c0.1,0.5,0.2,1,0.3,1.4c0,0.1,0.2,0.3,0.4,0.3c0.1,0,0.3-0.2,0.3-0.3c0.3-0.6,0.5-1.3,0.8-1.9c0.3-0.6,0.7-1.3,1.2-1.9
			c0.8-0.8,2.1-1.4,3.3-0.9c0.7,0.3,1,0.8,0.9,1.6c-0.1,0.4-0.5,0.7-0.9,0.7c-0.5,0-0.9-0.2-1.1-0.6c-0.3-0.4-0.5-0.5-0.9-0.2
			c-0.5,0.3-1,0.7-1.3,1.2c-0.6,1.1-1.1,2.2-1.6,3.3c-0.2,0.4-0.4,0.9-0.6,1.3c-0.4,0.6-0.9,0.6-1.2,0c-0.3-0.6-0.4-1.4-0.6-2
			C112.9,121.7,112.8,121.4,112.6,121.1C112.7,121.1,112.7,121.1,112.6,121.1z M106.8,120.7C106.8,120.7,106.8,120.7,106.8,120.7
			c0.1,0.3,0.1,0.5,0.2,0.8c0,0.1,0.2,0.2,0.3,0.2c0.8-0.2,1.3-0.6,1.7-1.3c0.2-0.5,0-1.2-0.5-1.4c-0.4-0.2-1,0-1.2,0.5
			C107,119.8,106.9,120.3,106.8,120.7z"/>
		<path fill="#858585" d="M105,58.4c0.3-0.1,0.5-0.2,0.8-0.3c0.5-0.1,1.1-0.2,1.6-0.2c0.1,0,0.2-0.1,0.3-0.1c0-0.1-0.1-0.2-0.1-0.2
			c-0.7-0.9-1.8-1.2-2.8-1.5c0,0-0.1,0-0.1,0c-0.1-0.1-0.2-0.1-0.2-0.2c0.1-0.1,0.1-0.1,0.2-0.2c1.1-0.3,2.2-0.5,3.4-0.4
			c0.3,0,0.6,0.1,0.9,0.2c0.6,0.2,0.8,0.7,0.6,1.3c-0.1,0.2-0.2,0.4-0.2,0.6c-0.1,0.3-0.1,0.6-0.1,0.9c0,0.3,0.3,0.6,0.7,0.7
			c0.3,0,0.6-0.1,0.7-0.5c0.3-0.6,0.2-1.2,0.1-1.8c-0.1-0.6,0.1-1.1,0.6-1.4c0.4-0.3,0.8-0.2,1.2-0.1c0.4,0.1,0.7,0.2,1.1,0.3
			c-0.1,0.1-0.1,0.2-0.2,0.2c-0.3,0.4-0.5,0.8-0.3,1.3c0.3,0.8,0.5,1.7,0.5,2.6c0,0.9-0.3,1.8-0.9,2.4c-0.6,0.6-1.3,1-2.1,1.2
			c-1.9,0.6-3.8,0.5-5.8,0.2c-0.1,0-0.2,0-0.4,0c-0.1,0-0.1-0.1-0.2-0.1c0-0.1,0.1-0.1,0.2-0.2c0.2-0.1,0.4-0.2,0.6-0.3
			c0.4-0.3,0.7-0.6,0.6-1.1c0-0.3-0.1-0.6-0.1-0.9c0-0.1,0-0.2,0-0.2c0.1,0,0.2,0,0.3,0.1c0.3,0.2,0.6,0.5,1,0.7
			c0.3,0.2,0.7,0.3,1,0.2c0.7-0.2,1-1,0.5-1.6c-0.3-0.4-0.9-0.5-1.3-0.7c-0.5-0.2-0.9-0.3-1.4-0.5c-0.1,0-0.2-0.1-0.2-0.1
			C105,58.5,105,58.4,105,58.4z M108.3,61.8C108.3,61.9,108.3,61.9,108.3,61.8c0.1,0.1,0.1,0.2,0.2,0.2c1.2,0,2.4-0.2,3.3-1.1
			c0.7-0.6,0.7-1.6,0-2.2c-0.1-0.1-0.2-0.1-0.3-0.1c0,0-0.1,0.2-0.1,0.3c-0.1,0.7-0.3,1.4-0.8,1.8c-0.4,0.3-0.8,0.6-1.3,0.8
			C108.9,61.7,108.6,61.7,108.3,61.8z M111.8,55.7c-0.3,0-0.5,0.3-0.5,0.5c0,0.2,0.3,0.5,0.5,0.5c0.3,0,0.5-0.3,0.5-0.5
			C112.3,56,112,55.7,111.8,55.7z"/>
		<path fill="#858585" d="M79,75.9c0.2,0,0.4,0.1,0.5,0.1c0.5,0.1,1,0.3,1.4,0.7c0.4,0.5,0.5,1.2,0.1,1.8c-0.2,0.4-1.2,1.1-1.7,1.3
			c0.4-1.4-0.1-2.5-1.2-3.4c-0.3,0.5-0.5,1-0.8,1.5c-0.1,0.2-0.1,0.5,0.1,0.7c0.1,0.1,0,0.2,0,0.4c0,0.4-0.1,0.9-0.1,1.3
			c0,0.2,0.2,0.3,0.2,0.5c0.1,0.1,0.2,0.2,0.2,0.4c0.1,0.3,0.1,0.6,0.1,0.9c0,0.3,0.1,0.5,0.4,0.7c0.2,0.1,0.3,0.4,0.4,0.6
			c0.1,0.2,0.3,0.4,0.4,0.6c0.2,0.3,0.2,0.4-0.1,0.6c-0.3,0.3-0.6,0.4-0.8,0.1c-0.4-0.4-0.7-0.8-1.1-1.2C77,83.5,77,83.3,77,83.3
			c0.1-0.3,0-0.5-0.1-0.7c-0.2-0.3-0.4-0.6-0.5-0.9c-0.1-0.2-0.2-0.5,0-0.7c0.1-0.2,0.1-0.4,0-0.6c-0.1-0.4-0.2-0.8-0.4-1.3
			c0-0.1,0-0.3,0-0.3c0.3-0.2,0.2-0.5,0.3-0.7c0.1-0.6,0.2-1.1,0.6-1.6c0.2-0.2,0.1-0.3-0.2-0.3c-0.9,0-1.7,0.2-2.5,0.7
			c-0.5,0.3-1,0.6-1.2,1.3c0,0-0.1,0-0.1,0c0-0.1-0.1-0.1-0.1-0.2c0.1-0.5,0.1-1.1,0.3-1.6c0.2-0.6,0.8-1,1.4-1
			c0.7,0,1.4,0.1,2.2,0.2c0.1,0,0.2,0,0.3,0c0-0.1-0.1-0.2-0.1-0.3c-0.3-0.3-0.6-0.6-1-0.8c-0.6-0.3-1.3-0.6-2-0.2
			c-0.2-0.3-0.1-1.4,0.3-1.6c0.4-0.3,1-0.3,1.5,0c0.8,0.4,1.3,1.1,1.7,1.9c0.1,0.1,0.2,0.3,0.2,0.4c0,0,0.1,0,0.1,0
			c0-0.1,0-0.2,0-0.4c0.1-0.6,0.1-1.3,0.2-1.9c0.1-0.5,0.6-0.6,1-0.3c0.5,0.3,0.9,0.8,1.2,1.4c-1,0-1.3,0.8-1.6,1.5
			c0,0,0,0.1,0.1,0.1c0.1,0,0.2-0.1,0.3-0.1c0.8-0.6,1.7-1,2.8-1.1c0.4,0,0.9,0.1,1.3,0.3c0.4,0.2,0.7,1,0.6,1.5
			c-0.1,0.2-0.2,0.5-0.3,0.8c-0.1-0.2-0.2-0.4-0.3-0.5c-0.3-0.4-0.7-0.5-1.2-0.6c-0.9-0.2-1.8,0-2.7,0.2C79,75.7,79,75.7,79,75.9
			C79,75.8,79,75.8,79,75.9z"/>
		<path fill="#858585" d="M71.2,94.3c0,0.2-0.1,0.3-0.1,0.5c-0.3,1.7,0.3,3.6,2,4.5c1.1,0.6,2.3,0.7,3.5,0.1
			c0.5-0.2,0.7-0.7,0.8-1.2c0.2-1.2-0.1-2.2-1-3c-0.7-0.6-1.7-0.8-2.5-0.5c-0.7,0.3-0.9,1-0.6,1.7c0.4,0.9,1.3,1.4,2.2,1.2
			c0.3-0.1,0.6-0.3,0.7-0.6c0.1-0.3-0.1-0.3-0.3-0.3c-0.4,0-0.8-0.1-1.2-0.3c-0.3-0.1-0.4-0.5-0.3-0.8c0.1-0.3,0.3-0.4,0.6-0.4
			c1.1,0.1,2,1.4,1.7,2.5c-0.2,0.6-0.8,1.1-1.5,1.2c-2,0.1-3.6-1.7-3.3-3.6c0.1-0.7,1-1.7,1.9-1.8c1.9-0.2,3.3,1,4,2.5
			c0.5,1.1,0.7,2.3,0.3,3.5c-0.4,1.2-1.3,1.9-2.5,2.1c-1.1,0.2-2.2,0-3.3-0.5c-1-0.5-1.7-1.2-2.2-2c-0.7-1.2-0.9-2.5-0.2-3.8
			C70.3,94.8,70.7,94.5,71.2,94.3C71.1,94.3,71.1,94.3,71.2,94.3z"/>
		<path fill="#858585" d="M106.2,91.3c2.5,0,3.9,2.2,3.1,4.4c-0.5,1.6-1.6,2.8-2.8,3.9c-0.3,0.2-0.6,0.4-0.9,0.7
			c-0.2,0.1-0.4,0.1-0.5,0c-0.1-0.1-0.2-0.2-0.3-0.2c-0.5-0.7-0.3-0.9,0.2-1.1c1.1-0.5,2-1.3,2.5-2.3c0.1-0.3,0.2-0.6,0.3-0.9
			c0-0.1-0.1-0.3-0.2-0.4c-0.1,0-0.3,0.1-0.4,0.2c-0.4,0.6-0.8,1.2-1.2,1.7c-0.3,0.4-0.7,0.7-1.1,1c-0.4,0.3-0.9,0.3-1.3,0.1
			c-0.5-0.2-1.1-0.4-1.4-1c-0.1-0.2-0.1-0.5,0.1-0.7c0.3-0.3,0.6-0.5,0.9-0.8c0.6-0.5,1.2-1,1.8-1.6c0.1-0.1,0.1-0.2,0.2-0.2
			c0.1-0.2,0.1-0.5-0.1-0.6c-0.2-0.2-0.4,0-0.6,0.1c-0.3,0.3-0.6,0.5-0.8,0.8c-0.6,0.5-1.2,1-1.8,1.5c-0.2,0.2-0.5,0.3-0.8,0.4
			c-0.3,0.1-0.5,0-0.6-0.2c-0.1-0.1-0.1-0.2-0.2-0.3c-0.3-0.6-0.2-0.9,0.5-1.1c0.7-0.2,1.3-0.4,1.9-0.8c0.4-0.4,0.8-0.7,1.2-1.1
			C104.3,91.8,105.1,91.2,106.2,91.3z M107.7,94c0.1,0,0.2,0,0.3,0c0.4-0.1,0.6-0.4,0.5-0.8c-0.2-0.7-0.9-1.2-1.6-1.1
			c-0.3,0-0.5,0.2-0.6,0.5C106.1,93.3,106.7,94,107.7,94z"/>
		<path fill="#858585" d="M74.7,67.1c0.1-0.2,0.3-0.4,0.4-0.6c0.8-1.2,2.2-1.4,3.4-0.9c0.7,0.3,1,1,1.1,1.7c0.1,0.4,0.1,0.8,0.1,1.4
			c0.2-0.2,0.3-0.3,0.4-0.4c0.4-0.5,0.8-1,1.4-1.2c0.8-0.3,1.6-0.1,2.1,0.7c0.5,0.8,0.5,1.7,0.2,2.6c0,0.1-0.1,0.1-0.2,0.2
			c-0.1-0.1-0.1-0.1-0.2-0.2c0-0.3,0-0.5-0.1-0.8c0-0.1-0.2-0.3-0.2-0.4c-0.1,0.1-0.3,0.2-0.3,0.3c-0.3,0.6-0.3,1.2-0.2,1.8
			c0.1,0.3,0.3,0.4,0.7,0.3c0.1,0.4-0.4,1.2-0.8,1.3c-0.9,0.2-1.8,0.1-2.4-0.8c-0.3-0.6-0.6-1.1-0.7-1.8c0-0.1-0.1-0.2-0.2-0.3
			C79.2,69.9,79,70,79,70c-0.9,1.1-2,1.6-3.4,1.5c-1.8,0-2.4-1.6-2.1-2.9c0-0.1,0.2-0.3,0.4-0.3c0.2,0,0.2,0.2,0.3,0.4
			c0,0.2,0.1,0.5,0.2,0.7c0.1,0.4,0.5,0.5,0.9,0.3c0.3-0.2,0.6-0.5,0.6-0.8c0.1-0.4,0.1-0.9,0.1-1.4c0-0.6-0.3-0.8-0.9-0.5
			C75,67.1,74.9,67.1,74.7,67.1C74.8,67.2,74.7,67.1,74.7,67.1z M76.2,70.2c0.1,0.1,0.1,0.4,0.2,0.4c0.1,0,0.3-0.1,0.4-0.2
			c0.2-0.3,0.4-0.7,0.5-1.1c0.2-0.8,0.4-1.7,0.6-2.5c0-0.2,0.1-0.5-0.1-0.6c-0.3-0.1-0.4,0.2-0.5,0.4c-0.2,0.5-0.4,1-0.6,1.5
			C76.6,68.8,76.4,69.5,76.2,70.2z M82.4,68.8C82.3,68.8,82.3,68.8,82.4,68.8c-0.1-0.1-0.1-0.2-0.1-0.2c0-0.1-0.1-0.3-0.2-0.4
			c-0.1,0.1-0.3,0.1-0.3,0.2c-0.2,0.3-0.3,0.5-0.4,0.8c-0.2,0.6-0.3,1.3-0.4,2c0,0.1,0.1,0.3,0.2,0.4c0.1-0.1,0.3-0.1,0.4-0.2
			c0.1-0.1,0.2-0.2,0.2-0.3C82,70.3,82.2,69.5,82.4,68.8z M79.2,68.5c0-0.2,0-0.4-0.1-0.6c-0.1-0.1-0.2-0.3-0.3-0.4
			c-0.1,0-0.3,0.1-0.4,0.3c-0.3,0.4-0.5,1-0.5,1.5c0,0.2,0.1,0.4,0.2,0.5c0.1,0.1,0.4,0,0.5-0.1C78.9,69.4,79.3,69.1,79.2,68.5z
			 M80.8,69.2c-0.1-0.2-0.2-0.3-0.2-0.4c0,0-0.2,0-0.2,0c-0.5,0.3-0.6,1-0.4,1.5c0,0.1,0.1,0.2,0.2,0.2c0.1,0,0.2-0.1,0.2-0.2
			C80.6,69.9,80.7,69.6,80.8,69.2z"/>
		<path fill="#858585" d="M82.5,77.7c0.1,0.1,0.2,0.1,0.3,0.2c0.3,0.3,0.7,0.7,0.9,1c0.4,0.6,0.4,1.4-0.1,2.1
			c-0.2,0.3-0.5,0.7-0.7,1c-0.3,0.4-0.3,0.9,0.1,1.2c0.2,0.2,0.3,0.3,0.5,0.5c0.8,0.7,0.8,1.3,0.3,2.3c-0.3,0.5-0.6,1-0.8,1.6
			c-0.4,1,0.1,2.1,1.1,2.5c0.1,0,0.1,0.1,0.2,0.2c-0.2,0-0.3,0.1-0.5,0.1c-1.1,0-2-0.4-2.8-1c-0.9-0.8-1.3-1.7-1.2-2.9
			c0.1-0.6,0.4-1.2,0.7-1.7c0.1-0.1,0.2-0.2,0.4-0.1c0.3,0.2,0.6,0.4,0.9,0.5c0.2,0.1,0.4,0.1,0.5,0c0.3-0.1,0.4-0.4,0.1-0.6
			c-0.4-0.3-0.8-0.5-1.1-0.8c-0.4-0.3-0.8-0.5-1.1-0.9c-0.6-0.6-0.6-1.2,0-1.7c0.4-0.3,0.8-0.6,1.2-0.9c0.4-0.3,0.8-0.7,1.1-1
			c0.3-0.4,0.3-0.8,0.1-1.3C82.5,77.9,82.5,77.8,82.5,77.7C82.5,77.7,82.5,77.7,82.5,77.7z"/>
		<path fill="#858585" d="M93,86.4c0-0.1,0-0.1,0.1-0.2c0.5-0.4,0.5-0.9,0.5-1.4c0-0.4-0.1-0.8-0.1-1.3c0-0.5,0.4-0.8,0.8-0.6
			c0.2,0.1,0.4,0.3,0.6,0.4c0.1,0.1,0.2,0.2,0.3,0.3c0.2,0.2,0.4,0.3,0.7,0.1c0.2-0.2,0.4-0.5,0.2-0.8c-0.1-0.2-0.2-0.4-0.4-0.6
			c-0.4-0.3-0.8-0.6-1.3-0.8c-0.5-0.3-0.9-0.7-1-1.3c-0.1-0.8,0.1-1.5,0.5-2.2c0,0,0,0,0.1-0.1c0,0,0,0,0.1,0
			c0.2,0.7,0.8,0.9,1.3,1.1c0.7,0.3,1,0.8,1,1.5c0,0.4,0,0.9,0,1.3c0,0.3,0.1,0.5,0.4,0.5c0.2,0,0.4-0.2,0.4-0.5
			c0-0.3,0-0.5-0.1-0.8c0-0.7,0.3-1.1,1-0.9c0.3,0.1,0.6,0.3,1,0.4c0.3,0.1,0.6,0.2,0.9,0.3c0.2,0.1,0.2,0.1,0.1,0.3
			c-0.3,0.4-0.7,0.4-1.1,0.6c-0.3,0.1-0.6,0.2-0.9,0.4c-0.7,0.3-0.9,1.1-0.3,1.6c0.3,0.3,0.7,0.3,1.1,0.2c0.3-0.1,0.3-0.4,0.3-0.6
			c0-0.1,0-0.2,0-0.4c0.1,0,0.2,0,0.3,0.1c0.9,0.3,1.4,1,2,1.6c0.2,0.2,0.1,0.4-0.1,0.5c-0.6,0.3-1.3,0.5-2,0.6c-0.2,0-0.5,0-0.7,0
			c0.1-0.2,0.1-0.4,0.2-0.6c0.1-0.3,0-0.5-0.3-0.5c-0.3,0-0.7-0.1-1,0c-0.4,0-0.6,0.3-0.4,0.7c0.2,0.3,0.4,0.6,0.6,0.9
			c0.3,0.5,0.1,1-0.5,1c-0.3,0-0.6,0-0.8-0.2c-0.6-0.3-0.7-0.8-0.4-1.4c0.1-0.2,0.2-0.5,0.3-0.7c0-0.1,0-0.3-0.1-0.3
			c-0.1-0.1-0.3-0.1-0.3-0.1c-0.2,0.1-0.4,0.3-0.6,0.5c-0.2,0.2-0.4,0.5-0.6,0.7c-0.3,0.2-0.7,0.4-1.1,0.6
			C93.6,86.4,93.3,86.4,93,86.4C93.1,86.5,93,86.4,93,86.4z"/>
		<path fill="#858585" d="M84.5,86.7c0.1,0.1,0.1,0.1,0.1,0.2c0,0.8,0.6,1.2,1.2,1.5c0.4,0.2,0.9,0.4,1.3,0.7
			c0.2,0.1,0.4,0.4,0.5,0.6c0.3,0.7,0.3,1.5,0.2,2.3c-0.4,1.8-2.1,2.8-3.8,2.9c-1.2,0.1-2.3-0.3-3.2-1.1c-0.8-0.7-1.3-1.6-1.4-2.7
			c0-0.3,0-0.7,0.1-1c0.1-0.4,0.5-0.4,0.7-0.1c0.6,0.8,1.5,1.2,2.4,1.3c0.8,0.1,1.7,0.1,2.5-0.3c0,0,0.1,0,0.1,0
			c0.8-0.4,0.8-0.9,0.1-1.4c-0.2-0.2-0.5-0.3-0.7-0.5c-0.5-0.4-0.7-0.8-0.5-1.4C84.2,87.3,84.4,87,84.5,86.7z M84.8,93.2
			c0,0.4,0.1,0.6,0.6,0.5c0.7-0.2,1.6-1.4,1.6-2.1c0,0,0-0.1,0-0.1c-0.1-0.4-0.3-0.5-0.6-0.2c-0.2,0.1-0.4,0.3-0.6,0.4
			C84.6,92.1,84.9,92.1,84.8,93.2z"/>
		<path fill="#858585" d="M103.4,89.9c0-0.1,0-0.2,0.1-0.4c0.2-0.5,0.4-1,0.5-1.5c0.2-0.5,0.1-1.1,0-1.6c-0.2-0.5-0.6-0.6-1-0.3
			c-0.4,0.4-0.8,0.9-0.8,1.6c0,0.5-0.1,0.9-0.1,1.4c0,0.1-0.1,0.2-0.1,0.3c-0.1-0.1-0.1-0.2-0.2-0.3c0-0.1-0.1-0.2-0.1-0.3
			c-0.2-0.5-0.4-0.6-0.8-0.3c-0.2,0.1-0.4,0.2-0.6,0.4c0,0-0.1-0.1-0.1-0.1c0.1-0.2,0.3-0.5,0.4-0.7c0.3-0.5,0.2-0.5-0.3-0.7
			c-0.3-0.1-0.5-0.2-0.8-0.2c0,0,0-0.1,0-0.1c0.3-0.1,0.5-0.1,0.8-0.2c0.7-0.1,1.4-0.4,1.9-0.8c0.7-0.6,0.9-1.2,0.3-2.1
			c-0.3-0.4-0.7-0.7-1.2-1c-0.4-0.2-0.7-0.4-1-0.6c0,0,0-0.1,0-0.1c0.1,0,0.2-0.1,0.2-0.1c0.2,0,0.3,0,0.5,0c0.3,0,0.5-0.2,0.4-0.5
			c0-0.2,0-0.4,0-0.6c0-0.1,0-0.2,0-0.3c0,0,0.1,0,0.1,0c0.2,0.2,0.3,0.4,0.5,0.6c0.2,0.4,0.4,0.4,0.7,0.1c0.1-0.1,0.3-0.3,0.4-0.4
			c0.1-0.1,0.2-0.1,0.3-0.1c0,0.1,0.1,0.2,0.1,0.3c-0.1,0.5-0.2,1-0.3,1.5c-0.1,0.4-0.2,0.9,0,1.3c0.1,0.2,0.3,0.4,0.4,0.4
			c0.2,0,0.4-0.1,0.5-0.3c0.4-0.4,0.4-1,0.3-1.5c0-0.3-0.1-0.7-0.1-1c0-0.1,0-0.2,0.1-0.3c0.1,0,0.2,0.1,0.2,0.1
			c0.1,0.1,0.2,0.2,0.3,0.4c0.2,0.3,0.4,0.3,0.6,0.1c0.2-0.1,0.4-0.3,0.6-0.4c0.1,0,0.1,0,0.2,0c0,0.1,0,0.1,0,0.2
			c-0.1,0.2-0.2,0.5-0.3,0.7c-0.2,0.3,0,0.4,0.2,0.5c0.2,0.1,0.5,0.1,0.7,0.2c0,0,0,0.1,0,0.1c-0.1,0-0.2,0.1-0.3,0.1
			c-0.4,0.1-0.9,0.2-1.3,0.3c-0.3,0.1-0.5,0.3-0.7,0.5c-0.3,0.4-0.2,0.8,0.3,0.8c0.5,0,1,0,1.5-0.1c0.4-0.1,0.8-0.3,1.2-0.4
			c0,0,0.1,0,0.3,0c-0.2,0.2-0.3,0.4-0.4,0.5c-0.4,0.6-0.4,0.8,0.3,1.1c0.2,0.1,0.3,0.2,0.5,0.3c0,0,0,0.1,0,0.1c-0.1,0-0.3,0-0.4,0
			c-0.9-0.1-0.9-0.1-0.9,0.8c0,0.1,0,0.3,0,0.4c-0.3-0.1-0.4-0.4-0.5-0.6c-0.3-0.7-0.8-1.2-1.4-1.5c-0.2-0.1-0.5-0.1-0.7,0
			c-0.1,0-0.2,0.3-0.2,0.5c0,0.2,0.1,0.5,0.2,0.7c0.4,0.7,1,1.2,1.7,1.6c0.1,0.1,0.2,0.1,0.4,0.3c-0.2,0.1-0.3,0.1-0.4,0.1
			c-0.1,0-0.2,0-0.3,0c-0.6,0-0.7,0.2-0.6,0.8c0,0.2,0.1,0.4,0.1,0.6c0,0.1,0,0.1-0.1,0.2c-0.1,0-0.2-0.1-0.2-0.1
			c-0.2-0.2-0.4-0.5-0.5-0.7c-0.2-0.2-0.4-0.2-0.6-0.1c-0.2,0.2-0.4,0.3-0.6,0.5C103.5,90,103.5,89.9,103.4,89.9z"/>
		<path fill="#858585" d="M72.5,86.6c0.2,0.2,0.3,0.3,0.4,0.4c0.3,0.1,0.6-0.1,0.7-0.4c0.2-0.6,0-1.3-0.2-1.9
			c-0.3-0.9-0.6-1.8-0.6-2.7c0-0.2,0-0.4,0-0.6c0-0.1,0-0.2-0.1-0.3c-0.3,0.3-0.4,0.7-0.5,1c-0.1,1-0.1,2-0.1,3
			c0,0.6-0.2,1.2-0.7,1.6c-0.3,0.3-1,0.3-1.3,0.1c-0.3-0.2-0.5-0.7-0.4-1.1c0,0,0-0.1,0.1-0.2c0.1,0,0.1,0.1,0.2,0.1
			c0.5,0.4,1.1,0.3,1.3-0.3c0.1-0.4,0.1-0.8,0.2-1.2c0.1-0.7,0-1.5,0.1-2.2c0.1-0.9,0.6-1.6,1.1-2.3c0.5-0.7,1.2-1.2,1.8-1.8
			c0,0,0.1,0,0.2-0.1c-0.1,0.2-0.2,0.4-0.2,0.5c-0.3,1.2-0.3,2.4,0.3,3.5c0.6,1.4,1.5,2.6,2.3,3.8c0.4,0.7,0.8,1.4,1.1,2.1
			c0.4,1.1-0.6,2.3-1.9,2.1c-0.8-0.2-1.3-1.2-1-1.9c0.1-0.1,0.1-0.2,0.3-0.3c0.1,0.1,0.1,0.2,0.1,0.3c0.1,0.4,0.4,0.6,0.8,0.5
			c0.4-0.1,0.7-0.5,0.5-0.9c-0.2-0.5-0.4-0.9-0.6-1.4c-0.6-1.1-1.3-2.1-1.8-3.2c-0.4-0.9-0.7-1.9-0.8-2.9c0-0.1,0-0.2-0.1-0.3
			c0,0-0.1,0-0.1,0c-0.1,0.2-0.2,0.5-0.2,0.7c-0.2,0.9,0,1.8,0.3,2.7c0.3,1,0.7,1.9,0.9,3c0.1,0.6,0.1,1.1-0.3,1.6
			C74,88,73.4,88.2,73,88c-0.4-0.2-0.6-0.6-0.6-1.1C72.5,86.8,72.5,86.7,72.5,86.6z"/>
		<path fill="#858585" d="M97.7,105.1c-0.8,0.1-1.5-0.1-1.9-0.9c-0.1-0.3-0.1-0.8-0.1-1.1c0.2-0.9,0.5-1.7,1.3-2.3
			c0.1-0.1,0.4-0.1,0.5-0.1c1.3,0.5,2.5,0.3,3.7-0.2c0.4-0.2,0.8-0.5,1.2-0.7c0.1-0.1,0.3-0.1,0.4,0c0.4,0.1,0.6,0.5,0.7,0.8
			c0.2,0.7,0,1.3-0.4,1.9c-0.8,1.1-1.9,1.8-3.2,2.2C99.2,104.9,98.4,105,97.7,105.1C97.7,105.2,97.7,105.1,97.7,105.1z M101.7,101.7
			c0-0.4-0.2-0.6-0.4-0.4c-0.6,0.4-1.3,0.5-2.1,0.5c-0.2,0-0.3,0.1-0.3,0.3c0,0.4-0.1,0.8-0.2,1.2c-0.1,0.3,0,0.4,0.3,0.3
			c0.5-0.1,1.1-0.2,1.5-0.5C101.1,102.9,101.6,102.5,101.7,101.7z"/>
		<path fill="#858585" d="M71.8,55.2c0.6,0,1,0.1,1.3,0.6c0.1,0.2,0.3,0.4,0.5,0.5c0.4,0.2,0.8,0.1,1.2-0.3c0.7-0.8,1.5-0.7,2.4-0.6
			c0.1,0,0.1,0.1,0.1,0.1c0,0.1-0.1,0.1-0.1,0.2c-0.2,0.1-0.3,0.2-0.5,0.3c-0.3,0.2-0.4,0.5-0.1,0.8c0.2,0.2,0.5,0.4,0.8,0.6
			c0.1,0.1,0.3,0.2,0.4,0.3c0.1,0.1,0.2,0.2,0.3,0.4c-0.1,0-0.3,0.1-0.4,0c-0.3,0-0.6-0.1-0.9-0.2c-0.6-0.1-0.9,0.3-0.7,0.8
			c0.1,0.3,0.3,0.6,0.4,0.9c0,0,0,0,0,0.1c0.1,0.2,0.2,0.5-0.1,0.6c-0.1,0-0.3-0.2-0.5-0.3c-0.3-0.3-0.6-0.7-0.9-1
			c-0.3-0.3-0.6-0.2-0.8,0.2c-0.1,0.2-0.2,0.5-0.2,0.7C74,60,74,60.3,73.9,60.5c-0.1,0.1-0.2,0.2-0.3,0.3c-0.1-0.1-0.2-0.2-0.2-0.4
			c-0.1-0.4-0.1-0.8-0.2-1.3c-0.1-0.5-0.5-0.7-0.9-0.4c-0.2,0.1-0.4,0.3-0.6,0.4c-0.1,0.1-0.3,0.2-0.4,0.3c-0.1,0-0.2,0-0.3,0
			c0-0.1,0-0.2,0-0.3c0.2-0.3,0.4-0.6,0.6-0.9c0.1-0.2,0.4-0.4,0.2-0.7c-0.2-0.3-0.5-0.2-0.7-0.2c-0.4,0-0.8,0.1-1.2,0.2
			c-0.1,0-0.2-0.1-0.3-0.1c0.1-0.1,0.1-0.2,0.2-0.3c0.4-0.2,0.9-0.4,1.3-0.6c0.5-0.3,0.5-0.6,0-0.9c0,0-0.1,0-0.1-0.1
			c-0.1-0.1-0.2-0.1-0.4-0.2c0.1-0.1,0.3-0.1,0.4-0.2C71.3,55.2,71.6,55.2,71.8,55.2z"/>
		<path fill="#858585" d="M103.9,69.2c-1.1,0.1-2-0.3-2.7-1c-0.7-0.6-1.2-1.4-1.4-2.4c-0.1-0.3,0-0.4,0.4-0.4c0.9,0,1.7-0.2,2.5-0.6
			c0.5-0.2,0.8-0.1,1,0.3c0.1,0.2,0.3,0.3,0.5,0.3c0.3-0.1,0.7-0.1,1-0.3c0.3-0.1,0.6-0.1,0.8,0.1c0.1,0.1,0.1,0.1,0.2,0.2
			c0.5,0.7,0.8,1.5,0.8,2.3c0,0.6-0.5,1-1.1,1.1C105.3,69,104.6,69.1,103.9,69.2C103.9,69.2,103.9,69.2,103.9,69.2z M104,67.8
			c0.4,0,0.9,0,1.3-0.4c0.1-0.1,0.2-0.2,0.1-0.3c-0.1-0.1-0.2-0.1-0.3-0.2c-0.1,0-0.1,0-0.2,0c-1-0.1-2-0.1-2.9-0.5
			c-0.1,0-0.3,0-0.4,0c0,0.1,0,0.3,0.1,0.4C102.4,67.6,103.1,67.8,104,67.8z"/>
		<path fill="#858585" d="M83.3,100.8c-1.1,0-2.1-0.3-2.6-1.3c-0.1-0.1-0.1-0.3-0.1-0.4c0.1,0,0.3,0,0.4,0c0.1,0,0.2,0,0.4,0.1
			c1.3,0.1,1.8-0.1,2.3-1.3c0.1-0.3,0.3-0.6,0.4-0.8c0.4-0.8,1.4-0.9,2.1-0.4c0.2,0.2,0.4,0.2,0.4-0.1c0-0.2,0-0.4,0-0.5
			c0-0.1-0.1-0.3-0.1-0.4c-0.1-0.3,0-0.5,0.2-0.6c0.3-0.1,0.5,0,0.7,0.2c0.1,0.2,0.2,0.3,0.5,0.2c0.1,0,0.4,0.1,0.5,0.2
			c0.2,0.2,0.2,0.5,0,0.7c-0.1,0.1-0.1,0.2,0,0.4c0.2,0.2,0.2,0.5,0,0.7c-0.2,0.2-0.5,0.2-0.7,0c-0.2-0.2-0.4-0.3-0.7-0.2
			c-0.2,0.1-0.3,0.2-0.2,0.4c0.3,0.8,0,1.5-0.6,2.1C85.5,100.4,84.4,100.7,83.3,100.8z"/>
		<path fill="#858585" d="M110.8,92.9c-0.1-0.1-0.1-0.1-0.1-0.2c-0.1-0.9-0.7-1.4-1.5-1.8c-0.4-0.2-0.8-0.3-1.2-0.6
			c-0.8-0.6-0.7-1.7,0.1-2.2c0.4-0.3,0.9-0.2,1.4,0c0.1,0,0.2,0.1,0.4,0.1c-0.1-0.1-0.1-0.2-0.2-0.4c-0.4-0.8,0.1-1.7,0.9-1.9
			c0.5-0.1,1.1,0.2,1.5,0.6c0.5,0.7,0.5,1.6,0.5,2.4c0,1.3-0.5,2.4-1.4,3.4C111.1,92.5,110.9,92.7,110.8,92.9z"/>
		<path fill="#858585" d="M68.6,91.3c0-0.7,0.3-1,0.9-1.2c0.2-0.1,0.3-0.1,0.3-0.4c-0.1-0.6,0.2-1.2,0.7-1.4
			c0.6-0.2,1.1-0.1,1.5,0.5c0.2,0.3,0.3,0.3,0.6,0.2c0.7-0.2,1.3,0.1,1.5,0.7c0.2,0.7-0.1,1.3-0.8,1.5C73,91.4,73,91.5,73,91.8
			c0.1,0.7-0.2,1.1-0.8,1.3c-0.7,0.2-1.2,0-1.5-0.6c-0.1-0.2-0.2-0.2-0.4-0.1c-0.4,0.1-0.8,0.1-1.1-0.1C68.8,92,68.6,91.7,68.6,91.3
			z M71.4,91.5c0.4,0,0.8-0.3,0.8-0.7c0-0.4-0.4-0.8-0.7-0.8c-0.4,0-0.8,0.3-0.8,0.7C70.6,91.1,71,91.5,71.4,91.5z"/>
		<path fill="#858585" d="M68.4,68.6c0.3,0,0.6,0.1,0.9,0.1c0.2,0,0.4,0.1,0.4,0.4c0.1,0.4,0.2,0.6,0.5,0.8c0.1,0.1,0.2,0.3,0.2,0.5
			c-0.3,1.6-1.6,2.7-3.2,2.9c-0.4,0-0.8,0-1.2-0.1c-0.4-0.1-0.7-0.2-1.1-0.1c-0.2,0.1-0.5-0.2-0.4-0.4c0.1-0.6,0.2-1.1,0.4-1.7
			c0.4-1.3,1.7-2.2,3.1-2.3C68.2,68.7,68.3,68.7,68.4,68.6C68.4,68.7,68.4,68.6,68.4,68.6z M65.8,70.9c0.1,0.6,0.4,1.1,0.9,1.4
			c0.3,0.2,0.7,0.3,1,0.1c0.1,0,0.2-0.1,0.2-0.2c0-0.1-0.1-0.1-0.2-0.2c-0.2-0.2-0.4-0.3-0.6-0.5c-0.3-0.3-0.5-0.7-0.5-1.1
			c0-0.1-0.1-0.2-0.2-0.2c-0.1,0-0.2,0-0.2,0.1C66.1,70.5,65.9,70.7,65.8,70.9z M69.6,70.8c-0.1-0.1-0.1-0.2-0.2-0.3
			c-0.1-0.1-0.2-0.2-0.3-0.3c-0.1-0.2-0.2-0.4-0.4-0.6c-0.1-0.3-0.3-0.3-0.6-0.3c-0.2,0.1-0.3,0.2-0.3,0.5c0.1,0.6,0.3,1.1,0.8,1.5
			c0.1,0.1,0.4,0.1,0.6,0.1C69.4,71.2,69.5,71,69.6,70.8z"/>
		<path fill="#858585" d="M113.6,69.6c-0.1,1-0.2,1.9-0.3,2.9c0,0.2-0.1,0.4-0.2,0.7c-0.1,0.3-0.3,0.3-0.6,0.2
			c-0.8-0.4-1.5-1-2.1-1.7c-0.5-0.6-0.9-1.3-1.2-2c-0.1-0.3,0-0.3,0.2-0.4c1,0,1.9-0.4,2.8-1c0.3-0.2,0.5-0.5,0.7-0.9
			c0.2-0.2,0.3-0.2,0.4,0c0.1,0.2,0.2,0.5,0.2,0.7C113.5,68.6,113.5,69.1,113.6,69.6C113.5,69.6,113.5,69.6,113.6,69.6z"/>
		<path fill="#858585" d="M81.5,97.9c-1-0.1-1.9-0.6-2.4-1.4c-0.1-0.1-0.1-0.2-0.1-0.3c-0.1-0.5-0.2-1-0.3-1.5
			c-0.2-0.9-0.8-1.4-1.5-1.8c-0.5-0.2-1-0.4-1.5-0.5c-0.2-0.1-0.4-0.1-0.6-0.2c-0.4-0.2-0.5-0.5-0.1-0.8c0.4-0.4,0.9-0.5,1.4-0.5
			c1.2,0.1,2.2,1,2.4,2.1c0.1,0.4,0.2,0.9,0.4,1.3c0.1,0.4,0.3,0.5,0.7,0.6c0.3,0,0.6,0,0.9,0c1.1,0.2,1.6,1,1.9,1.9
			c0.2,0.5-0.2,0.9-0.8,1C81.8,97.9,81.6,97.9,81.5,97.9z M81.3,96.9c0.5,0,0.7-0.2,0.5-0.6c-0.3-0.5-0.7-0.8-1.2-0.8
			c-0.1,0-0.4,0.1-0.5,0.3c-0.1,0.1,0,0.3,0,0.4C80.4,96.6,80.9,96.8,81.3,96.9z"/>
		<path fill="#858585" d="M98.9,67.2c0.3,0.4,0.3,0.8,0.3,1.2c-0.1,2-1.8,2.9-3.5,2.7c-0.2,0-0.5-0.1-0.7-0.2
			c-0.3-0.1-0.4,0-0.5,0.2c0,0.1-0.1,0.1-0.1,0.2c-0.1,0.2-0.3,0.3-0.5,0.1c-0.2-0.2-0.3-0.5-0.4-0.8c-0.2-0.7-0.2-1.4,0-2.1
			c0-0.1,0-0.1,0-0.2c0.2-0.5,0.2-0.5,0.6-0.2c0.4,0.3,0.9,0.5,1.4,0.4c0.1,0,0.3,0,0.4,0c0.1,0,0.2,0.2,0.2,0.3
			c0,0.1-0.1,0.2-0.2,0.3c-0.2,0.3-0.2,0.4,0.2,0.4c1.4,0.2,2.6-0.7,2.7-2.1C98.8,67.3,98.9,67.2,98.9,67.2z"/>
		<path fill="#858585" d="M96.9,87.8c0.3,0.1,0.6,0.1,0.8,0.3c0.5,0.3,1,0.7,1.4,1.1c0.8,0.8,0.9,2.3,0.2,3.3
			c-0.6,0.7-1.9,0.7-2.5-0.2c-0.4-0.5-0.4-1.1-0.2-1.6c0.1-0.3,0.2-0.6,0.3-0.9C97.2,88.9,97.2,88.7,96.9,87.8z M98.8,90.3
			c-0.1-0.4-0.3-0.8-0.6-1c-0.2-0.2-0.4-0.1-0.4,0.2c0,0.2-0.1,0.4-0.1,0.6c0,0.2,0,0.4,0.1,0.5c0.1,0.1,0.4,0.1,0.5,0
			C98.6,90.6,98.7,90.4,98.8,90.3z"/>
		<path fill="#858585" d="M70.1,73.8c0-0.7,0.3-1.3,0.7-1.8c0.1-0.1,0.3-0.2,0.4-0.1c1.2,0.6,2,1.3,1.9,2.7
			c-0.1,0.9-0.7,1.4-1.6,1.3c-0.7-0.1-1.2-0.7-1.2-1.4C70.1,74.2,70.1,74,70.1,73.8z"/>
		<path fill="#858585" d="M94.2,66.8c-0.3-0.7,0-1.4,0.6-1.9c0.8-0.6,1.7-0.5,2.5-0.1c0.1,0.1,0.2,0.1,0.3,0.2
			c0.2,0.2,0.4,0.2,0.6,0.1c0.2-0.1,0.4,0,0.4,0.2c0,1-0.3,1.8-0.9,2.6c-0.1,0.2-0.2,0.2-0.4,0c-0.2-0.2-0.4-0.4-0.7-0.6
			c-0.3-0.2-0.4-0.4-0.1-0.7c0.2-0.3,0.2-0.4-0.1-0.5c-0.7-0.3-1.5-0.1-2,0.6C94.3,66.6,94.3,66.7,94.2,66.8z"/>
		<path fill="#858585" d="M100,97.5c0.5,0.1,1,0.2,1.4,0.4c0.6,0.3,0.5,1.3,0,1.6c-1,0.6-2.1,0.6-3.1,0.3c-0.4-0.1-0.6-0.3-0.6-0.8
			c0-0.1,0-0.3,0-0.4c0-0.3,0.1-0.5,0.3-0.6C98.6,97.7,99.3,97.5,100,97.5C100,97.5,100,97.5,100,97.5z"/>
		<path fill="#858585" d="M112.1,64.2c0.6,0.1,0.9,0.8,0.9,1.4c-0.1,0.6-0.3,1.1-0.7,1.5c-1,1.1-2.3,1.5-3.8,1.2
			c-0.3,0-0.5-0.3-0.5-0.6c0-0.3,0.2-0.6,0.6-0.6c0.4-0.1,0.9-0.1,1.3-0.2c1-0.2,1.8-0.8,2.2-1.7C112.3,64.9,112.1,64.6,112.1,64.2z
			"/>
		<path fill="#858585" d="M69,66.5c0,0.3-0.1,0.6-0.1,0.8c0,0.2-0.1,0.3-0.3,0.2c-0.7-0.1-1.4-0.3-2-0.8c-0.7-0.6-0.8-1.7-0.2-2.3
			c0.6-0.6,1.7-0.4,2.1,0.3C68.8,65.4,69.1,65.9,69,66.5z"/>
		<path fill="#858585" d="M100.7,89.9c1.2,0.1,2.3,0.9,2.2,2c-0.1,0.7-0.6,1.2-1.2,1.2c-0.8,0-1.3-0.6-1.2-1.4
			c0-0.1,0.1-0.3,0.1-0.4C100.8,90.6,100.8,90.6,100.7,89.9z"/>
		<path fill="#858585" d="M84.1,64.8c-0.1,0.3-0.2,0.6-0.4,0.9c-0.2,0.3-0.4,0.3-0.6,0.1c-0.5-0.5-1-1.1-1.4-1.6
			c-0.4-0.6-0.8-1.2-1.1-1.8c-0.1-0.1-0.1-0.2-0.1-0.4c0.1,0,0.3,0,0.4,0.1c0.8,0.4,1.5,1,2.2,1.6c0.2,0.2,0.4,0.3,0.6,0.5
			C83.9,64.4,84,64.6,84.1,64.8z"/>
		<path fill="#858585" d="M99.2,77.2c0.9-0.1,1.3,0.7,1.3,1.3c0,0.7-0.6,1.3-1.3,1.3c-0.7,0-1.3-0.6-1.3-1.4
			C97.9,77.7,98.5,77.2,99.2,77.2z"/>
		<path fill="#858585" d="M80.4,113.2c0-0.7,0.3-1.2,0.8-1.4c0.7-0.3,1.3,0.1,1.5,0.8c0.1,0.6-0.3,1.4-0.7,1.6
			C81.3,114.6,80.3,114.4,80.4,113.2z"/>
		<path fill="#858585" d="M107.7,64.8c0.9,0.2,1.7-0.1,2.4-0.4c0.1-0.1,0.3-0.1,0.4-0.1c0.2-0.1,0.5-0.1,0.6,0.2
			c0.1,0.2,0.1,0.5,0,0.7c-0.4,0.6-1.9,1.2-2.7,1.1c-0.3-0.1-0.4-0.2-0.5-0.5C107.9,65.5,107.8,65.2,107.7,64.8z"/>
		<path fill="#858585" d="M100.5,72.8c0,0.6-0.5,1.2-1.2,1.2c-0.6,0-1.2-0.5-1.2-1.2c0-0.6,0.5-1.2,1.2-1.3
			C99.9,71.6,100.5,72.1,100.5,72.8z"/>
		<path fill="#858585" d="M98.2,74.8c0,0.7-0.5,1.1-1.1,1.1c-0.7,0-1.1-0.5-1.1-1.2c0-0.6,0.5-1.1,1.2-1.1
			C97.8,73.7,98.2,74.2,98.2,74.8z"/>
		<path fill="#858585" d="M94.6,75c0.5,0,1.1,0.5,1.1,1c0,0.6-0.5,1.1-1,1.1c-0.6,0-1.1-0.5-1.1-1.1C93.5,75.5,94,75,94.6,75z"/>
		<path fill="#858585" d="M66.6,68.1c-0.3,0.3-1.3,0.5-1.8,0.2c-0.4-0.2-0.7-0.8-0.7-1.3c0-0.7,0.4-1.2,0.9-1.4
			C65,66.7,65.5,67.6,66.6,68.1z"/>
		<path fill="#858585" d="M94.4,91.1c0.6,0,1.4,0.5,1.5,1.1c0.1,0.3,0,0.8-0.3,1c-0.3,0.2-0.6,0.3-0.9,0.1c-0.3-0.2-0.5-0.5-0.4-0.9
			C94.4,91.9,94.4,91.5,94.4,91.1z"/>
		<path fill="#858585" d="M69.2,73.4c0,0.1,0,0.2,0,0.2c-0.1,0.8,0,1.4,0.6,2c0.1,0.1,0.1,0.2-0.1,0.3c-0.4,0.2-1.2,0-1.5-0.4
			c-0.3-0.4-0.3-1,0.1-1.4C68.6,73.7,68.8,73.5,69.2,73.4z"/>
		<path fill="#858585" d="M67.3,76.3c-0.6,0.6-1.3,1-2.1,1.1c-0.5,0.1-0.9-0.2-1-0.7C64.1,76.3,64,76,64,75.6
			c0.4,0.4,0.9,0.9,1.5,0.9C66.1,76.5,66.7,76.4,67.3,76.3z"/>
		<path fill="#858585" d="M64.2,61.2c0-1,0.9-1.6,1.9-1.3c0.2,0.1,0.3,0.2,0.1,0.3c-0.4,0.6-1,1.1-1.7,1.4
			C64.3,61.8,64.2,61.7,64.2,61.2z"/>
		<path fill="#858585" d="M102.4,76.9c0,0.5-0.3,0.8-0.8,0.9c-0.5,0-0.8-0.4-0.8-0.8c0-0.5,0.3-0.9,0.8-0.9
			C102,76,102.4,76.3,102.4,76.9z"/>
		<path fill="#858585" d="M83.4,57c0.2,0.1,0.5,0.2,0.6,0.3c0.1,0.3,0.1,0.7-0.1,1c-0.1,0.1-0.3,0.2-0.5,0.1
			c-0.5-0.2-0.9-0.4-1.3-0.7c-0.3-0.2-0.2-0.4,0.1-0.5C82.6,57.1,83,57,83.4,57z"/>
		<path fill="#858585" d="M101.4,73.7c0.4,0,0.8,0.4,0.8,0.8c0,0.4-0.4,0.8-0.8,0.8c-0.4,0-0.7-0.4-0.7-0.8
			C100.7,74,101,73.7,101.4,73.7z"/>
		<path fill="#858585" d="M67,74.5c-0.2,0.5-1.1,0.9-1.6,0.8c-0.6-0.1-0.9-0.8-0.8-1.4c0.4,0.2,0.7,0.4,1.1,0.5
			C66.2,74.4,66.6,74.4,67,74.5z"/>
		<path fill="#858585" d="M70,68.1c0-0.4,0.3-0.7,0.7-0.7c0.4,0,0.7,0.3,0.7,0.7c0,0.4-0.4,0.7-0.8,0.7C70.3,68.8,70,68.5,70,68.1z"
			/>
		<path fill="#858585" d="M95.7,73.3c0,0.4-0.3,0.7-0.7,0.7c-0.4,0-0.7-0.3-0.7-0.8c0-0.4,0.4-0.7,0.7-0.7
			C95.3,72.6,95.7,72.9,95.7,73.3z"/>
		<path fill="#858585" d="M72.5,69.8c0,0.4-0.4,0.7-0.8,0.7c-0.4,0-0.7-0.4-0.7-0.8c0-0.3,0.4-0.7,0.7-0.7
			C72.2,69.1,72.5,69.4,72.5,69.8z"/>
		<path fill="#858585" d="M96.8,78c-0.4,0-0.7-0.4-0.7-0.8c0-0.4,0.3-0.7,0.7-0.7c0.4,0,0.8,0.3,0.8,0.7C97.6,77.7,97.3,78,96.8,78z
			"/>
		<path fill="#858585" d="M100.1,75.7c0,0.4-0.3,0.8-0.7,0.8c-0.4,0-0.7-0.4-0.7-0.7c0-0.4,0.4-0.7,0.7-0.7
			C99.7,75,100.1,75.4,100.1,75.7z"/>
		<path fill="#858585" d="M100.2,69.8c0.4,0,0.7,0.2,0.7,0.6c0,0.4-0.3,0.7-0.7,0.7c-0.4,0-0.7-0.3-0.7-0.7
			C99.5,70,99.8,69.8,100.2,69.8z"/>
		<path fill="#858585" d="M102.3,79.2c0,0.5-0.2,0.7-0.7,0.7c-0.4,0-0.7-0.3-0.7-0.7c0-0.4,0.3-0.7,0.7-0.6
			C102.1,78.6,102.3,78.8,102.3,79.2z"/>
		<path fill="#858585" d="M96.8,71.6c0.4,0,0.7,0.3,0.7,0.7c0,0.4-0.4,0.7-0.7,0.7c-0.3,0-0.6-0.3-0.6-0.6
			C96.1,71.9,96.4,71.6,96.8,71.6z"/>
	</g>
</g>
</svg>
