<?xml version="1.0" encoding="utf-8"?>
<!-- Generator: Adobe Illustrator 19.0.1, SVG Export Plug-In . SVG Version: 6.00 Build 0)  -->
<svg version="1.1" id="Слой_1" xmlns="http://www.w3.org/2000/svg" xmlns:xlink="http://www.w3.org/1999/xlink" x="0px" y="0px"
	 viewBox="0 0 1675.7 449.3" style="enable-background:new 0 0 1675.7 449.3;" xml:space="preserve">
<style type="text/css">
	.st0{fill:url(#SVGID_1_);}
	.st1{fill:#B40F35;}
	.st2{fill:url(#SVGID_2_);}
	.st3{fill:#FFFFFF;}
	.st4{fill:#CC2038;}
</style>
<g>
	<g>
		<linearGradient id="SVGID_1_" gradientUnits="userSpaceOnUse" x1="1.631789e-002" y1="224.6508" x2="413.2586" y2="224.6508">
			<stop  offset="0" style="stop-color:#EB474C"/>
			<stop  offset="1" style="stop-color:#CC2038"/>
		</linearGradient>
		<path class="st0" d="M370.5,368.1l-121.3,69.8c-26.3,15.2-58.7,15.2-85.1,0L42.8,368.1C16.3,352.9,0,324.7,0,294.2V155.1
			c0-30.5,16.3-58.7,42.8-73.9l121.3-69.8c26.3-15.2,58.7-15.2,85.1,0l121.3,69.8c26.5,15.2,42.8,43.4,42.8,73.9v139.1
			C413.3,324.7,397,352.9,370.5,368.1z"/>
		<path class="st1" d="M313.7,310.6L1.6,310.8c-0.9-4.7-1.5-9.4-1.6-14.2V156.7c0-5.6,0.4-11.2,1.4-16.8c0.5-2.7,1.1-5.4,1.8-8
			l310.5,0.4V310.6z"/>
		<linearGradient id="SVGID_2_" gradientUnits="userSpaceOnUse" x1="0" y1="221.3758" x2="313.6986" y2="221.3758">
			<stop  offset="0" style="stop-color:#D02337"/>
			<stop  offset="1" style="stop-color:#B40F35"/>
		</linearGradient>
		<path class="st2" d="M313.7,300.4L0.3,300.6c-0.4-4.2-0.2-8.4-0.2-12.6V159.3c0-6.1,0-11.6,1-17.1l312.7,0.3V300.4z"/>
		<polygon class="st3" points="260.7,130.7 206,200.2 151.2,130.7 98.5,130.7 98.5,309.7 152.5,309.7 152.5,226 205.5,290.1 
			258.5,226 258.5,309.7 312.5,309.7 312.5,130.7 		"/>
	</g>
	<path class="st4" d="M769.9,144.5c-4.7-4.4-7.1-9.8-7.1-16.1c0-6.3,2.4-11.6,7.1-16c4.7-4.3,10.4-6.5,17-6.5
		c6.5,0,12.1,2.2,16.7,6.5s6.9,9.7,6.9,16c0,6.3-2.3,11.7-6.9,16.1c-4.6,4.4-10.2,6.6-16.7,6.6C780.3,151.1,774.7,148.9,769.9,144.5
		z"/>
	<g>
		<path d="M531,292.9V163.4h38.3v18.5c3-6.5,7.6-11.6,13.9-15.4c6.3-3.8,13-5.7,20.1-5.7c20.4,0,34.2,7.5,41.4,22.4
			c9.4-15.1,22.4-22.6,38.9-22.6c15.7,0,27.9,5,36.6,15c8.7,10,13.1,24.6,13.1,43.8v73.6h-38.1v-69.6c0-8.2-2.1-14.6-6.2-19.1
			c-4.1-4.5-9.2-6.8-15.3-6.8c-6.6,0-12,2.2-16.1,6.5c-4.1,4.3-6.2,11-6.2,20v69h-38.3v-70.4c-0.1-7.9-2.2-14.1-6.3-18.5
			c-4.1-4.4-9.1-6.6-15-6.6c-6.5,0-11.9,2.1-16.2,6.3c-4.3,4.2-6.4,10.9-6.4,20.1v69H531z"/>
		<rect x="767.8" y="163.4" width="38.3" height="129.5"/>
		<path d="M841.5,292.9V163.4h38.3v19.2c3.4-6.6,8.6-11.9,15.6-16c6.9-4,14.2-6.1,21.9-6.1c14.9,0,26.5,4.7,34.8,14
			c8.3,9.3,12.5,23,12.5,41v77.3h-38.3v-68.6c0-8.2-2.1-14.6-6.2-19c-4.1-4.4-9.6-6.6-16.4-6.6c-15.9,0-23.9,8.7-23.9,26.1v68.1
			H841.5z"/>
		<path d="M991.6,228.7c0-10.1,1.7-19.5,5.1-28.2c3.4-8.6,8-15.8,13.7-21.6c5.7-5.7,12.4-10.2,20-13.5c7.6-3.3,15.5-4.9,23.8-4.9
			c8.3,0,15.9,1.7,22.9,5c7,3.3,12,7.9,15,13.7V92.8h38.3v200.1h-38.3v-16.1c-3.2,5.9-8.2,10.5-15.2,13.8c-7,3.3-14.5,5-22.8,5
			c-8.3,0-16.3-1.6-23.8-4.8c-7.6-3.2-14.2-7.6-20-13.3c-5.7-5.7-10.3-12.8-13.7-21.2C993.3,247.8,991.6,238.6,991.6,228.7z
			 M1031.6,227.9c0,9.3,2.9,16.8,8.7,22.5c5.8,5.8,12.9,8.6,21.3,8.6c8.2,0,15.3-2.9,21.1-8.8c5.9-5.8,8.8-13.3,8.8-22.4
			c0-9.3-2.9-16.7-8.7-22.3c-5.8-5.6-12.9-8.4-21.2-8.4c-8.4,0-15.5,2.9-21.3,8.6C1034.5,211.4,1031.6,218.8,1031.6,227.9z"/>
		<path d="M1167.4,263.4c-6.1-10.4-9.1-22.2-9.1-35.4c0-13.2,3-25,9.1-35.3c6.1-10.4,14.3-18.3,24.5-23.8
			c10.3-5.5,21.6-8.3,33.9-8.3c9.1,0,17.7,1.7,25.9,5c8.1,3.3,15.2,7.9,21.1,13.8c6,5.9,10.7,13.1,14.2,21.6s5.2,17.8,5.2,27.8
			c0,3.4-0.2,7.4-0.5,11.9h-95c0.9,7,4.5,12.5,10.9,16.3c6.4,3.8,13.4,5.7,21.1,5.7c5.6,0,11-1,16.1-3.2c5.1-2.1,9.2-5.2,12.3-9.2
			l28,19.2c-6.1,9-14.4,15.5-25.1,19.8c-10.7,4.2-22,6.3-34.1,6.3c-12.4,0-23.7-2.8-33.9-8.3
			C1181.6,281.8,1173.5,273.8,1167.4,263.4z M1197.2,216.7h56.1c-0.9-7-4.1-12.4-9.6-16c-5.5-3.6-11.4-5.4-17.7-5.4
			c-6.3,0-12.3,1.8-18,5.3C1202.4,204.1,1198.8,209.4,1197.2,216.7z"/>
		<path d="M1318.5,292.9V163.4h38.3v31c3.1-11.1,8.1-19.5,15-25.3c7-5.7,14.1-8.6,21.5-8.6c8.7,0,16.1,1.6,22.2,4.7l-6.9,34.4
			c-5.3-2.6-11.9-3.9-19.8-3.9c-11,0-19.1,4.3-24.3,12.9c-5.2,8.6-7.8,21.6-7.8,38.9v45.4H1318.5z"/>
		<path d="M1435.8,292.9V163.4h38.3v31c3.1-11.1,8.1-19.5,15-25.3c7-5.7,14.1-8.6,21.5-8.6c8.7,0,16.1,1.6,22.2,4.7l-6.9,34.4
			c-5.3-2.6-11.9-3.9-19.8-3.9c-11,0-19.1,4.3-24.3,12.9c-5.2,8.6-7.8,21.6-7.8,38.9v45.4H1435.8z"/>
		<path d="M1536.2,163.4h41l28.6,73.4l28.9-73.4h41l-79.9,193H1555l31.2-76.8L1536.2,163.4z"/>
	</g>
</g>
</svg>
