<?xml version="1.0" encoding="utf-8"?>
<!-- Generator: Adobe Illustrator 19.0.1, SVG Export Plug-In . SVG Version: 6.00 Build 0)  -->
<svg version="1.1" id="Слой_1" xmlns="http://www.w3.org/2000/svg" xmlns:xlink="http://www.w3.org/1999/xlink" x="0px" y="0px"
	 viewBox="0 0 200 200" style="enable-background:new 0 0 200 200;" xml:space="preserve">
<style type="text/css">
	.st0{fill:url(#SVGID_1_);}
	.st1{fill:#B40F35;}
	.st2{fill:url(#SVGID_2_);}
	.st3{fill:#FFFFFF;}
	.st4{fill:#FFE200;}
</style>
<g>
	<g>
		
			<linearGradient id="SVGID_1_" gradientUnits="userSpaceOnUse" x1="47.2750969" y1="101.9997787" x2="152.7248077" y2="101.9997787" gradientTransform="matrix(1 0 0 -1 0 202)">
			<stop  offset="0" style="stop-color:#EB474C"/>
			<stop  offset="1" style="stop-color:#CC2038"/>
		</linearGradient>
		<path class="st0" d="M141.8047791,136.600174l-30.9485855,17.8088379c-6.7102051,3.8781433-14.9767685,3.8781433-21.7124863,0
			L58.1951218,136.600174c-6.7612305-3.8781433-10.9200249-11.0731125-10.9200249-18.8549042v-35.490097
			c0-7.7817917,4.1587944-14.9767685,10.9200249-18.854908l30.9485855-17.8088303
			c6.7102051-3.8781433,14.9767685-3.8781433,21.7124863,0l30.9485855,17.8088303
			c6.7612305,3.8781395,10.9200287,11.0731163,10.9200287,18.854908v35.490097
			C152.7248077,125.5270615,148.5660095,132.7220306,141.8047791,136.600174z"/>
		<path class="st1" d="M127.3127823,121.9295731l-79.6294556,0.0510254
			c-0.2296295-1.1991653-0.3827133-2.3983231-0.408226-3.6230011V82.6633987c0-1.4287949,0.1020546-2.8575821,0.3571968-4.2863693
			c0.1275711-0.6888809,0.2806549-1.3777618,0.4592514-2.0411301l79.2212372,0.1020584V121.9295731z"/>
		
			<linearGradient id="SVGID_2_" gradientUnits="userSpaceOnUse" x1="47.2878532" y1="102.8289871" x2="127.338295" y2="102.8289871" gradientTransform="matrix(1 0 0 -1 0 202)">
			<stop  offset="0" style="stop-color:#D02337"/>
			<stop  offset="1" style="stop-color:#B40F35"/>
		</linearGradient>
		<path class="st2" d="M127.3127823,119.3271332l-79.9611435,0.051033
			c-0.1020584-1.0715942-0.0510292-2.1431808-0.0510292-3.2147751V83.326767c0-1.556366,0-2.9596405,0.2551422-4.362915
			l79.782547,0.0765457v40.2867355H127.3127823z"/>
		<polygon class="st3" points="113.7903137,76.0297318 99.8341064,93.7620239 85.8523941,76.0297318 72.4064713,76.0297318 
			72.4064713,121.6999512 86.1840744,121.6999512 86.1840744,100.3446579 99.7065353,116.6991882 113.2290039,100.3446579 
			113.2290039,121.6999512 127.0066071,121.6999512 127.0066071,76.0297318 		"/>
	</g>
	<g>
		<path class="st4" d="M100,198.6665039c-54.4049454,0-98.6666641-44.2613983-98.6666641-98.6663437
			S45.5950546,1.3334957,100,1.3334957s98.6666718,44.2617226,98.6666718,98.6666641S154.4049377,198.6665039,100,198.6665039z
			 M100,20.4101486c-43.8861809,0-79.5900116,35.7038345-79.5900116,79.5900116
			c0,43.8858566,35.7038345,79.5903397,79.5900116,79.5903397s79.5900116-35.704483,79.5900116-79.5903397
			C179.5900116,56.1139832,143.8861847,20.4101486,100,20.4101486z"/>
	</g>
</g>
</svg>
