<?xml version="1.0" encoding="utf-8"?>
<!-- Generator: Adobe Illustrator 19.0.1, SVG Export Plug-In . SVG Version: 6.00 Build 0)  -->
<svg version="1.1" id="Слой_1" xmlns="http://www.w3.org/2000/svg" xmlns:xlink="http://www.w3.org/1999/xlink" x="0px" y="0px"
	 viewBox="0 0 16 16" style="enable-background:new 0 0 16 16;" xml:space="preserve">
<style type="text/css">
	.st0{fill:url(#SVGID_1_);}
	.st1{fill:#B40F35;}
	.st2{fill:url(#SVGID_2_);}
	.st3{fill:#FFFFFF;}
</style>
<g>
	
		<linearGradient id="SVGID_1_" gradientUnits="userSpaceOnUse" x1="0.6409978" y1="10" x2="15.3590021" y2="10" gradientTransform="matrix(1 0 0 -1 0 18)">
		<stop  offset="0" style="stop-color:#EB474C"/>
		<stop  offset="1" style="stop-color:#CC2038"/>
	</linearGradient>
	<path class="st0" d="M13.8348541,13.1083899l-4.3196077,2.4856453c-0.9365683,0.5412874-2.090363,0.5412874-3.0304918,0
		l-4.3196082-2.4856453c-0.9436901-0.5412865-1.5241485-1.5455151-1.5241485-2.631649V5.5232582
		c0-1.086134,0.5804585-2.0903625,1.5241485-2.6316493l4.3196082-2.4856441c0.9365683-0.5412864,2.0903625-0.5412864,3.0304918,0
		l4.3196077,2.4856441c0.9436903,0.5412865,1.524148,1.5455153,1.524148,2.6316493v4.9534826
		C15.3590021,11.5628748,14.7785444,12.5671034,13.8348541,13.1083899z"/>
	<path class="st1" d="M11.8121529,11.0607605l-11.1141777,0.007122c-0.0320498-0.1673727-0.0534164-0.3347435-0.0569775-0.5056763
		V5.5802355c0-0.1994219,0.0142444-0.3988428,0.0498554-0.5982642C0.7086586,4.8858218,0.7300252,4.7896724,0.7549528,4.697084
		L11.8121529,4.711328V11.0607605z"/>
	
		<linearGradient id="SVGID_2_" gradientUnits="userSpaceOnUse" x1="0.6427784" y1="10.115736" x2="11.8157139" y2="10.115736" gradientTransform="matrix(1 0 0 -1 0 18)">
		<stop  offset="0" style="stop-color:#D02337"/>
		<stop  offset="1" style="stop-color:#B40F35"/>
	</linearGradient>
	<path class="st2" d="M11.8121529,10.6975288l-11.1604719,0.007122c-0.0142444-0.1495667-0.0071222-0.2991314-0.0071222-0.448698
		V5.6728239c0-0.217227,0-0.4130869,0.0356109-0.6089473l11.1355438,0.0106835v5.6229687H11.8121529z"/>
	<polygon class="st3" points="9.9247723,4.6543508 7.9768529,7.1293116 6.025373,4.6543508 4.1486764,4.6543508 
		4.1486764,11.0287113 6.0716672,11.0287113 6.0716672,8.0480738 7.9590478,10.3307362 9.8464279,8.0480738 9.8464279,11.0287113 
		11.7694187,11.0287113 11.7694187,4.6543508 	"/>
</g>
</svg>
